<svg width="200" height="200" viewBox="0 0 200 200" fill="none" xmlns="http://www.w3.org/2000/svg">
<path d="M20.0863 59.5102C14.1585 49.422 21.5683 36.8421 33.424 36.8421H84.4901C92.1469 36.8421 99.248 40.8531 103.076 47.4165L119.378 75.2503H74.3633L96.9016 113.658L82.8229 137.603C79.0562 144.045 69.6704 144.045 65.9038 137.603L20.0863 59.5102Z" fill="#003B83"/>
<path d="M131.531 75.3289C123.881 75.3289 116.787 79.3243 112.962 85.8621L82.6105 137.438C78.8474 143.794 69.4705 143.794 65.7073 137.438L83.3508 167.463C89.2731 177.512 104.079 177.512 109.939 167.463L164.104 75.3289H131.469H131.531Z" fill="#0075C2"/>
<path d="M140.193 35.6239C146.227 25.4835 159.601 21.9826 170.051 27.8375C180.502 33.6924 184.11 46.6698 178.076 56.8103C172.042 66.9508 158.668 70.4516 148.217 64.5967C137.767 58.7418 134.159 45.7644 140.193 35.6239Z" fill="#0075C2"/>
</svg>
