<svg xmlns="http://www.w3.org/2000/svg" viewBox="0 0 829.85 1179"><path fill="#fff" d="M816.01 384.23V74h-137V0h-528v74h-137v310.2H0l71.59 128.36v458.21l143.71 89.81 10.39 6.48 103.15 64.55 4.94 3.02v-.01l71.04 44.38h20.24l333.21-208.21V703.25l-.004-.002v-79.583l.004-.005v-111.1l71.58-128.33z"/><path fill="#231815" d="M185.95 50.31c0 2.28-.3 3.93-.9 4.93-.6 1.03-2.03 1.53-4.29 1.53-3.07 0-6.27-.28-9.59-.81v8.93c.72.16 1.6.37 2.65.59 1.04.25 1.79.38 2.23.47.45.06 1.08.12 1.89.22.82.06 1.76.12 2.82.12 5.43 0 9.47-1.22 12.14-3.59 2.67-2.4 4-5.65 4-9.8V21.25h-10.95zM227 53.21c0 1.44-.56 2.53-1.69 3.22-1.14.69-2.58 1.03-4.33 1.03s-3.18-.34-4.28-1.03c-1.12-.69-1.66-1.78-1.66-3.22V21.28h-11.07v31.74c0 3.72 1.39 6.9 4.18 9.49 2.8 2.59 7.08 3.9 12.84 3.9s10.05-1.31 12.88-3.9c2.82-2.59 4.22-5.77 4.22-9.49V21.28h-11.07v31.93zM308.51 56.89c-2.09.25-4.07.37-5.96.37q-6.33 0-6.33-6.27v-15.2c0-1.94.46-3.43 1.41-4.46.94-1.06 2.58-1.56 4.92-1.56 2.99 0 7.35.44 13.07 1.41V22.1c-5.13-.94-9.47-1.4-13.07-1.4-5.32 0-9.4 1.22-12.2 3.65-2.79 2.43-4.18 5.74-4.18 9.93v18.44c0 4.12 1.4 7.43 4.22 9.87 2.81 2.43 6.87 3.62 12.16 3.62s10.52-.69 15.37-2.09V43.33h-9.41v13.58zM268.87 45.47l-14.03-24.22h-9.39v44.38h10.24V41.44l14.02 24.19h9.41V21.25h-10.25zM531.01 50.31c0 2.28-.3 3.93-.89 4.93-.61 1.03-2.03 1.53-4.28 1.53-3.09 0-6.28-.28-9.61-.81v8.93c.72.16 1.59.37 2.66.59 1.03.25 1.79.38 2.23.47.45.06 1.08.12 1.89.22.81.06 1.75.12 2.83.12 5.41 0 9.45-1.22 12.12-3.59 2.67-2.4 4-5.65 4-9.8V21.25h-10.95zM649.27 43.31v13.58c-2.1.25-4.08.37-5.96.37q-6.33 0-6.33-6.27v-15.2c0-1.97.46-3.43 1.41-4.49.94-1 2.59-1.53 4.92-1.53 2.99 0 7.35.47 13.07 1.37v-9.05c-5.12-.94-9.47-1.4-13.07-1.4-5.32 0-9.39 1.22-12.2 3.65-2.79 2.43-4.18 5.74-4.18 9.93v18.44c0 4.15 1.4 7.43 4.21 9.87 2.83 2.43 6.87 3.65 12.17 3.65s10.51-.72 15.37-2.12V43.32h-9.41zM609.64 45.47 595.6 21.25h-9.4v44.38h10.25V41.44l14.02 24.19h9.41V21.25h-10.24zM557.87 21.28l-13.03 44.35h10.95l1.93-8.14h11.23l1.93 8.14h10.95L568.8 21.28h-10.95zm1.88 27.62 3.57-15.14 3.6 15.14h-7.18zM370.82 21.28h-11.71l-10.63 22.63 11.01 21.72h12.93l-12.35-22.56zM336.18 21.25h10.88v44.39h-10.88zM491.63 45.47l-14.04-24.22h-9.4v44.38h10.25V41.44l14.01 24.19h9.41V21.25h-10.23zM440.69 21.28l-13.02 44.35h10.95l1.93-8.14h11.23l1.93 8.14h10.95l-13.03-44.35h-10.95zm1.9 27.62 3.58-15.14 3.59 15.14zM420.83 21.28l-6.94 30.87-6.95-30.87h-11.58l2.27 7.68-5.21 23.19-6.94-30.87h-11.59l13.08 44.35h10.91l5.27-17.91 5.3 17.91h10.89l13.08-44.35zM214.21 218.77h-46.4V96.88h46.4l16.47 16.45v88.96zm-8.23-99.2h-13.62v76.47h13.62zM159.4 119.57l-4.57-22.69H107.8v121.85h47.03l4.57-22.69h-27.07v-27.62h20.98v-21.23h-20.98v-27.62zM75.76 218.73h24.54l-12.57-44.89 9.18-9.21v-51.28L80.45 96.87H34.04v121.86h24.55v-37.61h6.62zm-17.17-99.16h13.62v40.3H58.59zM454.02 218.77H424.1l-16.48-16.48v-88.96l16.48-16.45h29.92l16.47 16.45v88.96zm-8.23-99.2h-13.61v76.47h13.61zM380.81 218.77h-29.93l-16.45-16.48v-88.96l16.45-16.45h29.93l16.47 16.45v88.96zm-8.24-99.2h-13.62v76.47h13.62zM323.83 113.33l-16.48-16.45h-46.39v121.89h46.39l16.48-16.48v-33.33l-11.16-11.14 11.16-11.15zm-24.73 34.02h-13.62v-27.78h13.62zm-13.61 20.94h13.62v27.75h-13.62zM596.65 96.88h-51.39l-4.57 22.69h17.99v99.16h24.55v-99.16h17.99zM658.26 119.57l-3.05-22.69h-48.55v121.85h48.55l3.05-22.69h-27.07v-27.62h20.99v-21.23h-20.99v-27.62zM709.68 218.73h24.55l-12.58-44.89 9.18-9.21v-51.28l-16.47-16.48h-46.39v121.86h24.54v-37.61h6.62zm-17.17-99.16h13.62v40.3h-13.62zM535.7 119.57l-4.57-22.69h-33.88l-16.48 16.48v43.04l11.91 11.89h18.31v27.75h-30.22l4.58 22.69h33.88l16.47-16.48v-43.01l-11.91-11.92h-18.31v-27.75zM795.79 119.57l-4.57-22.69h-33.87l-16.48 16.48v43.04l11.9 11.89h18.32v27.75h-30.22l4.57 22.69h33.88l16.47-16.48v-43.01l-11.9-11.92h-18.32v-27.75z"/><path fill="#d70029" d="M34.05 253.44v95.23h284.57c10.68-43.29 49.72-75.38 96.29-75.38s85.62 32.09 96.3 75.38h284.58v-95.23zM396.59 469.94c-35.48-6.65-64.29-32.15-75.63-65.74H34.05l57.53 103.16v452.31l119.01 74.38V773.88l79.35 37.02v272.74l119.03 74.35V745.41l-63.47-29.62 51.08-245.87zm-149.2 200.11-36.79-17.13V507.37h70.59L247.4 670.05z"/><path fill="#d70029" d="M355.12 435.04c-13.04-12.49-22.17-28.94-25.44-47.44 6-37.27 30.66-66.2 62.31-75.75.27 2.34-.43 5.06-2.22 8.24-2.05 3.65-5.5 8.24-9.49 13.52-16.52 21.94-42.88 56.96-25.16 101.44m31.56-130.39c-5.32-3.37-13.22-5-17.72-5.53-20.59 12.95-35.33 34.27-39.45 59.21 11.51-25.81 32.21-45.23 57.17-53.69m10.54 19.58c-2.33 4.21-5.94 8.99-10.13 14.51-18.27 24.28-45.81 60.83-16.36 108.15 11.79 7.02 25.38 11.3 39.92 12.02V308.65c-3.49.19-6.92.56-10.29 1.19.78 4.4-.22 9.21-3.13 14.39m40.62-12.39c-.25 2.34.45 5.06 2.24 8.24 2.04 3.65 5.5 8.24 9.5 13.52 16.52 21.94 42.88 56.96 25.15 101.44 13.04-12.49 22.17-28.94 25.44-47.44-5.99-37.27-30.67-66.2-62.33-75.75m-5.22 12.38c-2.91-5.18-3.94-9.99-3.13-14.39-3.37-.62-6.81-1-10.29-1.19v150.26c14.54-.72 28.13-5 39.92-12.02 29.44-47.32 1.9-83.87-16.38-108.15-4.16-5.53-7.78-10.3-10.11-14.51m-36.15-22.31c4.62-1 9.35-1.56 14.17-1.81v-14.08c-10.57.53-20.66 2.84-29.9 6.84 5.61 1.66 11.78 4.47 15.74 9.05m103.84 56.43c-4.12-24.94-18.86-46.26-39.44-59.21-4.51.53-12.41 2.15-17.74 5.53 24.98 8.46 45.68 27.87 57.18 53.69m-51.24-65.49c-9.26-3.99-19.34-6.3-29.9-6.84v14.08c4.81.25 9.54.81 14.16 1.81 3.97-4.59 10.12-7.4 15.74-9.05"/><path fill="#231815" d="M508.89 404.23c-12.64 37.4-46.95 64.8-88.03 67.24v217.52l63.46 29.59-63.46 439.45L738.27 959.7V715.98l-59.52-27.75 59.52-71.79V507.35l57.52-103.13h-286.9zm110.35 487-79.34 49.6v-196.3l79.34 36.99v109.72zm0-230.74-79.34-36.98V507.36h79.34z"/></svg>