<svg xmlns="http://www.w3.org/2000/svg" width="240mm" height="154.06061mm" viewBox="0 0 239.99999 154.0606"><defs><linearGradient id="b" x1="0" x2="1" y1="0" y2="0" gradientTransform="matrix(0 35.33063 35.33063 0 169.803 273.367)" gradientUnits="userSpaceOnUse" spreadMethod="pad"><stop offset="0" style="stop-opacity:1;stop-color:#007cc5"/><stop offset="0.994624" style="stop-opacity:1;stop-color:#bfe5fb"/><stop offset="1" style="stop-opacity:1;stop-color:#bfe5fb"/></linearGradient><linearGradient id="c" x1="0" x2="1" y1="0" y2="0" gradientTransform="matrix(0 35.33376 35.33376 0 261.833 273.366)" gradientUnits="userSpaceOnUse" spreadMethod="pad"><stop offset="0" style="stop-opacity:1;stop-color:#007cc5"/><stop offset="0.994624" style="stop-opacity:1;stop-color:#bfe5fb"/><stop offset="1" style="stop-opacity:1;stop-color:#bfe5fb"/></linearGradient><linearGradient id="d" x1="0" x2="1" y1="0" y2="0" gradientTransform="matrix(22.26457 0 0 -22.26457 197.315 367.123)" gradientUnits="userSpaceOnUse" spreadMethod="pad"><stop offset="0" style="stop-opacity:1;stop-color:#45c1f1"/><stop offset="0.64486922" style="stop-opacity:1;stop-color:#dbeff7"/><stop offset="0.99996" style="stop-opacity:1;stop-color:#dbeff7"/><stop offset="1" style="stop-opacity:1;stop-color:#dbeff7"/></linearGradient><clipPath id="a" clipPathUnits="userSpaceOnUse"><path d="M0 595.276h841.89V0H0Z"/></clipPath><clipPath id="e" clipPathUnits="userSpaceOnUse"><path d="M0 595.276h841.89V0H0Z"/></clipPath><radialGradient id="f" cx="0" cy="0" r="1" fx="0" fy="0" gradientTransform="scale(35.4813 -35.4813) rotate(-18.547 -24.255 -23.68)" gradientUnits="userSpaceOnUse" spreadMethod="pad"><stop offset="0" style="stop-opacity:1;stop-color:#ffed67"/><stop offset="0.29697" style="stop-opacity:1;stop-color:#f7a616"/><stop offset="0.42375541" style="stop-opacity:1;stop-color:#f7a616"/><stop offset="0.842424" style="stop-opacity:1;stop-color:#d04e16"/><stop offset="0.88068403" style="stop-opacity:1;stop-color:#d04e16"/><stop offset="0.987879" style="stop-opacity:1;stop-color:#fac582"/><stop offset="1" style="stop-opacity:1;stop-color:#fac582"/></radialGradient></defs><g style="stroke-width:.4206"><g style="stroke-width:.4206"><g style="stroke-width:.4206"><path d="m0 0-24.559-10.773 29.183.115-26.209-9.122 8.601-.029-36.172-15.639 8.92 35.127z" style="fill:#fff;fill-opacity:1;fill-rule:nonzero;stroke:none;stroke-width:.4206" transform="matrix(.86848 0 0 -.86848 233.497 34.032)"/></g><g clip-path="url(#a)" style="stroke-width:.4206" transform="matrix(.86848 0 0 -.86848 -66.13 339.588)"><g style="stroke-width:.4206"><path d="M0 0v24.552c-10.299 3.019-35.086 9.446-59.256 9.446h-.24c-23.412 0-47.756-6.076-59.502-9.462V5.605l-.413-5.157h-12.848v33.603l4.606 1.444c8.604 2.688 38.939 11.46 68.157 11.46h.24c29.225 0 59.556-8.772 68.156-11.46l4.609-1.444V0Z" style="fill:#fff;fill-opacity:1;fill-rule:nonzero;stroke:none;stroke-width:.4206" transform="translate(273.5 344.059)"/></g><g style="stroke-width:.4206"><path d="M0 0c13.214-12.735 30.717-24.595 52.037-35.264 20.849 9.86 38.471 21.845 52.404 35.651 7.213 7.15 11.592 17.042 12.245 27.476v19.211H-12.707V27.863C-12.026 17.24-7.482 7.208 0 0" style="fill:#1c0c43;fill-opacity:1;fill-rule:nonzero;stroke:none;stroke-width:.4206" transform="translate(162.309 251.435)"/></g><g style="stroke-width:.4206"><path d="M0 0c.667-10.136 4.929-19.471 12.006-26.288C24.84-38.656 41.817-50.214 62.479-60.65c20.175 9.656 37.249 21.337 50.765 34.728 6.818 6.76 10.923 15.964 11.565 25.921v16.846H0Zm62.422-65.75-.996.499C39.896-54.478 22.199-42.479 8.824-29.589.904-21.962-3.855-11.53-4.581-.22l-.004.145v21.504h133.978l-.005-21.646c-.697-11.108-5.284-21.392-12.918-28.961-14.108-13.983-31.953-26.127-53.039-36.095Z" style="fill:#c7c7c6;fill-opacity:1;fill-rule:nonzero;stroke:none;stroke-width:.4206" transform="translate(151.894 279.373)"/></g><g style="stroke-width:.4206"><path d="M0 0h-.24c-28.089 0-57.114-8.33-66.129-11.149v-72.86H66.134v72.86C57.117-8.33 28.092 0 0 0" style="fill:#fff;fill-opacity:1;fill-rule:nonzero;stroke:none;stroke-width:.4206" transform="translate(214.244 384.532)"/></g><g style="stroke-width:.4206"><path d="M0 0c-16.575 0-30.062 13.484-30.062 30.06 0 16.577 13.487 30.065 30.062 30.065 16.579 0 30.064-13.488 30.064-30.065C30.064 13.484 16.579 0 0 0" style="fill:#fff;fill-opacity:1;fill-rule:nonzero;stroke:none;stroke-width:.4206" transform="translate(218.158 274.56)"/></g><g style="stroke-width:.4206"><path d="M0 0h-55.141l-14.674 53.334-7.384 23.58h35.271l3.793-14.57h54.449z" style="fill:#fff;fill-opacity:1;fill-rule:nonzero;stroke:none;stroke-width:.4206" transform="translate(196.536 274.594)"/></g><g style="stroke-width:.4206"><path d="m0 0-5.414-22.13-4.544 7.561h-31.583v-62.345h55.074l14.14 53.474L34.517 0h-4.655z" style="fill:#fff;fill-opacity:1;fill-rule:nonzero;stroke:none;stroke-width:.4206" transform="translate(272.47 351.507)"/></g><g style="stroke-width:.4206"><path d="m0 0-14.398 52.34-5.228 18.413H8.482l3.794-14.567h52.839L50.416 0Z" style="fill:#1c0c43;fill-opacity:1;fill-rule:nonzero;stroke:none;stroke-width:.4206" transform="translate(143.743 277.673)"/></g><g style="stroke-width:.4206"><path d="m0 0-2.17 3.911V0h-27.221v56.186h26.759l7.499-12.485 6.617 27.052h28.625l-5.993-18.226L20.228 0Z" style="fill:#1c0c43;fill-opacity:1;fill-rule:nonzero;stroke:none;stroke-width:.4206" transform="translate(263.055 277.673)"/></g><g style="stroke-width:.4206"><path d="M0 0v21.727c10.157 3.066 37.365 10.458 63.452 10.458h.24c26.088 0 53.299-7.392 63.206-10.458V-1.812h5.608v27.198l-1.836.576c-8.464 2.645-38.304 11.28-66.978 11.28h-.24c-28.671 0-58.512-8.635-66.975-11.28l-1.837-.576V-1.365h5.251z" style="fill:#1c0c43;fill-opacity:1;fill-rule:nonzero;stroke:none;stroke-width:.4206" transform="translate(150.552 349.822)"/></g><g style="stroke-width:.4206"><path d="M0 0c-15.62 0-28.328 12.707-28.328 28.327C-28.328 43.949-15.62 56.66 0 56.66c15.622 0 28.331-12.711 28.331-28.333C28.331 12.707 15.622 0 0 0" style="fill:#1c0c43;fill-opacity:1;fill-rule:nonzero;stroke:none;stroke-width:.4206" transform="translate(218.073 277.646)"/></g><g style="stroke-width:.4206"><path d="m0 0-4.264-16.327L-7.745 0h-16.608l-3.52-16.36-8.055 30.928h-19.878l3.427-11.066 14.193-51.578h19.207l2.888 13.051 2.858-13.051h19.24L18.586 0Z" style="fill:#0057a5;fill-opacity:1;fill-rule:nonzero;stroke:none;stroke-width:.4206" transform="translate(185.02 329.805)"/></g><g style="stroke-width:.4206"><path d="m0 0-8.2-33.532-11.393 18.964h-20.409v-48.076h19.112v15.519l8.611-15.519H2.442l13.695 51.798L19.536 0Z" style="fill:#0057a5;fill-opacity:1;fill-rule:nonzero;stroke:none;stroke-width:.4206" transform="translate(277.72 344.373)"/></g><g style="stroke-width:.4206"><path d="M0 0h13.771l10.508-40.373h.107l5.555 25.805h11.904l5.503-25.805h.105l6.738 25.805h12.573L55.706-56.829H41.051l-5.132 23.437h-.106L30.63-56.829H15.975L1.976-5.945Z" style="fill:#fff;fill-opacity:1;fill-rule:nonzero;stroke:none;stroke-width:.4206" transform="translate(133.075 341.464)"/></g><g style="stroke-width:.4206"><path d="M0 0h15.857l14.08-23.437h.148l9.295 38.005h13.312L50.816 8.87 37.297-42.261H26.528L13.392-18.586h-.097v-23.675H0Z" style="fill:#fff;fill-opacity:1;fill-rule:nonzero;stroke:none;stroke-width:.4206" transform="translate(240.625 326.897)"/></g><g style="stroke-width:.4206"><path d="M0 0h-4.449L-6.05 9.724h-.043L-7.652 0h-4.469l-4.034 15.958h4.491l1.808-9.856h.042l1.789 9.856h4.032l1.745-9.992h.043l1.851 9.992h4.511z" style="fill:#2a3087;fill-opacity:1;fill-rule:nonzero;stroke:none;stroke-width:.4206" transform="translate(193.065 337.108)"/></g><g style="stroke-width:.4206"><path d="M0 0c0-.898.1-1.626.3-2.19.202-.568.448-1.013.742-1.333.289-.319.608-.544.957-.672a2.85 2.85 0 0 1 .954-.186c.291 0 .61.063.958.186.345.128.664.353.954.672.291.32.538.765.738 1.333.202.564.302 1.292.302 2.19 0 .895-.1 1.623-.302 2.19-.2.568-.447 1.008-.738 1.33-.29.32-.609.542-.954.672-.348.124-.667.19-.958.19-.291 0-.612-.066-.954-.19a2.431 2.431 0 0 1-.957-.672C.748 3.198.502 2.758.3 2.19.1 1.623 0 .895 0 0m-4.572 0c0 1.222.179 2.34.539 3.364.362 1.019.87 1.9 1.529 2.636a6.9 6.9 0 0 0 2.38 1.732c.927.418 1.953.625 3.077.625 1.122 0 2.147-.207 3.078-.625A6.953 6.953 0 0 0 8.41 6c.659-.736 1.166-1.617 1.528-2.636.361-1.024.542-2.142.542-3.364 0-1.225-.181-2.345-.542-3.366-.362-1.021-.869-1.898-1.528-2.638a7.008 7.008 0 0 0-2.379-1.733C5.1-8.152 4.075-8.36 2.953-8.36c-1.124 0-2.15.208-3.077.623a6.954 6.954 0 0 0-2.38 1.733c-.659.74-1.167 1.617-1.529 2.638-.36 1.021-.539 2.141-.539 3.366" style="fill:#2a3087;fill-opacity:1;fill-rule:nonzero;stroke:none;stroke-width:.4206" transform="translate(202.399 345.088)"/></g><g style="stroke-width:.4206"><path d="M0 0c0-.898.1-1.626.302-2.19.2-.568.447-1.013.737-1.333.293-.319.61-.544.957-.672.345-.123.664-.186.955-.186.293 0 .611.063.957.186.345.128.664.353.957.672.29.32.536.765.739 1.333.198.564.301 1.292.301 2.19 0 .895-.103 1.623-.301 2.19-.203.568-.449 1.008-.739 1.33a2.49 2.49 0 0 1-.957.672c-.346.124-.664.19-.957.19-.291 0-.61-.066-.955-.19a2.475 2.475 0 0 1-.957-.672c-.29-.322-.537-.762-.737-1.33C.1 1.623 0 .895 0 0m-4.574 0c0 1.222.179 2.34.54 3.364.36 1.019.869 1.9 1.528 2.636A6.926 6.926 0 0 0-.124 7.732c.928.418 1.954.625 3.075.625 1.123 0 2.148-.207 3.077-.625A6.932 6.932 0 0 0 8.409 6c.658-.736 1.167-1.617 1.528-2.636.361-1.024.541-2.142.541-3.364 0-1.225-.18-2.345-.541-3.366-.361-1.021-.87-1.898-1.528-2.638a6.987 6.987 0 0 0-2.381-1.733c-.929-.415-1.954-.623-3.077-.623-1.121 0-2.147.208-3.075.623a6.981 6.981 0 0 0-2.382 1.733c-.659.74-1.168 1.617-1.528 2.638-.361 1.021-.54 2.141-.54 3.366" style="fill:#2a3087;fill-opacity:1;fill-rule:nonzero;stroke:none;stroke-width:.4206" transform="translate(218.949 345.088)"/></g><g style="stroke-width:.4206"><path d="M0 0h2.391c.209 0 .432.015.675.046.242.029.462.098.658.209.191.116.355.273.487.484.132.205.197.49.197.847 0 .509-.16.9-.478 1.174-.32.278-.916.415-1.789.415H0Zm-4.573 6.973h8.71c.653 0 1.267-.096 1.851-.288a4.582 4.582 0 0 0 1.538-.863 4.115 4.115 0 0 0 1.06-1.42c.265-.564.395-1.227.395-1.987 0-.42-.044-.832-.135-1.241A4.651 4.651 0 0 0 8.44.021a3.695 3.695 0 0 0-.696-.961 2.84 2.84 0 0 0-.989-.648c.627-.251 1.125-.73 1.499-1.431.375-.7.604-1.547.687-2.548.014-.193.026-.448.04-.761.013-.311.04-.636.073-.971.035-.334.08-.659.135-.962.056-.304.138-.548.25-.724H4.866a9.08 9.08 0 0 0-.251 1.216c-.055.41-.096.824-.124 1.241-.027.372-.066.743-.114 1.117a3.373 3.373 0 0 1-.282 1.006 1.737 1.737 0 0 1-.592.717c-.256.178-.613.27-1.069.27H0v-5.567h-4.573z" style="fill:#2a3087;fill-opacity:1;fill-rule:nonzero;stroke:none;stroke-width:.4206" transform="translate(235.935 346.093)"/></g><path d="M246.766 353.066h4.574v-15.958h-4.574z" style="fill:#2a3087;fill-opacity:1;fill-rule:nonzero;stroke:none;stroke-width:.4206"/></g><g style="stroke-width:.4206"><path d="m184.129 310.965-2.804-10.743h-1.736l-2.139 10.028a253.037 253.037 0 0 1-7.615-1.033l5.122-23.386h13.029l6.783 25.924a271.482 271.482 0 0 1-10.64-.79m-24.27-3.473-1.564-7.27h-1.736l-1.626 6.244c-3.472-.759-6.86-1.59-10.095-2.474l4.996-18.161h13.043l5.109 23.099a223.652 223.652 0 0 1-8.127-1.438" style="fill:url(#b);stroke:none;stroke-width:.4206" transform="matrix(.86848 0 0 -.86848 -66.13 339.588)"/></g><g style="stroke-width:.4206"><path d="M241.656 285.831h11.233v23.673h1.737l13.135-23.673h9.369l4.879 18.454c-3.103.83-6.294 1.601-9.513 2.301l-.977-3.994h-1.541l-3.081 5.131c-8.09 1.539-16.572 2.692-25.241 3.439z" style="fill:url(#c);stroke:none;stroke-width:.4206" transform="matrix(.86848 0 0 -.86848 -66.13 339.588)"/></g><g style="stroke-width:.4206"><path d="M206.502 376.307c-5.053 0-9.187-4.131-9.187-9.183 0-5.053 4.134-9.186 9.187-9.186h13.077v18.369z" style="fill:url(#d);stroke:none;stroke-width:.4206" transform="matrix(.86848 0 0 -.86848 -66.13 339.588)"/></g><g clip-path="url(#e)" style="stroke-width:.4206" transform="matrix(.86848 0 0 -.86848 -66.13 339.588)"><g style="stroke-width:.4206"><path d="M0 0c0-6.272-5.083-11.354-11.357-11.354-6.268 0-11.353 5.082-11.353 11.354 0 6.271 5.085 11.356 11.353 11.356C-5.083 11.356 0 6.271 0 0" style="fill:#2a3087;fill-opacity:1;fill-rule:nonzero;stroke:none;stroke-width:.4206" transform="translate(230.936 367.123)"/></g><g style="stroke-width:.4206"><path d="M0 0h2.152l.794-6.507h.026L3.919 0h1.998l1.025-6.507h.025L7.735 0h2.076L8.223-9.146H5.84l-.934 6.495H4.88l-.884-6.495H1.614Z" style="fill:#fff;fill-opacity:1;fill-rule:nonzero;stroke:none;stroke-width:.4206" transform="translate(174.384 268.343)"/></g><g style="stroke-width:.4206"><path d="M0 0c0-.631.01-1.159.032-1.581.021-.423.066-.763.134-1.019.068-.255.167-.44.295-.55.128-.112.298-.166.513-.166.213 0 .385.054.518.166.132.11.235.295.307.55.073.256.12.596.141 1.019.022.422.033.95.033 1.581 0 .623-.011 1.148-.033 1.576-.021.427-.068.768-.141 1.025-.072.255-.175.439-.307.549a.775.775 0 0 1-.518.167c-.215 0-.385-.055-.513-.167-.128-.11-.227-.294-.295-.549a5.13 5.13 0 0 1-.134-1.025A31.644 31.644 0 0 1 0 0m4.201 0c0-.631-.026-1.236-.077-1.812-.051-.577-.182-1.083-.391-1.518a2.387 2.387 0 0 0-.96-1.037c-.432-.256-1.027-.385-1.787-.385-.709 0-1.274.112-1.697.334a2.304 2.304 0 0 0-.974.954c-.225.414-.373.913-.441 1.498S-2.229-.726-2.229 0c0 .727.035 1.382.103 1.966.068.585.216 1.085.441 1.498.227.415.551.732.974.955.423.223.988.333 1.697.333.76 0 1.355-.129 1.787-.385.431-.256.751-.601.96-1.037.209-.435.34-.941.391-1.518.051-.576.077-1.18.077-1.812" style="fill:#fff;fill-opacity:1;fill-rule:nonzero;stroke:none;stroke-width:.4206" transform="translate(186.961 263.77)"/></g><g style="stroke-width:.4206"><path d="M0 0h3.151l1.126-6.008h.026L5.393 0h3.111v-9.146H6.506v7.122h-.025L5.084-9.146H3.419L1.946-2.024h-.025v-7.122H0Z" style="fill:#fff;fill-opacity:1;fill-rule:nonzero;stroke:none;stroke-width:.4206" transform="translate(192.353 268.343)"/></g><g style="stroke-width:.4206"><path d="M0 0h5.29v-1.743H2.152v-1.831h2.945v-1.741H2.152v-2.088H5.43v-1.743H0Z" style="fill:#fff;fill-opacity:1;fill-rule:nonzero;stroke:none;stroke-width:.4206" transform="translate(202.253 268.343)"/></g><g style="stroke-width:.4206"><path d="M0 0h2.472l1.767-5.943h.027V0h1.997v-9.146H3.83L1.947-2.845h-.026v-6.301H0Z" style="fill:#fff;fill-opacity:1;fill-rule:nonzero;stroke:none;stroke-width:.4206" transform="translate(208.657 268.343)"/></g><g style="stroke-width:.4206"><path d="M0 0c0-.325-.024-.634-.07-.928a2.203 2.203 0 0 0-.283-.795 1.634 1.634 0 0 0-.601-.576c-.261-.149-.609-.237-1.045-.263v.987c.291 0 .496.098.616.298.118.198.179.517.179.957h-.795v2.229H0Z" style="fill:#fff;fill-opacity:1;fill-rule:nonzero;stroke:none;stroke-width:.4206" transform="translate(218.25 266.434)"/></g><g style="stroke-width:.4206"><path d="M0 0v-.32c0-.35.062-.64.186-.871.123-.23.373-.345.749-.345.188 0 .344.031.467.096a.853.853 0 0 1 .461.601c.03.132.045.263.045.391 0 .324-.096.579-.288.762a2.451 2.451 0 0 1-.73.467c-.294.128-.61.252-.948.372a3.83 3.83 0 0 0-.947.493 2.475 2.475 0 0 0-.73.827c-.193.34-.288.797-.288 1.37 0 .366.051.712.153 1.037.102.324.274.608.513.851.238.245.548.438.928.583.38.146.848.218 1.403.218.538 0 .992-.064 1.363-.192.372-.128.673-.306.903-.531.231-.227.397-.492.5-.794.103-.304.154-.63.154-.98v-.218H1.818c0 .444-.059.764-.179.96-.127.214-.345.321-.653.321-.572 0-.858-.329-.858-.987 0-.324.097-.576.289-.755.191-.179.435-.333.729-.461.295-.128.611-.254.949-.377a4.42 4.42 0 0 0 .947-.488c.295-.2.538-.465.73-.794.192-.329.288-.761.288-1.299 0-.522-.071-.965-.211-1.333a2.242 2.242 0 0 0-.615-.903 2.501 2.501 0 0 0-.98-.513 4.97 4.97 0 0 0-1.319-.16c-.393 0-.771.034-1.133.103a2.643 2.643 0 0 0-.961.372c-.278.18-.5.423-.666.729-.166.309-.25.701-.25 1.179V0Z" style="fill:#fff;fill-opacity:1;fill-rule:nonzero;stroke:none;stroke-width:.4206" transform="translate(221.362 261.99)"/></g><g style="stroke-width:.4206"><path d="M0 0h.589c.213 0 .389.031.526.096a.882.882 0 0 1 .326.25c.08.102.136.223.166.364.03.142.045.288.045.442 0 .18-.017.344-.051.494a1.038 1.038 0 0 1-.173.389.823.823 0 0 1-.339.263 1.338 1.338 0 0 1-.538.096H0Zm-2.152 3.983h3.33c.564 0 1.023-.091 1.378-.275a2.31 2.31 0 0 0 .825-.686c.197-.274.329-.575.397-.903.069-.328.103-.634.103-.916 0-.41-.051-.785-.154-1.127a2.157 2.157 0 0 0-.506-.884 2.342 2.342 0 0 0-.909-.576c-.372-.137-.826-.205-1.364-.205H0v-3.573h-2.152z" style="fill:#fff;fill-opacity:1;fill-rule:nonzero;stroke:none;stroke-width:.4206" transform="translate(231.94 264.36)"/></g><g style="stroke-width:.4206"><path d="M0 0h.667c.212 0 .392.036.537.108a.901.901 0 0 1 .34.282c.081.116.138.244.172.384.034.141.051.28.051.416 0 .342-.079.62-.237.833-.157.213-.45.321-.877.321H0Zm-2.152 3.855H1.46c.461 0 .847-.067 1.159-.199.312-.133.564-.307.756-.525.192-.218.331-.469.417-.755.084-.286.127-.588.127-.903 0-.667-.127-1.174-.384-1.525-.256-.35-.64-.584-1.153-.704v-.025c.342-.052.611-.141.807-.27a1.2 1.2 0 0 0 .436-.486c.094-.196.153-.422.179-.679.026-.257.043-.538.05-.846.01-.452.022-.811.04-1.075a4.55 4.55 0 0 1 .07-.609c.03-.141.068-.239.115-.294a.492.492 0 0 1 .186-.135v-.115H1.946c-.084.154-.145.372-.179.653-.034.283-.051.684-.051 1.203 0 .394-.015.716-.045.968a1.91 1.91 0 0 1-.147.589.562.562 0 0 1-.275.288 1.042 1.042 0 0 1-.429.077H0V-5.29h-2.152z" style="fill:#fff;fill-opacity:1;fill-rule:nonzero;stroke:none;stroke-width:.4206" transform="translate(239.061 264.488)"/></g><g style="stroke-width:.4206"><path d="M0 0c0-.631.01-1.159.032-1.581.022-.423.066-.763.134-1.019.068-.255.167-.44.295-.55.128-.112.299-.166.513-.166.213 0 .385.054.519.166.132.11.234.295.307.55.072.256.119.596.14 1.019.022.422.033.95.033 1.581 0 .623-.011 1.148-.033 1.576a4.799 4.799 0 0 1-.14 1.025c-.073.255-.175.439-.307.549a.78.78 0 0 1-.519.167c-.214 0-.385-.055-.513-.167-.128-.11-.227-.294-.295-.549a5.205 5.205 0 0 1-.134-1.025A31.644 31.644 0 0 1 0 0m4.201 0c0-.631-.026-1.236-.077-1.812-.051-.577-.182-1.083-.391-1.518a2.387 2.387 0 0 0-.96-1.037c-.432-.256-1.026-.385-1.787-.385-.709 0-1.274.112-1.697.334a2.302 2.302 0 0 0-.973.954c-.226.414-.374.913-.441 1.498-.069.585-.103 1.24-.103 1.966 0 .727.034 1.382.103 1.966.067.585.215 1.085.441 1.498.226.415.551.732.973.955.423.223.988.333 1.697.333.761 0 1.355-.129 1.787-.385.431-.256.751-.601.96-1.037.209-.435.34-.941.391-1.518.051-.576.077-1.18.077-1.812" style="fill:#fff;fill-opacity:1;fill-rule:nonzero;stroke:none;stroke-width:.4206" transform="translate(246.285 263.77)"/></g><g style="stroke-width:.4206"><path d="M0 0h.653c.435 0 .738.117.909.353.171.235.256.514.256.838 0 .461-.104.789-.313.987-.21.196-.48.295-.814.295H0Zm0 3.906h.589c.384 0 .656.099.813.295.159.196.237.457.237.781 0 .112-.017.226-.051.346a.843.843 0 0 1-.493.551c-.133.059-.297.09-.493.09H0Zm-2.152 3.651h3.343c.786 0 1.415-.186 1.889-.557.474-.372.711-.938.711-1.698 0-.537-.131-.994-.391-1.369a1.608 1.608 0 0 0-1.044-.693v-.024a3.5 3.5 0 0 0 .551-.136c.197-.063.38-.177.551-.339.171-.162.312-.384.423-.666.111-.281.166-.658.166-1.127 0-.273-.039-.557-.115-.851a2.04 2.04 0 0 0-.442-.82c-.218-.252-.524-.46-.915-.621-.394-.163-.91-.244-1.55-.244h-3.177z" style="fill:#fff;fill-opacity:1;fill-rule:nonzero;stroke:none;stroke-width:.4206" transform="translate(183.087 247.527)"/></g><g style="stroke-width:.4206"><path d="M0 0h-.026l-.755-4.072H.781zm-1.307 1.665h2.69l2.28-9.144H1.434l-.333 1.742h-2.19l-.32-1.742h-2.229z" style="fill:#fff;fill-opacity:1;fill-rule:nonzero;stroke:none;stroke-width:.4206" transform="translate(191.283 253.418)"/></g><g style="stroke-width:.4206"><path d="M0 0v-.32c0-.35.062-.64.186-.871.123-.23.373-.346.75-.346.187 0 .343.032.466.097a.852.852 0 0 1 .462.601c.029.132.044.263.044.391 0 .324-.096.579-.287.762A2.47 2.47 0 0 1 .89.781c-.294.129-.61.252-.948.372a3.848 3.848 0 0 0-.947.493 2.496 2.496 0 0 0-.73.827c-.192.34-.288.798-.288 1.37 0 .366.051.712.153 1.036.103.324.274.609.513.852.238.244.548.437.928.583.38.145.847.218 1.403.218.537 0 .993-.064 1.363-.192.371-.128.673-.306.904-.531.23-.227.396-.492.499-.794.103-.304.154-.631.154-.981v-.218H1.819c0 .445-.06.765-.18.961-.128.213-.345.321-.653.321-.572 0-.858-.329-.858-.986 0-.325.096-.577.289-.757.191-.178.435-.333.73-.46.294-.128.61-.254.947-.378.338-.123.653-.287.948-.487.295-.201.538-.465.73-.794.192-.329.288-.761.288-1.299 0-.522-.07-.965-.211-1.333a2.248 2.248 0 0 0-.615-.903 2.48 2.48 0 0 0-.98-.512 4.926 4.926 0 0 0-1.318-.16c-.394 0-.772.034-1.134.103a2.642 2.642 0 0 0-.961.371c-.277.179-.5.423-.666.73-.166.307-.249.7-.249 1.178V0Z" style="fill:#fff;fill-opacity:1;fill-rule:nonzero;stroke:none;stroke-width:.4206" transform="translate(197.418 248.73)"/></g><g style="stroke-width:.4206"><path d="M0 0h2.152v-3.611h.026L4.188 0h2.319L4.112-3.944l2.689-5.201H4.38L2.728-5.699l-.576-.884v-2.562H0Z" style="fill:#fff;fill-opacity:1;fill-rule:nonzero;stroke:none;stroke-width:.4206" transform="translate(202.515 255.083)"/></g><g style="stroke-width:.4206"><path d="M0 0h5.29v-1.741H2.152v-1.832h2.946v-1.741H2.152v-2.088h3.279v-1.743H0Z" style="fill:#fff;fill-opacity:1;fill-rule:nonzero;stroke:none;stroke-width:.4206" transform="translate(209.866 255.083)"/></g><g style="stroke-width:.4206"><path d="M0 0h-1.922v1.741h5.995V0H2.151v-7.403H0Z" style="fill:#fff;fill-opacity:1;fill-rule:nonzero;stroke:none;stroke-width:.4206" transform="translate(217.602 253.342)"/></g><g style="stroke-width:.4206"><path d="M0 0h.653c.435 0 .739.117.91.353.17.235.256.514.256.838 0 .461-.105.789-.314.987-.209.196-.48.295-.814.295H0Zm0 3.906h.589c.385 0 .656.099.814.295.158.196.236.457.236.781 0 .112-.017.226-.051.346a.843.843 0 0 1-.493.551c-.133.059-.297.09-.493.09H0Zm-2.152 3.651h3.343c.786 0 1.415-.186 1.89-.557.473-.372.71-.938.71-1.698 0-.537-.13-.994-.391-1.369a1.608 1.608 0 0 0-1.044-.693v-.024c.171-.027.355-.071.551-.136.197-.063.38-.177.551-.339.171-.162.312-.384.423-.666.111-.281.166-.658.166-1.127 0-.273-.038-.557-.115-.851a2.028 2.028 0 0 0-.442-.82c-.218-.252-.523-.46-.915-.621-.394-.163-.909-.244-1.55-.244h-3.177z" style="fill:#fff;fill-opacity:1;fill-rule:nonzero;stroke:none;stroke-width:.4206" transform="translate(224.57 247.527)"/></g><g style="stroke-width:.4206"><path d="M0 0h-.026l-.756-4.072H.78Zm-1.307 1.665h2.689l2.281-9.144H1.434l-.333 1.742H-1.09l-.319-1.742h-2.229z" style="fill:#fff;fill-opacity:1;fill-rule:nonzero;stroke:none;stroke-width:.4206" transform="translate(232.767 253.418)"/></g><g style="stroke-width:.4206"><path d="M0 0h2.152v-7.402h3.112v-1.743H0Z" style="fill:#fff;fill-opacity:1;fill-rule:nonzero;stroke:none;stroke-width:.4206" transform="translate(237.12 255.083)"/></g><g style="stroke-width:.4206"><path d="M0 0h2.152v-7.402h3.112v-1.743H0Z" style="fill:#fff;fill-opacity:1;fill-rule:nonzero;stroke:none;stroke-width:.4206" transform="translate(243.05 255.083)"/></g><g style="stroke-width:.4206"><path d="M0 0c0 .667-.056 1.152-.167 1.461-.11.307-.345.461-.704.461-.213 0-.381-.057-.505-.167-.124-.111-.218-.293-.282-.544A5.02 5.02 0 0 1-1.78.218a37.34 37.34 0 0 1-.026-1.511c0-.684.009-1.245.026-1.685.017-.439.06-.788.129-1.043.067-.256.168-.436.3-.539.132-.102.31-.152.531-.152.196 0 .353.055.468.166.115.11.205.266.269.467.064.2.107.443.128.73.021.286.033.608.033.967h2.074v-.32c0-.495-.044-.952-.128-1.37a2.64 2.64 0 0 0-.481-1.089c-.234-.308-.561-.549-.979-.725-.419-.174-.961-.261-1.626-.261-.692 0-1.235.122-1.628.365-.393.243-.689.58-.89 1.011-.2.431-.326.94-.378 1.524a22.185 22.185 0 0 0-.076 1.915c0 .589.023 1.164.071 1.723a4.38 4.38 0 0 0 .377 1.499c.205.439.521.794.948 1.062.427.27 1.02.403 1.78.403.948 0 1.673-.225 2.177-.678.505-.453.756-1.216.756-2.292V0Z" style="fill:#fff;fill-opacity:1;fill-rule:nonzero;stroke:none;stroke-width:.4206" transform="translate(205.148 238.648)"/></g><g style="stroke-width:.4206"><path d="M0 0h2.152v-7.402h3.112v-1.742H0Z" style="fill:#fff;fill-opacity:1;fill-rule:nonzero;stroke:none;stroke-width:.4206" transform="translate(208.196 241.823)"/></g><g style="stroke-width:.4206"><path d="M0 0c0-.452-.042-.872-.122-1.261A2.503 2.503 0 0 0-.57-2.272c-.218-.287-.524-.512-.916-.679-.393-.167-.901-.25-1.524-.25-.624 0-1.132.083-1.525.25-.392.167-.697.392-.915.679a2.477 2.477 0 0 0-.448 1.011A6.111 6.111 0 0 0-6.02 0v6.122h2.152V-.626c0-.358.07-.64.211-.839.14-.201.356-.301.647-.301.29 0 .505.1.646.301.141.199.212.481.212.839v6.748H0Z" style="fill:#fff;fill-opacity:1;fill-rule:nonzero;stroke:none;stroke-width:.4206" transform="translate(220.03 235.701)"/></g><g style="stroke-width:.4206"><path d="M0 0h.654c.435 0 .738.117.908.353.171.234.257.513.257.838 0 .461-.105.789-.314.986-.209.196-.48.295-.813.295H0Zm0 3.906h.589c.385 0 .656.098.814.295.158.196.237.457.237.781 0 .111-.018.226-.052.346a.818.818 0 0 1-.172.319.925.925 0 0 1-.32.232 1.219 1.219 0 0 1-.494.089H0Zm-2.152 3.65h3.343c.786 0 1.415-.185 1.89-.557.474-.371.711-.937.711-1.696 0-.538-.131-.995-.391-1.371a1.61 1.61 0 0 0-1.045-.692v-.026a3.23 3.23 0 0 0 .551-.134c.197-.064.38-.177.551-.34.171-.162.312-.384.423-.666.111-.281.166-.657.166-1.126a3.37 3.37 0 0 0-.115-.852 2.034 2.034 0 0 0-.442-.82c-.218-.252-.523-.459-.916-.622-.392-.161-.908-.242-1.549-.242h-3.177z" style="fill:#fff;fill-opacity:1;fill-rule:nonzero;stroke:none;stroke-width:.4206" transform="translate(223.398 234.268)"/></g><g style="stroke-width:.4206"><path d="M0 0h34.751L-2.471-14.904" style="fill:#1c0c43;fill-opacity:1;fill-rule:nonzero;stroke:none;stroke-width:.4206" transform="translate(299.11 348.424)"/></g><g style="stroke-width:.4206"><path d="M0 0h37.338L-7.877-15.213" style="fill:#1c0c43;fill-opacity:1;fill-rule:nonzero;stroke:none;stroke-width:.4206" transform="translate(299.457 338.693)"/></g><g style="stroke-width:.4206"><path d="M0 0h27.106L-2.78-12.742" style="fill:#1c0c43;fill-opacity:1;fill-rule:nonzero;stroke:none;stroke-width:.4206" transform="translate(295.711 330.16)"/></g><g style="stroke-width:.4206"><path d="M0 0h22.241L-2.471-9.923" style="fill:#0057a5;fill-opacity:1;fill-rule:nonzero;stroke:none;stroke-width:.4206" transform="translate(295.866 344.37)"/></g><g style="stroke-width:.4206"><path d="M0 0h30.272L-.772-9.344" style="fill:#0057a5;fill-opacity:1;fill-rule:nonzero;stroke:none;stroke-width:.4206" transform="translate(292.931 336.339)"/></g><g style="stroke-width:.4206"><path d="M0 0h20.194L-2.471-9.383" style="fill:#0057a5;fill-opacity:1;fill-rule:nonzero;stroke:none;stroke-width:.4206" transform="translate(291.078 328.152)"/></g><g style="stroke-width:.4206"><path d="M0 0a139.977 139.977 0 0 0-1.026-5.445L14.708.127zm10.142-15.271-12.608-.145c-.835-2.232-.33-4.03-1.202-5.539zM-1.879-7.307c-.503-2.07-.263-4.008-.819-5.798l21.541 5.794z" style="fill:#fff;fill-opacity:1;fill-rule:nonzero;stroke:none;stroke-width:.4206" transform="translate(290.885 341.423)"/></g><g style="stroke-width:.4206"><path d="M0 0c0-13.307-10.787-24.088-24.093-24.088S-48.186-13.307-48.186 0s10.787 24.097 24.093 24.097S0 13.307 0 0" style="fill:#0057a5;fill-opacity:1;fill-rule:nonzero;stroke:none;stroke-width:.4206" transform="translate(242.166 305.973)"/></g></g><g style="stroke-width:.4206"><path d="M203.181 320.905c-8.247-8.225-8.262-21.578-.037-29.823 8.225-8.248 21.576-8.264 29.825-.038 8.244 8.228 8.26 21.576.035 29.825a21.027 21.027 0 0 1-14.931 6.195 21.019 21.019 0 0 1-14.892-6.159" style="fill:url(#f);stroke:none;stroke-width:.4206" transform="matrix(.86848 0 0 -.86848 -66.13 339.588)"/></g></g><g style="stroke-width:.4206"><path d="M0 0c.468.463.959.909 1.471 1.325 1.805-.111 3.393-.74 4.437-1.831a5.01 5.01 0 0 0 1.246-2.276 40.97 40.97 0 0 0 7.051.702l.012 8.171c.216.008.43.015.648.015.218 0 .432-.007.65-.021l-.013-8.165a40.743 40.743 0 0 0 7.052-.722 5.003 5.003 0 0 0 1.252 2.275c1.055 1.088 2.638 1.716 4.443 1.823.509-.423.997-.866 1.467-1.333-2.059.222-3.896-.273-4.977-1.392a3.687 3.687 0 0 1-.906-1.642c3.931-.898 7.538-2.359 10.659-4.262.245-.638.462-1.284.649-1.943-3.252 2.221-7.153 3.918-11.462 4.911.005-.634.109-1.32.316-2.058.448-1.587 1.472-3.5 2.562-5.524C28.733-16.003 31.2-20.605 31-25.578a20.648 20.648 0 0 0-.51-3.71 20.856 20.856 0 0 0-1.974-1.926c.612 1.486 1.104 3.518 1.189 5.688.182 4.616-2.195 9.055-4.292 12.966-1.123 2.088-2.18 4.063-2.664 5.782-.29 1.026-.395 1.921-.369 2.697a40.73 40.73 0 0 1-6.878.706l-.039-32.679c-.218-.009-.433-.019-.65-.019-.221.006-.433.01-.649.019l.04 32.679a39.57 39.57 0 0 1-6.879-.691c.022-.777-.082-1.665-.373-2.69-.49-1.719-1.553-3.691-2.68-5.775-2.107-3.91-4.497-8.339-4.325-12.956.082-2.172.521-3.979 1.135-5.466a20.66 20.66 0 0 0-1.973 1.93 18.539 18.539 0 0 0-.458 3.485c-.188 4.974 2.293 9.569 4.48 13.623 1.092 2.02 2.123 3.93 2.572 5.514a7.69 7.69 0 0 1 .321 2.059C1.71-5.325-2.192-7.01-5.451-9.226c.189.66.408 1.307.657 1.94 3.126 1.895 6.736 3.35 10.668 4.236a3.73 3.73 0 0 1-.901 1.647C3.904-.285 2.061.214 0 0" style="fill:#0057a5;fill-opacity:1;fill-rule:nonzero;stroke:none;stroke-width:.4206" transform="matrix(.86848 0 0 -.86848 110.376 60.843)"/></g></g></svg>