<svg xmlns="http://www.w3.org/2000/svg" viewBox="0 0 229.34 232.13"><defs><style>.cls-1{fill:#008d70}.cls-2{fill:#fff}</style></defs><g id="레이어_2"><g id="레이어_1-2"><path d="M114.69 229.74a112.43 112.43 0 0 1-112.3-112.3v-2.57A112.09 112.09 0 0 1 64.34 17c19.2-9.7 43.78-14.62 73-14.62 15.38 0 44 0 57.32 14C200 21.83 202.4 29 202 37.54c-.65 17.07 4.69 26.53 11.45 38.51 2.43 4.29 4.93 8.73 7.42 13.94a67.3 67.3 0 0 1 6.13 27.45 112.41 112.41 0 0 1-112.26 112.3" class="cls-1"/><path d="M223.08 89.06v-.05c-2.53-5.28-5-9.75-7.49-14.08C209 63.23 203.77 54 204.4 37.61c.42-9.22-2.25-16.94-8-22.92C182.41 0 153.12 0 137.39 0 107.74 0 82.8 5 63.27 14.87A114.48 114.48 0 0 0 0 114.75v2.69a114.67 114.67 0 1 0 229.34 0 69.8 69.8 0 0 0-6.26-28.38M114.69 227.35A109.93 109.93 0 0 1 4.78 117.44v-2.57a110 110 0 0 1 17.4-56.94 111.25 111.25 0 0 1 43.24-38.79c21.81-11 47.76-14.36 72-14.36 22.33 0 63.72.44 62.23 32.65-.91 23.92 9.57 33.64 19.1 53.59a64.6 64.6 0 0 1 5.84 26.42 109.91 109.91 0 0 1-109.9 109.91M220.92 86.72" class="cls-2"/><path d="M152.22 181.68a42.4 42.4 0 0 0 6.58-7.26A40.25 40.25 0 0 0 166 151c0-1.14-.05-2.26-.12-3.36-.48-6.65-3.2-13.26-6.67-19.13a95.3 95.3 0 0 0-10.92-14.64c-2.18-2.46-3.92-4.25-4.89-5.35-.62-.73-1.84-2-3.26-3.55a59 59 0 0 1-4.64-5.75c-3.12-4.48-6-10.23-6-16.87a22.3 22.3 0 0 1 .49-4.53 75 75 0 0 0-12.84-1.51v25.51a2.4 2.4 0 0 1-4.8 0V76.28a75 75 0 0 0-12.85 1.51 23 23 0 0 1 .48 4.53 27.46 27.46 0 0 1-3.77 13.28 52.4 52.4 0 0 1-6.89 9.34c-1.42 1.58-2.64 2.82-3.27 3.55-1 1.1-2.7 2.89-4.89 5.35a109 109 0 0 0-7.27 9c-5 7-9.69 15.86-10.31 24.72-.08 1.09-.12 2.21-.12 3.34a40.25 40.25 0 0 0 7.21 23.47 42.3 42.3 0 0 0 6.57 7.25 68.68 68.68 0 0 0 75 0" class="cls-2"/><path d="M66.11 126a100 100 0 0 1 11.47-15.39c2.24-2.53 4.07-4.42 4.84-5.31s2-2.11 3.33-3.61A55 55 0 0 0 90 96.44c2.83-4 5.17-8.93 5.16-14.12a19 19 0 0 0-.34-3.41A71.6 71.6 0 0 0 64.89 95.6a65 65 0 0 0-18.79 31.87 68.45 68.45 0 0 0 15.67 40.4A46.4 46.4 0 0 1 58.66 151c0-1.25 0-2.48.13-3.69.57-7.71 3.62-14.95 7.32-21.22" class="cls-2"/><path d="M61.6 92.11a76.3 76.3 0 0 1 31.69-17.75 12.74 12.74 0 0 0-5.42-5.83 17.14 17.14 0 0 0-8.24-1.85c-1 0-1.95.07-2.91.16a68.8 68.8 0 0 0-29.41 44A71 71 0 0 1 61.6 92.11M152.75 66.85a28 28 0 0 0-2.9-.17 17.2 17.2 0 0 0-8.25 1.85 12.8 12.8 0 0 0-5.42 5.83 76.2 76.2 0 0 1 31.69 17.75 71.4 71.4 0 0 1 14.3 18.73 68.72 68.72 0 0 0-29.42-44M90.17 64.31A18 18 0 0 1 98 73.2a80 80 0 0 1 14.31-1.72V55.43a68.3 68.3 0 0 0-27.77 6.91 19.5 19.5 0 0 1 5.6 2M144.91 62.34a68.3 68.3 0 0 0-27.77-6.91v16.05a80 80 0 0 1 14.3 1.72 18 18 0 0 1 7.86-8.89 19.6 19.6 0 0 1 5.61-2" class="cls-2"/><path d="M164.58 95.6a71.54 71.54 0 0 0-30-16.69 18.3 18.3 0 0 0-.34 3.41 22.6 22.6 0 0 0 3.16 10.94 48 48 0 0 0 6.27 8.47c1.35 1.5 2.52 2.68 3.33 3.61s2.6 2.79 4.85 5.31a114 114 0 0 1 7.6 9.45c5.28 7.44 10.42 16.88 11.18 27.16.09 1.21.14 2.44.14 3.7a46.7 46.7 0 0 1-3.12 16.92 68.38 68.38 0 0 0 15.67-40.4 64.8 64.8 0 0 0-18.74-31.88" class="cls-2"/><path d="M108.38 123.58a6.36 6.36 0 1 0 12.71 0 3.8 3.8 0 0 0-.33-1.52c-.55-1.16-1.16-1.72-1.11-3.1.09-1.87-2.31-1.89-3.6-1.89a9.3 9.3 0 0 0-4.16.83 6.34 6.34 0 0 0-3.51 5.54z" style="fill:#d70c18"/><path d="M147 131.51c-.46-.7-1.38-.71-3.08-.39a133.6 133.6 0 0 1-21.85 2.39 143 143 0 0 1-17.43-.33c-4.91-.44-14.21-1.94-16.28-2.14-1.12-.12-3.65-.29-5 .79-1.72 1.43-1.23 3.55-.21 5.25a11.87 11.87 0 0 0 7.46 4.69c7.57 1.25 19.28.92 23.14.49a119 119 0 0 0 20.43-3.46s7-2 10.41-3.93c1.29-.72 3.13-2.11 2.36-3.36M121.4 147a14 14 0 0 0-18.66 19.46c3.3 5.17 7.71 3.94 9 2.63a3.46 3.46 0 0 0 .14-4.67A6.76 6.76 0 0 1 110 160a5 5 0 0 1 8.74-3.22c1.3 1.53 1.47 3.75 1.37 5.52a63 63 0 0 1-5.11 20.4c-.19.49-.52 1.7.4 2.2.7.35 1.52 0 2.33-.68a36.9 36.9 0 0 0 7.86-11.22c1.1-2.55 3.83-9.31 2.94-16.06a13.88 13.88 0 0 0-7.13-9.94" class="cls-1"/><path d="m46.5 46.43-3.01 3.18 6.86 6.5-6.93 7.32-6.86-6.51-3.14 3.32L51.1 76.99l3.14-3.31-8.5-8.06 6.93-7.32 8.5 8.06 3.14-3.31L46.63 46.3zM76 50.19l-4.08-6.41a6.25 6.25 0 0 0-5.39-3.19A8.57 8.57 0 0 0 62 42a10.67 10.67 0 0 0-4.31 5l-.05.12 2.47 2.44.1-.29a8.3 8.3 0 0 1 3.19-4.48 3.4 3.4 0 0 1 1.85-.6c1 0 2 .54 3 2l-3.11 2.5a7.47 7.47 0 0 0-3.1 5.73 5.8 5.8 0 0 0 1 3.18 5.45 5.45 0 0 0 4.62 2.71 5.9 5.9 0 0 0 3.16-1 7.67 7.67 0 0 0 3.31-4.76 3.9 3.9 0 0 0 1.49 1.15h.15000000000000002l3.41-2.17-.24-.17A12.1 12.1 0 0 1 76 50.19m-5.85 5.86a2.3 2.3 0 0 1-1.24.36 2.67 2.67 0 0 1-2.23-1.32 2.83 2.83 0 0 1-.46-1.56A4.47 4.47 0 0 1 68 50.25l1.9-1.61.82 1.28a6.35 6.35 0 0 1 1.18 3.28 3.32 3.32 0 0 1-1.79 2.85M85.9 31.27a8.5 8.5 0 0 0-2.8.51 7.07 7.07 0 0 0-4 3.43l-.46-1.28-.06-.18-.18.06-3.83 1.36 6.23 17.55 4-1.43L81.18 41a6.6 6.6 0 0 1-.41-2.2 3.74 3.74 0 0 1 2.44-3.73 3.8 3.8 0 0 1 1.3-.23c1.67 0 3.06 1.25 3.86 3.48l3.68 10.38 4.07-1.44-3.91-11c-1.13-3.21-3.44-5-6.31-5M112.15 40.7l-.85-7.55c-.51-4.52-4-6-7-6a10 10 0 0 0-1.11.06 10.6 10.6 0 0 0-6 2.56l-.1.09 1.14 3.27.22-.22a8.45 8.45 0 0 1 4.83-2.62 4 4 0 0 1 .5 0c1.52 0 2.86.79 3.24 3.48l-3.89.88c-3.78.86-5.89 3.43-5.88 6.35a6 6 0 0 0 0 .7 5.35 5.35 0 0 0 5.47 5 6 6 0 0 0 .74 0 7.56 7.56 0 0 0 5.07-2.8 4.1 4.1 0 0 0 .83 1.67l.06.06h.09l4-.46-.14-.25a12.1 12.1 0 0 1-1.23-4.17m-5.49 1.68a3.75 3.75 0 0 1-2.34 1h-.26a2.52 2.52 0 0 1-2.43-2.4v-.34c0-1.61 1.32-2.88 3.36-3.4l2.41-.61.17 1.51a10 10 0 0 1 .07 1.19 4.23 4.23 0 0 1-1 3M133.61 22.86l-8.05-1.47-4.39 24h.19l7.35 1.34a13.6 13.6 0 0 0 2.46.24c4 0 6.67-2.18 7.3-5.72a6 6 0 0 0 .1-1.08c0-2.52-1.72-4.33-4.06-5.5a6.2 6.2 0 0 0 4.91-5 5.3 5.3 0 0 0 .08-1c0-2.86-2.37-5.18-5.89-5.82m.19 17.54a3.77 3.77 0 0 1-3.93 3.36 5.7 5.7 0 0 1-1.06-.1l-2.57-.47 1.46-8 2.15.39c2.21.41 4 1.62 4 3.91a5 5 0 0 1-.09.9m1-10.95a3.47 3.47 0 0 1-3.61 3.21 6.6 6.6 0 0 1-1.13-.11l-1.85-.34 1.28-7 2.57.47c1.88.36 2.81 1.47 2.82 3a4 4 0 0 1-.08.76M157.22 40.36c0-3.15-2.42-5.26-4.78-6.26a11.2 11.2 0 0 0-4.41-1 11 11 0 0 0-2.11.21h-.13l-.62 3.41.3-.08a10 10 0 0 1 2.8-.42 7 7 0 0 1 2.69.51 3 3 0 0 1 2 2.83 5.5 5.5 0 0 1-.45 2l-3.82-1.15a9.6 9.6 0 0 0-2.7-.42 6.12 6.12 0 0 0-5.87 3.68 6.2 6.2 0 0 0-.51 2.42 5.37 5.37 0 0 0 3.47 5 7.6 7.6 0 0 0 3 .61 7.9 7.9 0 0 0 2.83-.55 5 5 0 0 0-.18 1.22 2.2 2.2 0 0 0 .07.64v.08h.08l3.71 1.59v-.29a11.6 11.6 0 0 1 1-4.24l3-7a7.45 7.45 0 0 0 .64-2.9m-6.36 5.41c-1.1 2.55-2.39 3.35-3.7 3.35a4.3 4.3 0 0 1-1.7-.39 2.36 2.36 0 0 1-1.47-2.1 3 3 0 0 1 .26-1.19 3.16 3.16 0 0 1 3.14-1.85 6.3 6.3 0 0 1 1.61.23l2.4.66ZM175.94 51.19a6.75 6.75 0 0 0-3.11-5.48 7 7 0 0 0-4.26-1.45 8 8 0 0 0-.84.07l.91-1.25-.16-.11-3.29-2.39-10.94 15.07 3.47 2.52 6.4-8.82a5.05 5.05 0 0 1 3.95-2.35 3.5 3.5 0 0 1 2.09.69 3.33 3.33 0 0 1 1.49 2.8 5.75 5.75 0 0 1-1.25 3.29l-6.47 8.92 3.49 2.54 6.87-9.47a7.8 7.8 0 0 0 1.65-4.56M190.06 62.55l-9.08-.14 10.15-8.9-2.83-3.23-19.08 16.75.13.14 2.7 3.08 6.57-5.77-2.16 10.8 3.28 3.73 2.66-13.1 10.76.17zM47.53 165.4l.94 1.48-6.06 6.41 8.34-2.79.86 1.36-10.46 3.39-1.08-1.71 5.81-6.18-8.07 2.61-1.1-1.75 7.55-8.01.97 1.53-6.06 6.39zM47 176.33a3.9 3.9 0 1 1 5 5.94 3.9 3.9 0 1 1-5-5.94m1.18 1.4c-1.44 1.22-1.8 2.7-1.06 3.58s2.28.77 3.72-.45 1.77-2.7 1-3.58-2.26-.76-3.69.45M57.35 182l-.46.51a2.82 2.82 0 0 1 2.15.8 2.62 2.62 0 0 1 .92 2.37 3.26 3.26 0 0 1 2.64.82 2.81 2.81 0 0 1 .35 4.15l-3.6 4-1.29-1.16 3.27-3.65c.7-.78 1.06-1.85.2-2.63-.6-.53-1.61-.62-2.55.43l-3.32 3.7-1.32-1.18 3.28-3.65c.84-.94 1-1.94.23-2.59s-1.71-.57-2.64.47L52 188l-1.3-1.17 5.41-6ZM65.1 194c-.93 1.45-.71 2.89.42 3.66a3.6 3.6 0 0 0 2.45.69l-.47 1.15a5 5 0 0 1-2.81-1c-2-1.33-2.26-3.6-.81-5.73s3.65-2.5 5.33-1.36a3.48 3.48 0 0 1 .81 5.16c-.1.15-.23.34-.35.49Zm3.79 1.31a2.08 2.08 0 0 0-.3-3 2.11 2.11 0 0 0-2.86.83ZM74.9 195.13l-.37.69a3.07 3.07 0 0 1 2.45.25 2.88 2.88 0 0 1 1.22 4.22l-2.41 4.5-1.55-.79 2.27-4.24c.63-1.18.48-2.25-.51-2.78s-2-.11-2.67 1.14l-2.24 4.19-1.53-.81 3.82-7.15ZM84 197.06a4.28 4.28 0 0 1-2.21 2.08l-.81-.36a3.7 3.7 0 0 0 1.46-1.33 1 1 0 0 1 1-1.75 1 1 0 0 1 .53 1.36M88.25 202.75a2.84 2.84 0 0 0-1.36-1.07c-.63-.23-1.15-.12-1.35.43-.26.73.71 1.73 1.06 2.28a3.11 3.11 0 0 1 .63 2.72c-.45 1.23-1.84 1.74-3.5 1.13a4.9 4.9 0 0 1-2-1.42l.77-1.06a3.4 3.4 0 0 0 1.5 1.33c.78.28 1.38.07 1.57-.46s-.07-1.2-.73-2.12-1.32-1.88-1-2.85c.47-1.3 1.76-1.66 3.32-1.1a4.2 4.2 0 0 1 1.75 1.17ZM93 211l2.17-10.43 3.47.73c1.7.35 2.73 1.58 2.44 3a2.7 2.7 0 0 1-2.4 2.16c1.28.61 2.15 1.59 1.86 3-.38 1.82-1.92 2.76-4.29 2.27Zm2.84-4.47-.77 3.7 1.22.25a1.82 1.82 0 0 0 2.37-1.48c.28-1.34-.65-2-1.77-2.28Zm.92-4.42-.68 3.26.9.19a1.69 1.69 0 0 0 2.24-1.39 1.43 1.43 0 0 0-1.22-1.79ZM107.35 213.32a1.8 1.8 0 0 1-.2-.92 3.3 3.3 0 0 1-2.53.82 2.3 2.3 0 0 1-2.16-2.65c.13-1.38 1.29-2.42 3.11-2.45h1.86c.14-1.43-.57-1.94-1.38-2a3.8 3.8 0 0 0-2.4.7l-.17-1.34a4.67 4.67 0 0 1 2.82-.54c1.44.15 3.12 1 2.9 3.25l-.34 3.36a5.3 5.3 0 0 0 .15 2Zm0-4.09h-1.21c-1 0-1.8.54-1.88 1.39a1.19 1.19 0 0 0 1 1.39c1 .09 1.81-.28 2-2.05ZM115.77 207.06a3 3 0 0 0-1.63-.56c-.68 0-1.13.27-1.14.85 0 .78 1.24 1.4 1.75 1.8a3.09 3.09 0 0 1 1.5 2.36c0 1.32-1.17 2.25-2.93 2.23a5 5 0 0 1-2.41-.66l.38-1.26a3.3 3.3 0 0 0 1.91.74c.82 0 1.31-.39 1.32-.94s-.46-1.12-1.39-1.77-1.87-1.34-1.85-2.37c0-1.38 1.11-2.15 2.76-2.13a4.2 4.2 0 0 1 2 .52ZM118.47 213.58l-.83-11.1 1.73-.13.46 6.13 2.59-3.34 1.86-.14-2.87 3.69 3.88 4.37-1.98.15-3.41-3.81.31 4.04zM127.93 208.77c.34 1.69 1.5 2.57 2.85 2.33a3.6 3.6 0 0 0 2.24-1.21l.47 1.15a5 5 0 0 1-2.69 1.27c-2.34.42-4.13-1-4.58-3.54s.87-4.34 2.87-4.7a3.5 3.5 0 0 1 4.19 3.14c0 .18.07.41.09.6Zm3.62-1.7a2.08 2.08 0 0 0-2.28-1.93 2.1 2.1 0 0 0-1.47 2.59ZM135.69 200.5l.57 2.12 2-.53.28 1-2 .54 1.12 4.19c.33 1.2.93 1.41 1.59 1.23a2 2 0 0 0 .92-.56l.47 1.07a4.4 4.4 0 0 1-1.71.85 2.25 2.25 0 0 1-2.89-1.84l-1.21-4.48-1.07.29-.28-1 1.07-.29-.34-1.27ZM144 208.79l-4-10.34 1.64-.64 1.36 3.59a3.64 3.64 0 0 1 1.81-1.78c2-.81 3.94.3 4.84 2.59s.21 4.44-1.82 5.24a3.26 3.26 0 0 1-2.52-.17l.34.87Zm.15-4.44c.65 1.65 2 2.57 3 2.15s1.45-2 .8-3.64-2-2.57-3.06-2.13-1.42 1.92-.75 3.62M157.62 202.7a1.73 1.73 0 0 1-.62-.7 3.33 3.33 0 0 1-1.67 2.08 2.32 2.32 0 0 1-3.27-1c-.64-1.23-.25-2.73 1.27-3.76l1.54-1c-.67-1.28-1.54-1.31-2.26-.93a3.84 3.84 0 0 0-1.63 1.9l-.87-1a4.67 4.67 0 0 1 2.06-2c1.28-.67 3.18-.85 4.21 1.12l1.56 3a5.7 5.7 0 0 0 1.2 1.56Zm-2.24-3.42-1 .7a1.73 1.73 0 0 0-.81 2.2 1.21 1.21 0 0 0 1.62.6c.85-.45 1.36-1.24.53-2.81ZM155.214 191.238l1.495-.928 5.862 9.45-1.496.928zM158.31 189.276l1.45-.997 6.297 9.165-1.45.997zM174.92 190.38l-1.38 1.22-6.26-7.03-2.39 2.12-.83-.93 6.17-5.49.83.94-2.4 2.13zM176.84 183.17c1.29 1.13 2.75 1.12 3.67.11a3.64 3.64 0 0 0 1-2.32l1.06.62a4.93 4.93 0 0 1-1.35 2.64c-1.59 1.75-3.88 1.72-5.78 0s-2-4-.58-5.47a3.48 3.48 0 0 1 5.22-.06l.43.41Zm1.83-3.56a1.94 1.94 0 1 0-2.57 2.81ZM187.72 176a1.8 1.8 0 0 1-.89-.3 3.35 3.35 0 0 1-.59 2.6 2.32 2.32 0 0 1-3.39.49 2.87 2.87 0 0 1-.5-3.93l.94-1.6c-1.16-.86-2-.51-2.44.15a3.8 3.8 0 0 0-.63 2.42l-1.23-.55a4.66 4.66 0 0 1 1-2.69 2.89 2.89 0 0 1 4.27-.82l2.71 2a5.3 5.3 0 0 0 1.76.88Zm-3.51-2.09-.58 1.05a1.72 1.72 0 0 0 .23 2.33 1.19 1.19 0 0 0 1.71-.17c.57-.77.69-1.7-.74-2.75ZM184 167.09l.6.34a2.85 2.85 0 0 1 .3-2.27 2.64 2.64 0 0 1 2.11-1.43 3.24 3.24 0 0 1 .21-2.75 2.8 2.8 0 0 1 4-1.27l4.71 2.61-.84 1.52-4.29-2.38c-.91-.5-2-.62-2.6.4-.39.7-.25 1.71 1 2.39l4.35 2.41-.85 1.54-4.29-2.38c-1.1-.61-2.11-.5-2.58.36s-.17 1.79 1 2.46l4.26 2.37-.85 1.52-7.08-3.92Z" class="cls-2"/></g></g></svg>