<svg xmlns="http://www.w3.org/2000/svg" xml:space="preserve" width="484.67828" height="411.68793" viewBox="0 0 484.67827 411.68793"><defs><clipPath id="a" clipPathUnits="userSpaceOnUse"><path d="M28.745 17.645h826.324v701.883H28.745Z"/></clipPath></defs><g clip-path="url(#a)" style="stroke-width:2.27319" transform="matrix(.58655 0 0 -.58655 -16.86 422.038)"><g style="stroke-width:2.27319"><path d="m0 0-180.145 224.788c-40.9-6.443-80.081-15.589-130.292-30.388l-6.638-1.956v92.233l3.681 1.111c8.131 2.452 16.625 4.978 25.288 7.406-16.648 7.422-29.524 20.563-36.482 37.719-8.988 22.158-6.791 47.505 5.604 67.122l-94.178 117.516h218.96c1.95 49.369 22.287 95.491 57.598 130.354 36.562 36.098 84.997 55.978 136.383 55.978 51.384 0 99.819-19.88 136.382-55.978 35.311-34.863 55.648-80.985 57.599-130.354h219.402l-82.345-102.752a698 698 0 0 0 9.112-3.069l3.489-1.203V183.049l-6.87 2.38c-29.952 10.377-56.367 18.366-80.755 24.426l-3.927.975v13.34l-5.915-11.879-35.448 7.404-4.828 10.843v-9.757l-6.019.995a1395 1395 0 0 1-19.464 3.072z" style="fill:#fff;fill-opacity:1;fill-rule:nonzero;stroke:none;stroke-width:2.27319" transform="translate(441.908 17.645)"/></g><g style="stroke-width:2.27319"><path d="M0 0c0-104.368 84.607-188.975 188.975-188.975S377.951-104.368 377.951 0s-84.608 188.975-188.976 188.975S0 104.368 0 0" style="fill:#27344a;fill-opacity:1;fill-rule:nonzero;stroke:none;stroke-width:2.27319" transform="translate(252.71 525.378)"/></g><g style="stroke-width:2.27319"><path d="M0 0c0-98.611 79.94-178.55 178.55-178.55S357.1-98.611 357.1 0s-79.939 178.55-178.55 178.55C79.94 178.55 0 98.611 0 0" style="fill:#fff;fill-opacity:1;fill-rule:nonzero;stroke:none;stroke-width:2.27319" transform="translate(263.136 525.378)"/></g><g style="stroke-width:2.27319"><path d="M0 0c-16.549-.311-32.625-2.322-48.007-5.841 6.153-29.036-10.806-63.055-41.014-108.893-27.961-42.428-37.66-65.387-38.866-92.358C-97.969-245.25-51.917-270.15 0-271.522z" style="fill:#e4092d;fill-opacity:1;fill-rule:nonzero;stroke:none;stroke-width:2.27319" transform="translate(437.161 628.798)"/></g><g style="stroke-width:2.27319"><path d="M0 0c-32.236-.852-62.204-10.782-87.46-27.317 10.704-4.03 25.381-12.185 33.906-28.094a59 59 0 0 0 2.956-6.426c16.206 3.752 33.15 5.89 50.598 6.206z" style="fill:#e4092d;fill-opacity:1;fill-rule:nonzero;stroke:none;stroke-width:2.27319" transform="translate(437.161 693.479)"/></g><g style="stroke-width:2.27319"><path d="M0 0c32.785 49.748 44.591 78.887 39.818 101.737C-2.039 90.412-38.236 67.8-64.068 38.013a169 169 0 0 1-2.993-31.679c0-34.149 10.189-65.913 27.678-92.439C-36.139-61.827-25.206-38.248 0 0" style="fill:#e4092d;fill-opacity:1;fill-rule:nonzero;stroke:none;stroke-width:2.27319" transform="translate(340.584 519.044)"/></g><g style="stroke-width:2.27319"><path d="M0 0c-25.256 16.535-55.225 26.465-87.46 27.317v-55.631c17.448-.316 34.392-2.454 50.597-6.205a59 59 0 0 0 2.957 6.425C-25.382-12.184-10.705-4.03 0 0" style="fill:#e4092d;fill-opacity:1;fill-rule:nonzero;stroke:none;stroke-width:2.27319" transform="translate(533.671 666.161)"/></g><g style="stroke-width:2.27319"><path d="M0 0a52 52 0 0 1-2.078 4.372c-8.898 16.606-26.47 23.401-35.203 25.845-27.872-21.054-48.981-50.582-59.493-84.756C-71.024-29.379-37.716-10.27 0 0" style="fill:#e4092d;fill-opacity:1;fill-rule:nonzero;stroke:none;stroke-width:2.27319" transform="translate(377.709 629.422)"/></g><g style="stroke-width:2.27319"><path d="M0 0a51 51 0 0 1-2.078-4.372c37.715-10.27 71.023-29.378 96.774-54.539C84.184-24.737 63.074 4.792 35.202 25.845 26.47 23.402 8.897 16.606 0 0" style="fill:#e4092d;fill-opacity:1;fill-rule:nonzero;stroke:none;stroke-width:2.27319" transform="translate(507.742 633.794)"/></g><g style="stroke-width:2.27319"><path d="M0 0c-30.208 45.838-47.166 79.857-41.013 108.893-15.383 3.519-31.458 5.53-48.007 5.841v-271.522c51.916 1.372 97.969 26.273 127.886 64.43C37.66-65.387 27.961-42.428 0 0" style="fill:#e4092d;fill-opacity:1;fill-rule:nonzero;stroke:none;stroke-width:2.27319" transform="translate(535.231 514.064)"/></g><g style="stroke-width:2.27319"><path d="M0 0c-4.773-22.85 7.033-51.989 39.817-101.737 25.206-38.248 36.14-61.827 39.384-86.105 17.489 26.526 27.678 58.29 27.678 92.439 0 10.831-1.037 21.418-2.993 31.679C78.054-33.937 41.857-11.325 0 0" style="fill:#e4092d;fill-opacity:1;fill-rule:nonzero;stroke:none;stroke-width:2.27319" transform="translate(502.97 620.78)"/></g><g style="stroke-width:2.27319"><path d="M0 0v32.792s-36.105 18.762-97.836 18.762-97.836-18.762-97.836-18.762V0h-304.547l402.383-502.1L304.547 0Z" style="fill:#27344a;fill-opacity:1;fill-rule:nonzero;stroke:none;stroke-width:2.27319" transform="translate(539.744 528.02)"/></g><g style="stroke-width:2.27319"><path d="m0 0-358.781 447.692h260.945v53.732S-61.731 520.187 0 520.187s97.836-18.763 97.836-18.763v-53.732h260.945Zm363.534 458.232H108.261v49.182S68.309 530.612 0 530.612s-108.261-23.198-108.261-23.198v-49.182h-272.328l10.665-13.309 10.666-13.309L-12.779-.728l6.39-7.973L0-16.674l6.389 7.973 6.39 7.973 346.479 432.342 10.666 13.309 10.665 13.309z" style="fill:#fff;fill-opacity:1;fill-rule:nonzero;stroke:none;stroke-width:2.27319" transform="translate(441.908 59.388)"/></g><g style="stroke-width:2.27319"><path d="m0 0-4.976-17.983h-3.839l-1.92 7.476c-.505 2.071-1.035 4.243-1.464 6.365-.43-2.122-.935-4.294-1.465-6.365l-1.92-7.476h-3.814L-24.399 0h3.561l1.87-7.249c.555-2.223 1.161-4.571 1.641-6.845a299 299 0 0 0 1.541 6.871L-13.942 0h3.511l1.843-7.223a160 160 0 0 0 1.516-6.896 272 272 0 0 0 1.642 6.87L-3.536 0Z" style="fill:#fff;fill-opacity:1;fill-rule:nonzero;stroke:none;stroke-width:2.27319" transform="translate(406.593 226.068)"/></g><g style="stroke-width:2.27319"><path d="M0 0c0 3.965-2.147 6.39-5.43 6.39S-10.861 3.965-10.861 0c0-3.966 2.147-6.39 5.431-6.39C-2.147-6.39 0-3.966 0 0m-14.422 0c0 5.658 3.587 9.396 8.992 9.396 5.38 0 8.966-3.738 8.966-9.396S-.05-9.396-5.43-9.396c-5.405 0-8.992 3.738-8.992 9.396" style="fill:#fff;fill-opacity:1;fill-rule:nonzero;stroke:none;stroke-width:2.27319" transform="translate(421.214 217.077)"/></g><g style="stroke-width:2.27319"><path d="M0 0v-17.983h-3.258v5.48c0 2.728.025 5.658.101 8.917a79 79 0 0 0-1.364-4.143l-3.637-10.254h-2.804l-3.662 10.254a107 107 0 0 0-1.339 4.092c.076-3.233.101-6.163.101-8.866v-5.48h-3.283V0h4.95l3.107-8.739a255 255 0 0 0 1.541-4.875 114 114 0 0 0 1.591 5.052L-4.95 0Z" style="fill:#fff;fill-opacity:1;fill-rule:nonzero;stroke:none;stroke-width:2.27319" transform="translate(446.09 226.068)"/></g><g style="stroke-width:2.27319"><path d="M0 0v-4.243h8.916v-2.93H0v-4.699h9.8v-3.055H-3.41V3.056H9.85V0Z" style="fill:#fff;fill-opacity:1;fill-rule:nonzero;stroke:none;stroke-width:2.27319" transform="translate(452.452 223.012)"/></g><g style="stroke-width:2.27319"><path d="M0 0v-17.983h-3.788L-8.79-9.977c-1.136 1.794-2.298 3.662-3.207 5.405.101-3.182.101-6.061.101-8.713v-4.698h-3.284V0h3.789l5.026-8.007c1.01-1.641 2.273-3.712 3.183-5.405a362 362 0 0 0-.101 8.714V0Z" style="fill:#fff;fill-opacity:1;fill-rule:nonzero;stroke:none;stroke-width:2.27319" transform="translate(479.575 226.068)"/></g><g style="stroke-width:2.27319"><path d="M0 0v-3.662c0-2.375-1.086-3.41-3.056-3.486l-.429-.025v1.742l.404.026c.757.051 1.086.581 1.086 1.617v.404h-1.49V0Z" style="fill:#fff;fill-opacity:1;fill-rule:nonzero;stroke:none;stroke-width:2.27319" transform="translate(485.508 226.068)"/></g><g style="stroke-width:2.27319"><path d="M0 0h3.359c.051-2.829 1.945-3.586 4.446-3.586 2.349 0 3.637.909 3.637 2.601 0 1.414-.935 2.046-3.688 2.601l-1.515.304C2.753 2.576.455 4.117.455 7.376c0 2.98 2.348 5.076 6.668 5.076 5.051 0 7.198-2.374 7.325-5.758h-3.31c-.126 1.919-1.111 3.005-3.965 3.005-2.172 0-3.233-.859-3.233-2.223 0-1.439.834-2.096 3.511-2.652l1.566-.303c4.243-.833 5.961-2.475 5.961-5.329 0-3.562-2.779-5.532-7.275-5.532C2.905-6.34.025-4.142 0 0" style="fill:#fff;fill-opacity:1;fill-rule:nonzero;stroke:none;stroke-width:2.27319" transform="translate(486.644 214.02)"/></g><g style="stroke-width:2.27319"><path d="M0 0h-5.759v-14.927h-3.435V0h-5.758v3.056H0Z" style="fill:#fff;fill-opacity:1;fill-rule:nonzero;stroke:none;stroke-width:2.27319" transform="translate(422.475 169.396)"/></g><g style="stroke-width:2.27319"><path d="M0 0v-4.243h8.916v-2.93H0v-4.699h9.8v-3.055H-3.41V3.056H9.85V0Z" style="fill:#fff;fill-opacity:1;fill-rule:nonzero;stroke:none;stroke-width:2.27319" transform="translate(427.6 169.396)"/></g><g style="stroke-width:2.27319"><path d="m0 0-.707 1.945c-.632 1.641-1.49 4.041-2.223 6.162a335 335 0 0 0-2.197-6.162L-5.809 0Zm1.036-2.905h-7.881L-8.234-6.87h-3.511L-4.9 11.113h3.991L6.062-6.87H2.45Z" style="fill:#fff;fill-opacity:1;fill-rule:nonzero;stroke:none;stroke-width:2.27319" transform="translate(449.774 161.339)"/></g><g style="stroke-width:2.27319"><path d="M0 0v-17.983h-3.258v5.48c0 2.728.025 5.658.101 8.917a79 79 0 0 0-1.364-4.143l-3.637-10.254h-2.804l-3.662 10.254a107 107 0 0 0-1.339 4.092c.076-3.233.101-6.163.101-8.866v-5.48h-3.283V0h4.95l3.107-8.739c.53-1.617 1.086-3.385 1.54-4.875a116 116 0 0 0 1.592 5.052L-4.951 0Z" style="fill:#fff;fill-opacity:1;fill-rule:nonzero;stroke:none;stroke-width:2.27319" transform="translate(476.292 172.452)"/></g><g style="stroke-width:2.27319"><path d="M0 0c0 1.692-1.111 2.5-2.955 2.5h-4.824v-4.975h4.824C-1.036-2.475 0-1.566 0 0m-7.779 9.875V5.178h4.47c1.768 0 2.677.934 2.677 2.425 0 1.338-.909 2.272-2.677 2.272zM3.485-.152c0-3.081-2.02-5.152-6.263-5.152h-8.411v17.983h8.133c4.142 0 5.809-2.198 5.809-4.647 0-1.768-.909-3.107-2.4-3.864 2.122-.784 3.132-2.527 3.132-4.32" style="fill:#fff;fill-opacity:1;fill-rule:nonzero;stroke:none;stroke-width:2.27319" transform="translate(374.278 186.581)"/></g><g style="stroke-width:2.27319"><path d="m0 0-.707 1.945c-.632 1.641-1.49 4.041-2.223 6.162a335 335 0 0 0-2.197-6.162L-5.809 0Zm1.036-2.905h-7.881L-8.234-6.87h-3.511L-4.9 11.113h3.991L6.062-6.87H2.45Z" style="fill:#fff;fill-opacity:1;fill-rule:nonzero;stroke:none;stroke-width:2.27319" transform="translate(389.632 188.147)"/></g><g style="stroke-width:2.27319"><path d="M0 0h3.359c.051-2.829 1.945-3.586 4.446-3.586 2.349 0 3.637.909 3.637 2.601 0 1.414-.935 2.046-3.688 2.601l-1.515.304C2.753 2.576.455 4.117.455 7.376c0 2.98 2.349 5.076 6.668 5.076 5.051 0 7.198-2.374 7.324-5.758h-3.308c-.127 1.919-1.112 3.005-3.966 3.005-2.172 0-3.233-.859-3.233-2.223 0-1.439.834-2.096 3.511-2.652l1.566-.303c4.243-.833 5.961-2.475 5.961-5.329 0-3.562-2.779-5.532-7.274-5.532C2.905-6.34.025-4.142 0 0" style="fill:#fff;fill-opacity:1;fill-rule:nonzero;stroke:none;stroke-width:2.27319" transform="translate(395.767 187.212)"/></g><g style="stroke-width:2.27319"><path d="m0 0 7.4-10.659H3.334l-5.759 8.386-2.829-2.753v-5.633h-3.409V7.325h3.409v-8.487l8.411 8.487H7.4Z" style="fill:#fff;fill-opacity:1;fill-rule:nonzero;stroke:none;stroke-width:2.27319" transform="translate(421.376 191.935)"/></g><g style="stroke-width:2.27319"><path d="M0 0v-4.243h8.916v-2.93H0v-4.699h9.8v-3.055H-3.41V3.056H9.85V0Z" style="fill:#fff;fill-opacity:1;fill-rule:nonzero;stroke:none;stroke-width:2.27319" transform="translate(433.523 196.204)"/></g><g style="stroke-width:2.27319"><path d="M0 0h-5.759v-14.927h-3.435V0h-5.758v3.056H0Z" style="fill:#fff;fill-opacity:1;fill-rule:nonzero;stroke:none;stroke-width:2.27319" transform="translate(459.283 196.204)"/></g><g style="stroke-width:2.27319"><path d="M0 0c0 1.692-1.111 2.5-2.955 2.5h-4.824v-4.975h4.824C-1.036-2.475 0-1.566 0 0m-7.779 9.875V5.178h4.47c1.768 0 2.677.934 2.677 2.425 0 1.338-.909 2.272-2.677 2.272zM3.485-.152c0-3.081-2.02-5.152-6.264-5.152h-8.41v17.983h8.133c4.142 0 5.809-2.198 5.809-4.647 0-1.768-.909-3.107-2.4-3.864 2.122-.784 3.132-2.527 3.132-4.32" style="fill:#fff;fill-opacity:1;fill-rule:nonzero;stroke:none;stroke-width:2.27319" transform="translate(472.188 186.581)"/></g><g style="stroke-width:2.27319"><path d="m0 0-.708 1.945A210 210 0 0 0-2.93 8.107a350 350 0 0 0-2.197-6.162L-5.81 0Zm1.035-2.905h-7.88L-8.234-6.87h-3.511L-4.9 11.113h3.99L6.062-6.87H2.45Z" style="fill:#fff;fill-opacity:1;fill-rule:nonzero;stroke:none;stroke-width:2.27319" transform="translate(487.542 188.147)"/></g><g style="stroke-width:2.27319"><path d="M0 0v-3.056h-11.972v17.983h3.409V0Z" style="fill:#fff;fill-opacity:1;fill-rule:nonzero;stroke:none;stroke-width:2.27319" transform="translate(506.887 184.333)"/></g><g style="stroke-width:2.27319"><path d="M0 0v-3.056h-11.972v17.983h3.409V0Z" style="fill:#fff;fill-opacity:1;fill-rule:nonzero;stroke:none;stroke-width:2.27319" transform="translate(520.726 184.333)"/></g><g style="stroke-width:2.27319"><path d="M0 0c10.177 1.36 22.152 2.668 32.902 3.829v-23.843C24.16-10.361 12.763-3.143 0 0m420.678 61.858L392.085-2.275l-31.138 76.237c-25.03 4.253-51.297 7.567-77.122 10.205v26.21l-14.796 1.288c-28.115 2.513-57.465 3.86-85.915 4.632V-54.88c0-19.311-9.304-37.019-24.751-47.983-15.446 10.964-24.751 28.672-24.751 47.983v171.177c-33.457-.821-67.574-2.776-100.71-5.92V84.135C-18.082 78.946-70.261 70.456-116.23 58.52c-69.949-18.906-65.205-118.13 5.426-130.92-14.267-3.602-28.604-7.813-42.511-12.007v-81.469c59.521 17.543 101.509 26.492 145.577 32.721a67.93 67.93 0 0 1 41.802 22.751A68 68 0 0 1 43.13-96.99c20.956-39.491 70.563-61.231 115.233-42.575 44.435-18.719 94.245 3.142 115.251 42.58v-30.09c28.254-2.686 57.519-6.664 85.47-11.284v28.007l13.654-30.669 28.945-6.045 13.943 28v-31.297c27.44-6.818 55.104-15.517 81.201-24.558V39.597c-24.407 8.416-50.344 15.9-76.149 22.261" style="fill:#27344a;fill-opacity:1;fill-rule:nonzero;stroke:none;stroke-width:2.27319" transform="translate(283.323 382.885)"/></g><g style="stroke-width:2.27319"><path d="M0 0v154.452a1245 1245 0 0 1-68.309-4.047V0c0-41.48 33.626-75.106 75.106-75.106a74.75 74.75 0 0 1 34.155 8.222C16.648-54.448 0-29.176 0 0" style="fill:#fff;fill-opacity:1;fill-rule:nonzero;stroke:none;stroke-width:2.27319" transform="translate(400.734 328.005)"/></g><g style="stroke-width:2.27319"><path d="M0 0v-154.452c0-29.176-16.648-54.448-40.952-66.884a74.76 74.76 0 0 1 34.155-8.222c41.48 0 75.106 33.626 75.106 75.106V-4.047A1245 1245 0 0 1 0 0" style="fill:#e4092d;fill-opacity:1;fill-rule:nonzero;stroke:none;stroke-width:2.27319" transform="translate(482.638 482.457)"/></g><g style="stroke-width:2.27319"><path d="m0 0-38.473-86.294-42.045 102.938a1041 1041 0 0 1-59.573 7.82v-179.713a1030 1030 0 0 0 53.069-6.933v85.283l41.257-92.674a912 912 0 0 0 8.635-1.806l39.051 78.42v-87.676c16.901-4.434 33.201-9.278 48.8-14.521v180.3C34.563-9.478 17.628-4.514 0 0" style="fill:#fff;fill-opacity:1;fill-rule:nonzero;stroke:none;stroke-width:2.27319" transform="translate(713.229 425.656)"/></g><g style="stroke-width:2.27319"><path d="M0 0c-25.673.753-50.586.503-74.548-.7-4.304-.216-7.824 3.097-7.824 7.406v.076c0 3.45 2.369 6.457 5.731 7.231C-41.137 22.179-3.09 28.55 36.839 32.884v47.689c-47.507-5.156-92.341-13.209-133.412-23.715-22.481-5.751-38.208-25.995-38.208-49.2 0-29.11 24.417-52.191 53.488-50.688 23.119 1.195 47.075 1.499 71.702.872 4.079-.103 7.329-3.461 7.329-7.541 0-3.714-2.712-6.86-6.38-7.441-40.134-6.368-77.981-14.905-112.83-25.306v-47.732c39 11.495 81.686 20.676 127.108 27.097 25.539 3.61 44.511 25.497 44.511 51.289C50.147-23.826 27.954-.82 0 0" style="fill:#fff;fill-opacity:1;fill-rule:nonzero;stroke:none;stroke-width:2.27319" transform="translate(267.68 368.852)"/></g><g style="stroke-width:2.27319"><path d="M0 0c0-3.681-2.46-5.709-6.927-5.709h-12.185V5.773h12.185C-2.331 5.773 0 3.83 0 0m-19.112 13.719v10.776h11.031c3.954 0 6.222-1.893 6.222-5.195 0-3.599-2.21-5.581-6.222-5.581zm21.381-3.06c3.465 2.161 5.357 5.576 5.357 9.73 0 9.123-7.915 12.373-15.322 12.373h-20.901V-14.04h21.606C3.48-14.04 9.485-9.063 9.485-.385c0 4.893-2.674 8.945-7.216 11.044" style="fill:#fff;fill-opacity:1;fill-rule:nonzero;stroke:none;stroke-width:2.27319" transform="translate(405.585 521.12)"/></g><g style="stroke-width:2.27319"><path d="M0 0v-12.501c0-6.817.067-13.314.204-19.786-2.043 3.643-4.534 7.741-6.964 11.692L-19.689 0H-30.2v-46.802h9.486v12.501c0 5.921 0 12.553-.187 19.709 2.178-3.941 4.732-8.018 7.011-11.614l12.864-20.596H9.486V0Z" style="fill:#fff;fill-opacity:1;fill-rule:nonzero;stroke:none;stroke-width:2.27319" transform="translate(449.671 553.882)"/></g><g style="stroke-width:2.27319"><path d="M0 0h11.87L-6.669 23.401 11.87 46.802H0l-17.82-23.401Z" style="fill:#fff;fill-opacity:1;fill-rule:nonzero;stroke:none;stroke-width:2.27319" transform="translate(494.514 507.08)"/></g><path d="M475.698 553.882h-9.935V507.08h9.935z" style="fill:#fff;fill-opacity:1;fill-rule:nonzero;stroke:none;stroke-width:2.27319"/></g></svg>