<svg xmlns="http://www.w3.org/2000/svg" viewBox="0 0 1747.77 1071.5"><path fill="#fff" d="M725.21 656.46c-84.63-42.13-148.63-118.39-175.9-216.31-6.65-23.87-11.34-49.94-12.8-75.41-.33-5.75-.4-9.74-.4-15.62 0-8.07.59-17.11 1.16-25.05 3.16-43.91 14.48-85.59 32.28-123.53 20.5-43.71 49.15-82.55 84.63-113.82 28.96-25.52 62.58-45.91 99.2-60.69C789.22 11.56 828.24 2.49 869.43.7c2.2-.1 4.41-.48 6.62-.53 2.61-.06 5.23-.17 7.87-.17s5.23.11 7.83.17c2.54.05 5.07.45 7.59.56 34.76 1.59 68.06 8.59 99.22 19.43 30.34 10.56 59.1 25.12 84.89 43.08 2.45 1.7 4.86 3.12 7.24 4.9 4.34 3.22 8.25 6.25 12.44 9.67 1.99 1.64 3.95 3.6 5.91 5.28 30.81 26.5 56.78 58.58 76.91 94.78 0 0-46.61-42.64-125.61-20.03 0 0 141.64 54.23 164.47 133.21 0 0-52.55-70.97-130.93-63.75 0 0 126.86 115.88 125.34 212.86l-10.64 66.39-39.55-31.65 15.99 47.54-459.79 134.01h-.02z"/><path fill="#470000" d="M1208.55 506.6c-19.74-147.21-118.98-199.84-163.2-213.28 73.78 41.77 115.47 112.01 120.91 160.72-17.24-38.55-46.52-71.07-95.26-80.59 53.39 33.36 71.01 73.43 78.66 116.13-45.57-77.54-142.87-106.61-226.14-90.83 0 0 42.2-25.77 77.86-24.68-2.54-20.44-59.5-17.42-112.54-32.64-45.15-12.95-54.06-36.27-56.06-50.64 7.15 11 29.34 20.08 53.59 17.33 21.67-2.46 44.28-15.72 45.37-46.98 0 0 26.78-12.47 32.75-24.39-6.8 5.83-87.48 25.32-137.82 28.87-18.01.2-22.15-16.92-46.93-11.57.08-11.66 8.05-25.1 20.95-33.78 70.23-47.17 184.12-1.8 264.23 52.7 0 0-71.7-72.93-158.49-89.31-94.87-17.91-155.05 31.77-146.89 78.42-38.35 9.62-77.99 45.89-65.86 85.55 12.64 41.36 45 56.71 45 56.71-22.48-36.19 48.79-67.44 143.09-35.75-32.62-6.71-136.79-7.16-125.28 36.42 16.18-11.64 56.03-3.23 67.45 33.36 19.47 62.44-21.66 169.92-105.95 217.63 49.48 26.85 106.11 42.18 166.37 42.18 24.19 0 47.84-2.46 70.65-7.15l23.83-6.32c-6.51-17.89-18.73-31.73-60.42-44.6 97.67-6.07 127.29 89.33 127.29 89.33 41.12-18.63 60.86-55.38 58.26-98.02l49.76 46.98c14.09-30.76 16.44-96.43-7.23-139.72l40.56 46.17c2.29-28.12 1.18-66.49-12.06-98.84l33.53 20.56z"/><path fill="#fff" d="M852.74 280.75c17.79-2.33 35.9-7.03 49.07-11.14-3.91 9.4-16.38 18.6-29.9 19.66l-19.17-8.51z"/><path fill="#c20037" d="M1001.38 374.08c-35.66-1.09-77.86 24.67-77.86 24.67 83.27-15.78 180.61 13.29 226.14 90.84-7.65-42.7-25.26-82.76-78.66-116.13 48.73 9.51 78.01 42.03 95.26 80.58-5.43-48.7-47.08-118.88-120.78-160.64-.03-.03-.09-.05-.12-.08 16.34 4.97 40.15 15.29 64.72 33.72-14.16-21.01-29.87-39.3-46.47-54.95l-4.05-2.7c-.81-.54-1.6-1.07-2.41-1.6-10.06-6.6-20.61-12.99-31.47-19.07-79.53-33.8-132.25-39.43-168.87-35.44-31.24 3.39-57.7 16.34-62.49 40.27 12.92 2.34 18.61 12.23 32.36 12.1 50.33-3.55 131.01-23.05 137.82-28.88-5.98 11.92-32.75 24.4-32.75 24.4-1.09 31.26-23.71 44.51-45.38 46.98-24.25 2.74-46.44-6.34-53.58-17.34 1.99 14.37 10.9 37.7 56.05 50.64 53.04 15.23 110.01 12.21 112.54 32.65M932.77 617.08c88.87-3.56 129.37 26.52 127.78 76.03 62.88-70.77-42.24-108.94-127.78-76.03"/><path fill="#c20037" d="M914.88 463.13c125.07 7.27 163.16 77 163.16 77s-88.66-22.01-169.5 63.78c117.02-52.91 197.3-14.72 233.88 26.13-11.18-128.66-103.44-164.06-103.44-164.06s51.15-.22 113.14 51.21c-46.08-93.11-184.26-95.85-237.25-54.05M738.69 404.34c-.1-16.13 14.26-19.72 24.5-21.6 23.12-20.82 92.96-19.41 118.59-14.14-94.3-31.7-165.57-.44-143.09 35.74"/><path fill="#ffd900" d="M1125.34 248.28c50.49 6.14 82.44 23.5 101.73 47.36-19.61-96.24-92.12-129-163.74-137.05 40.74-5.14 87.16-1.47 124.89 20.78-21.68-39.07-50.66-73.54-85.1-101.55-38.38 33.93-66.41 84.96-83.26 139.18 53.59 36.01 88.24 80.51 102.37 103.62 28.97 23.84 72.49 58.19 96.97 119.57 2.63-9.51 4.83-19.18 6.62-28.99 9.22-71.64-25.34-137.49-100.48-162.92M761.95 206.96c22.36-26.62 60.99-41.9 105.98-41.9 2.66 0 5.4.07 8.13.15V.18c-79.37 1.76-152.15 30.04-209.83 76.41 33.18 35.67 65.24 87.17 84.99 146.75 2.8-5.68 6.39-11.19 10.74-16.38M1005.61 207.91c19.61-59.02 51.27-108.5 85.06-139.76C1034.83 26.76 966.13 1.82 891.7.18v166.13c5.81.62 11.65 1.47 17.51 2.75 36.5 8.01 68.69 22.11 96.4 38.84M686.04 298.54c11.32-20.07 32.89-37.48 57.02-46.75-17.66-66.15-52.09-125.62-88.88-165.06-72.4 63.73-118.14 157.04-118.14 261.08 0 .44.04.86.04 1.32h142.56c-4.96-16.65-1.79-34.3 7.39-50.59M774.64 415.01c-11.48 0-20.85 6.48-24.36 12.46-15.53-6.38-46.84-23.6-65.45-62.72H536.47c5.41 112.38 64.12 210.75 151.43 270.41 45.94-26.43 143.09-94.97 121.82-192.33-4.27-19.54-21.14-27.81-35.09-27.81M771.82 306.75c9.57-4 22.65-6.65 42.05-2.69 0 0-4.56-5.05-5.93-12.78 0 0-25.07 4.55-36.12 15.47M800.71 220.27c-12.92 8.68-20.88 22.11-20.96 33.78 5.88-1.27 10.57-1.24 14.59-.52 4.78-23.93 31.24-36.86 62.48-40.27 36.64-3.99 89.39 1.65 168.99 35.49-75.02-42.05-165.68-68.38-225.1-28.48"/><path fill="#470000" d="m1747.77 855.72-31-73.48-821.43.01h-.22l-96.77 11.3-55.83-11.36-131.12.05-58.01 48.28-.73-48.28h-174.7l-46.3 44.98-19.23-44.98H47.28l31.87 61.39-31.45 55.93 39.58 46.75L0 988.26l31.01 73.47h177.07l.14-.02 126.05-12.5 37.2-44.36 85.28 43.63.48.28 80.38 14.09 91.98-18.57 11.81-27.21 165.75 44.66h309.1l86.45-18.81 10.55-23.55 223.98 52.13 10.08-9.77h171.18l83.61-96.51-29.97-73.16z"/><path fill="#ffd900" d="m251.63 892.58-98.59-.02-11.88-14.05 16.91-30.06h103.61l-11.11 35.09 73.31-35.22-21.49-50.93H72.2l24.05 46.3.31-.14-30.51 54.25 38.56 45.55h98.6l6.12 14.54-33.2 38.35-94.36-.71 11.11-35.08-73.3 35.21 21.48 50.92h166.18l72.99-84.23zM1655.96 892.58l-98.58-.02-11.89-14.05 16.91-30.06h103.61l-11.11 35.09 73.31-35.22-21.5-50.93h-230.17l24.04 46.3.32-.14-30.52 54.25 38.58 45.55h98.59l6.11 14.54-33.2 38.35-94.36-.71 11.11-35.08-73.3 35.21 21.49 50.92h166.18l72.98-84.23zM1122.48 849.11l45.12-51.77-253.53.05 20.56 45.69-92.23 203.51h206.45l46.07-51.77H936.36l63.91-145.71z"/><path fill="#ffd900" d="m1088.4 944.87 23.93-51.78h-81.95l-58.02 51.78zM888.43 797.34l-87.03 12.74-65.43 72.34-65.17 51.77h49.85l46 98.77 69.29 17.67-57.43-130.99zM612.9 797.39l22.79 43.88-93.5 205.28 76.77-15.58L723.8 797.34zM1460.34 797.34l-274.62.05 22.61 43.88-93.5 205.28 77.17-16.8 81.76-183.33h95.16l-29.85 49.8h-36.32L1244.71 948h70.03l35.47 84.87 80.94 19.08-54.02-127.04 49.79-55.29zM399.13 797.39l19.41 37.39-184.04 211.8 92-11.69 143.89-166.22v68.38h-29.15l-58.03 51.79h87.18v46.74l67.17 11V797.39z"/><path fill="#470000" d="M313.04 549.52h-35.73v141.14h106.36v-30.72h-70.63zM500.87 656.35l-1.05.69c-6.5 4.27-14.8 6.43-24.71 6.43-6.15 0-11.83-1.08-16.89-3.2s-9.53-5.09-13.29-8.84c-3.77-3.75-6.72-8.34-8.78-13.63-2.05-5.24-3.09-11-3.09-17.1s1.03-11.8 3.08-16.92c2.04-5.09 4.86-9.61 8.38-13.42 3.53-3.82 7.73-6.88 12.52-9.08 4.81-2.22 10.07-3.35 15.67-3.35 7.51 0 14.23 1.25 19.98 3.73 5.06 2.18 10.05 5.22 14.91 9.07l20.76-24.96c-7.1-5.77-14.92-10.39-23.3-13.74-9.05-3.62-20.01-5.45-32.57-5.45-10.89 0-21.14 1.9-30.45 5.66-9.3 3.75-17.39 9.02-24.05 15.63-6.65 6.62-11.96 14.5-15.78 23.43-3.78 8.89-5.71 18.57-5.71 28.76 0 11.17 1.97 21.12 5.85 30.01 3.87 8.89 9.3 16.66 16.11 23.09 6.82 6.42 15.01 11.48 24.34 15.03 9.35 3.56 19.69 5.37 30.73 5.37 12.97 0 24.72-2.12 34.96-6.29 9.9-4.03 18.65-9.07 26.03-14.98v-62.16h-62.38v24.88h28.75v21.32z"/></svg>