<svg xmlns="http://www.w3.org/2000/svg" viewBox="0 0 98.05 98.15"><defs><style>.cls-1{fill:#fcaf17}.cls-2{fill:#fff}.cls-3{fill:#231f20}</style></defs><g id="레이어_2"><g id="레이어_1-2"><path d="M97.61 49.08A48.59 48.59 0 0 1 4.26 68 48.69 48.69 0 0 1 30.11 4.26a48.59 48.59 0 0 1 67.5 44.82M92 30.92a46.86 46.86 0 1 0 3.66 18.16A46.7 46.7 0 0 0 92 30.92" class="cls-1"/><path d="M49 98.15a49.06 49.06 0 0 1-34.64-83.77 49.06 49.06 0 0 1 79.84 53.8A49 49 0 0 1 49 98.15M49 .87A48.17 48.17 0 0 0 .87 49.08a48.14 48.14 0 1 0 66.9-44.41A47.7 47.7 0 0 0 49 .87m0 95.28A47 47 0 0 1 2 49.08a47 47 0 1 1 65.33 43.37A46.6 46.6 0 0 1 49 96.15m0-93.27a46.15 46.15 0 0 0-46.13 46.2A46.12 46.12 0 1 0 67 6.5a45.8 45.8 0 0 0-18-3.62" class="cls-2"/><path d="M97.61 49.08A48.59 48.59 0 0 1 4.26 68 48.69 48.69 0 0 1 30.11 4.26a48.59 48.59 0 0 1 67.5 44.82M92 30.92a46.86 46.86 0 1 0 3.66 18.16A46.7 46.7 0 0 0 92 30.92" class="cls-1"/><path d="M69.8 28.28a29.44 29.44 0 1 0 8.6 20.8 29.2 29.2 0 0 0-8.6-20.8" class="cls-1"/><path d="M93.63 49.08A44.6 44.6 0 1 1 49 4.43a44.62 44.62 0 0 1 44.6 44.65m-23.8-20.8a29.44 29.44 0 1 0 8.6 20.8 29.2 29.2 0 0 0-8.6-20.8" class="cls-3"/><path d="M69.91 30.44a26 26 0 0 0-2.1-2.12 27.8 27.8 0 0 0-17.5-7.22h-2.57a27.83 27.83 0 0 0-17.5 7.22c-.73.67-1.43 1.37-2.09 2.11a27.9 27.9 0 0 0-7.1 18.65v.67a28.4 28.4 0 0 0 .59 5.09A27.8 27.8 0 0 0 27 66.39a27.4 27.4 0 0 0 2.81 3.08 27.8 27.8 0 0 0 17.89 7.58h2.57a27.84 27.84 0 0 0 17.9-7.58A27.4 27.4 0 0 0 71 66.39a27.85 27.85 0 0 0 5.39-11.56 27.4 27.4 0 0 0 .61-5.08v-.67a27.9 27.9 0 0 0-7.1-18.64m-38.63.87c3.22 1.07 6.46 2.73 7.49 5.09a28.3 28.3 0 0 0-14.48 8.73l-.06.07a25.08 25.08 0 0 1 7.06-13.89ZM24 49.94A25.2 25.2 0 0 1 39.11 39c-.27 2.73-2.23 5.23-4.44 8.06s-4.5 5.74-5.82 9.56a34 34 0 0 0-1.4 5.31A25 25 0 0 1 24 49.94m26.31 24.22v-21.7h-2.57v21.7a25 25 0 0 1-18.07-9.09 28.7 28.7 0 0 1 1.61-7.63c1.17-3.41 3.33-6.16 5.41-8.81 2.86-3.64 5.56-7.09 4.93-11.53-.45-3.23-3.2-5.83-8.15-7.73A24.92 24.92 0 0 1 47.74 24v4.62h2.57V24a25 25 0 0 1 14.28 5.38c-5 1.9-7.71 4.5-8.16 7.73-.62 4.44 2.08 7.89 4.93 11.53 2.08 2.65 4.24 5.4 5.42 8.81a29 29 0 0 1 1.6 7.63 25 25 0 0 1-18.07 9.08M70.6 61.91a34 34 0 0 0-1.39-5.31c-1.32-3.82-3.71-6.87-5.82-9.56S59.21 41.71 59 39a25.15 25.15 0 0 1 15.15 11 24.9 24.9 0 0 1-3.55 11.91m3.14-16.8a28.24 28.24 0 0 0-14.46-8.71c1-2.35 4.27-4 7.49-5.08a25.1 25.1 0 0 1 7.06 13.89Z" class="cls-3"/><path d="m49.03 31.15 2.02 4.09 4.51.66-3.27 3.19.78 4.5-4.04-2.13-4.04 2.13.77-4.5-3.27-3.19 4.52-.66z" class="cls-3"/><path d="M86 43.51a37 37 0 0 0-2-8.2 40 40 0 0 0-1.66-3.89c-.14-.29-.29-.57-.44-.85l2.22-.12-2.46-1.83.91-2.94-2.53 1.71-2.63-2 1 3.16-2.88 1.71 3.47.24.44 3.68 1.23-2.59.33.57a40 40 0 0 1 1.8 3.65 39 39 0 0 1 1.38 3.84c.38 1.31.69 2.64.94 4a40 40 0 0 1 .49 4.08c0 .68.07 1.37.07 2.06v2.06A37 37 0 0 1 84.32 60a37.5 37.5 0 0 0 1.75-8.14c.07-.69.12-1.38.15-2.08s0-1.4 0-2.1a39 39 0 0 0-.22-4.17M20.62 25.39l-2.63 2-2.54-1.71.92 2.94-2.46 1.83 2.22.12-.45.85c-.62 1.27-1.17 2.58-1.68 3.89a42 42 0 0 0-1.21 4 39 39 0 0 0-.74 4.15c-.17 1.39-.25 2.79-.28 4.18v2.1c0 .7.08 1.39.15 2.08A37 37 0 0 0 13.74 60a36.6 36.6 0 0 1-1.31-8.17v-2.06c0-.69 0-1.38.08-2.06a37 37 0 0 1 .49-4.07 36 36 0 0 1 .94-4 39 39 0 0 1 1.37-3.84 40 40 0 0 1 1.8-3.65l.33-.57 1.23 2.59.45-3.68 3.12-.24-2.54-1.71 1-3.16" class="cls-1"/><path d="m13.06 65.65 4.35-2.28a5.6 5.6 0 0 1 1.05 1.3 1.75 1.75 0 0 1-.77 2.43 1.68 1.68 0 0 1-2.4-.77 3 3 0 0 1-.24-.66l-1.55.82zm4.23.61c.57-.3.78-.74.5-1.26a2.1 2.1 0 0 0-.42-.54l-1.64.86a2 2 0 0 0 .21.63c.3.57.79.6 1.35.31M16.72 71.87a7 7 0 0 0 1-1.85.38.38 0 0 0-.08-.35l-.25-.39-1.66 1.12-.53-.79 4.09-2.75A5.4 5.4 0 0 1 20.45 68a1.54 1.54 0 0 1-.45 2.34 1.5 1.5 0 0 1-1.61.12 7 7 0 0 1-1.16 2.2l-.54-.79m2.82-2.33a.75.75 0 0 0 .28-1.12 2.3 2.3 0 0 0-.46-.47l-1.33.91.26.38a.82.82 0 0 0 1.28.3ZM18.36 73.99l-.6-.75 4.01-3.2.6.75zM22.63 71.59a5.1 5.1 0 0 1 1.47 1 2.41 2.41 0 0 1-.19 3.66 2.35 2.35 0 0 1-3.62 0 12 12 0 0 1-1.1-1.35l3.44-3.29m-2.31 3.52a4 4 0 0 0 .49.61c.69.72 1.57.68 2.44-.15s1.06-1.71.32-2.48a2.2 2.2 0 0 0-.66-.48ZM25.29 80.59a18 18 0 0 1-1.56-1.15c-.58-.48-.74-1-.3-1.48l2.67-3.22 2.33 1.93-.46.54-1.58-1.31-.88 1.1L27 78.21l-.45.55-1.51-1.24-.78.94c-.17.2-.12.38.1.57l1.31 1.09-.39.47M27.93 79.19a.83.83 0 1 1 1.37.92.83.83 0 1 1-1.37-.92M34.1 81l-1.15-.62-2.07 3.86-.85-.46 2.07-3.86-1.16-.62.35-.67 3.17 1.71zM35.81 86.32a17 17 0 0 1-1.81-.64c-.68-.27-1-.68-.72-1.32l1.57-3.87 2.8 1.14-.26.66-1.91-.78-.52 1.29 1.81.73-.27.66-1.81-.74-.46 1.14c-.1.24 0 .4.27.51l1.58.65-.24.57M37.35 86.93l-.93-.25a34 34 0 0 1 3.19-4.45l.72.2a35 35 0 0 1 .48 5.45l-.93-.26V86.1l-1.72-.47c-.3.47-.58.93-.8 1.3m2.32-3.54A19 19 0 0 0 38.55 85l1.3.36a14 14 0 0 0-.18-1.97ZM45.84 83.4l1 .12a20.4 20.4 0 0 1 .31 5.21l-.91-.11a19 19 0 0 0-.08-3.79l-1.39 3.41-.94-.11a14.6 14.6 0 0 0-.57-3.68l-.94 3.7-.95-.15 1.33-5 1 .12a10.9 10.9 0 0 1 .8 3.61l1.35-3.36M51 85.09l-.63 3.57h-1.06a33 33 0 0 1-1.55-5h.91c.33 1.32.7 2.7 1.11 3.91l.65-3.8 1-.06 1 3.72a21 21 0 0 0 .69-4l.91-.06a24.6 24.6 0 0 1-1 5.2h-1l-1-3.48M58.9 84.84c.33 1.56-.23 2.78-1.6 3.08s-2.38-.6-2.71-2.16.23-2.8 1.59-3.08 2.38.6 2.72 2.16m-3.37.72c.25 1.14.77 1.8 1.62 1.63s1.05-1 .8-2.15-.77-1.82-1.61-1.64-1.05 1.01-.81 2.16M63 86.14a7 7 0 0 0-1.53-1.44.38.38 0 0 0-.36 0l-.44.16.66 1.88-.89.31-1.62-4.66a5.8 5.8 0 0 1 1.42-.83 1.56 1.56 0 0 1 2.13 1 1.55 1.55 0 0 1-.29 1.59 7.3 7.3 0 0 1 1.83 1.69l-.91.32m-1.53-3.32c-.21-.59-.61-.7-1-.56a2 2 0 0 0-.57.32l.53 1.54.44-.15a.82.82 0 0 0 .59-1.17ZM65.49 85.08l-.84.41-2.25-4.61.84-.42zm-1.12-2.52c.14-.88.41-2 .52-2.91l.91-.44a28 28 0 0 1-.49 2.9l3 1.57-1 .47ZM67.8 80.71a.79.79 0 0 1 .26-1.15.79.79 0 0 1 1.14.26.83.83 0 1 1-1.4.89M71.53 80.65a5 5 0 0 0 1.06-.6c.56-.44.63-.84.37-1.17a.88.88 0 0 0-.92-.31c-.49 0-1 .11-1.34.12a1.25 1.25 0 0 1-1.17-.51c-.5-.64-.26-1.41.46-2a6.5 6.5 0 0 1 1.28-.73l.32.56c-.31.18-.84.5-1.12.71s-.4.55-.18.83.41.24.68.23.78-.08 1.19-.1a1.67 1.67 0 0 1 1.57.58c.52.67.31 1.55-.71 2.35a4.3 4.3 0 0 1-1.19.61l-.3-.59M75.31 78.62l-3.42-3.53a5.6 5.6 0 0 1 1-1.37 1.74 1.74 0 0 1 2.55 0 1.7 1.7 0 0 1-.06 2.53 2.8 2.8 0 0 1-.56.4L76 78l-.69.66m-.62-4.23c-.45-.47-.92-.54-1.34-.13a2.3 2.3 0 0 0-.4.56l1.29 1.33a2.1 2.1 0 0 0 .55-.39c.46-.48.34-.96-.1-1.41ZM79.09 74.71l-.64.73-3.85-3.39.64-.72zM81.5 71.64a6.7 6.7 0 0 0-2.08-.33.35.35 0 0 0-.3.18l-.28.38 1.6 1.19-.56.75-4-2.94a5.8 5.8 0 0 1 .72-1.49 1.64 1.64 0 0 1 3 1.11 7.4 7.4 0 0 1 2.46.37l-.57.78m-3.13-1.89a.74.74 0 0 0-1.15.1 2.3 2.3 0 0 0-.29.59l1.31 1 .27-.37a.82.82 0 0 0-.13-1.32ZM82.96 69.38l-.51.82-4.35-2.72.51-.82zM81.23 63.4l-.6 1.16 3.88 2.02-.44.86-3.88-2.03-.62 1.18-.66-.35 1.65-3.19zM31.09 21.89l-1.09.72-3.88-6.06 1.13-.72 3.88 6.06m-2-3.32c.07-1.27.28-2.83.31-4.17l1.21-.78a39 39 0 0 1-.25 4.15l4.5 1.68-1.26.81ZM37.35 14.28a1.73 1.73 0 0 1 1.83 1.16c.46 1.17 0 2.43-1.94 3.18a15.5 15.5 0 0 1-2.05.62L32.7 13a6.5 6.5 0 0 1 1.84-1.24c1.44-.57 2.7-.26 3.13.85a1.56 1.56 0 0 1-.32 1.71m-1.79.27c.7-.28 1.11-.86.87-1.45s-.89-.68-1.5-.44a3.3 3.3 0 0 0-.74.42l.69 1.74Zm2.35 1.37c-.29-.72-1.1-.79-1.81-.51l-.85.34.85 2.15a5 5 0 0 0 .89-.28c.81-.37 1.25-.9.92-1.74ZM43.15 15.63a7 7 0 0 0 1.73.06c1-.11 1.39-.54 1.33-1.13s-.32-.77-.87-1-1.28-.59-1.74-.84a1.76 1.76 0 0 1-1.05-1.46c-.13-1.14.74-1.89 2.05-2a10.6 10.6 0 0 1 2.11.05v.91h-1.89c-.51 0-.9.37-.84.86s.32.58.66.78 1 .46 1.53.75a2.31 2.31 0 0 1 1.46 1.83c.14 1.2-.78 2.09-2.61 2.3a6 6 0 0 1-1.91-.14l.08-.93M53.08 10.27l-1.86-.07-.24 6.14-1.38-.05.24-6.15-1.89-.07.04-1.05 5.13.2zM53.74 16.58l-1.35-.28a49 49 0 0 1 4.14-6.49l1 .22a46.3 46.3 0 0 1 1.17 7.61l-1.35-.28c0-.67-.09-1.4-.15-2.14l-2.5-.53-1 1.89m3-5.14a23 23 0 0 0-1.46 2.33l1.89.4a20 20 0 0 0-.4-2.73ZM62.8 19.42a9.3 9.3 0 0 0-.25-3 .56.56 0 0 0-.36-.36l-.61-.26-1.1 2.57-1.24-.53L62 11.52a8.8 8.8 0 0 1 2.3.51 2.21 2.21 0 0 1 1.3 3.07 2.13 2.13 0 0 1-1.82 1.37 10 10 0 0 1 .29 3.53l-1.27-.54m1.55-4.89a1 1 0 0 0-.54-1.57 3 3 0 0 0-.91-.22l-.9 2.1.61.25a1.16 1.16 0 0 0 1.74-.6ZM65.05 19.31a7.2 7.2 0 0 0 1.29 1.16c.86.56 1.42.47 1.74 0a1.22 1.22 0 0 0 0-1.36c-.29-.65-.6-1.27-.79-1.76a1.74 1.74 0 0 1 .13-1.79c.63-1 1.78-1 2.88-.25a10.4 10.4 0 0 1 1.58 1.39l-.61.68a19 19 0 0 0-1.48-1.19c-.5-.33-.92-.3-1.19.12a1 1 0 0 0 0 1c.14.41.46 1 .69 1.56a2.32 2.32 0 0 1 0 2.35c-.66 1-1.94 1.1-3.48.08A6.2 6.2 0 0 1 64.4 20l.65-.67" class="cls-2"/><path d="M42.51 49.31h1v-2.89a7 7 0 0 1-.74.23l-.14-.51a10 10 0 0 0 1.08-.45h.58v3.62h.84v.59h-2.6v-.59M46.35 49.54a1.8 1.8 0 0 0 1.41-1.34 1.22 1.22 0 0 1-.79.25 1.33 1.33 0 0 1-1.35-1.39 1.4 1.4 0 0 1 1.43-1.47 1.48 1.48 0 0 1 1.5 1.68 2.55 2.55 0 0 1-.85 2.25 2.65 2.65 0 0 1-1.19.46zm.73-3.36c-.48 0-.71.37-.71.88s.2.8.67.8a.76.76 0 0 0 .72-.34.75.75 0 0 0 .06-.37c0-.52-.18-.97-.74-.97M51.5 46a2 2 0 0 0-1.2.44 1.5 1.5 0 0 0-.44.94 1.1 1.1 0 0 1 .77-.27A1.31 1.31 0 0 1 52 48.53 1.42 1.42 0 0 1 50.54 50c-.94 0-1.48-.68-1.48-1.8a2.7 2.7 0 0 1 .69-2.08 2.3 2.3 0 0 1 1.72-.52v.43m-1 3.37c.44 0 .69-.36.69-.86s-.27-.81-.7-.81a.7.7 0 0 0-.66.37.53.53 0 0 0-.08.3c.07.54.28.99.82.99ZM53.49 49.38a.85.85 0 0 0 .95-.84.76.76 0 0 0-.86-.76 1.1 1.1 0 0 0-.33 0L53 47.6l1-1.33h-1.34v-.58h2.18l.17.16-1 1.43a1.24 1.24 0 0 1 1.22 1.25c0 .89-.69 1.46-1.71 1.46a3.4 3.4 0 0 1-1.09-.21l.11-.55a3.6 3.6 0 0 0 1 .15" class="cls-3"/><path d="M95.62 49.08A46.51 46.51 0 1 1 92 30.92a46.4 46.4 0 0 1 3.66 18.16M49 4.43a44.65 44.65 0 1 0 44.6 44.65A44.63 44.63 0 0 0 49 4.43" class="cls-2"/></g></g></svg>