<svg xmlns="http://www.w3.org/2000/svg" xmlns:xlink="http://www.w3.org/1999/xlink" xml:space="preserve" width="336.224px" height="277.648px" x="0px" y="0px" viewBox="0 0 336.224 277.648"><path fill="#140F10" d="m275.363 232.167.136-.224.287.224z"/><path fill="#FFF" d="m68.788 161.23-7.129-8.526-2.952-3.552-1.729-2.075c-6.325-7.829-9.1-15.383-8.012-21.847.894-5.286 4.302-9.807 10.134-13.44 3.739-2.318 8.204-2.964 12.458-3.428.296-.028 2.954-.362 3.94-2.46.476-1.058.469-2.053-.01-2.825-.48-.785-1.403-1.244-2.595-1.295-15.647-.551-36.509 6.849-43.815 29.507-.279.728-7.003 19.317 13.938 41.662.212.229 21.67 23.278 23.901 25.959 2.405 2.885 4.435 7.599 2.911 12.193-1.654 4.992-7.188 8.743-15.999 10.847-.295.067-3.063.735-3.523 2.863-.194.873 0 1.671.547 2.243.741.77 1.854.887 2.593.764 9.636-.995 17.214-3.529 24.546-8.211 5.571-3.556 12.468-11.053 13.564-20.486.101-.877.151-1.752.151-2.622 0-6.574-2.904-12.886-8.674-18.805L68.788 161.23z"/><path fill="#FFF" d="M99.179 142.833c2.995 1.583 7.239.751 11.954-2.344 4.681-3.123 7.348-7.793 6.647-11.625-.501-2.724-2.618-4.65-5.978-5.425l-.768-.178c-2.357-.529-3.429-.774-5.169-3.435-.372-.838-.076-1.289.186-1.539.804-.771 2.91-1.013 4.533-.183 3.012 1.496 6.317.396 8.033-1.465 1.38-1.495 1.669-3.368.752-4.886-2.57-4.3-10.55-5.434-13.865-5.716l-6.963-.045-5.225.111c-2.121-.023-4.059-.729-5.76-1.353-2.813-1.029-5.725-2.091-7.87 1.058a3.51 3.51 0 0 0-.598 1.993c0 .992.35 2.017.709 3.079.431 1.279.914 2.714.914 4.405 0 1.656-.466 3.561-1.91 5.794l-2.155 3.284c-2.85 4.296-5.314 8.008-7.758 14.268-1.409 3.592-2.103 6.556-2.128 9.05l-.003.273c0 2.615 1.477 7.319 7.226 8.275.18.017 7.057.399 11.256-4.053 2.429-2.57 3.381-6.148 2.84-10.635-1.362-7.355-.776-11.556 1.726-12.559.965-.398 2.326-.719 3.413-.004 1.093.721 1.707 2.341 1.73 4.555.095 5.886 2.355 8.305 4.231 9.3M152.764 177.37c-2.768-2.958-10.216-5.242-20.023-3.273-2.888.575-5.68 1.841-8.402 3.115.989-3.784 6.985-26.78 6.985-26.78l.032-.274a1.087 1.087 0 0 0-1.088-1.083h-19.961c-.497 0-.93.332-1.053.813l-.313 1.218c-.084.323-.012.672.188.936.209.265.524.421.861.421.639 0 1.085.12 1.252.34.182.233.182.751.007 1.428L97.354 207.53c-2.005 7.68-3.104 11.914 1.588 16.656 2.496 2.735 8.45 3.967 19.266 3.967 7.212 0 16.771-.667 21.359-3.838 6.325-4.186 8.65-6.152 11.278-16.238l3.622-13.892c1.955-7.498 2.843-11.978-1.703-16.815m-33.708 46.012c-2.49 0-4.039-.437-4.729-1.333-.412-.529-.58-1.286-.58-2.242 0-1.997.751-4.863 1.677-8.396l.279-1.076v-.001l5.116-19.625c2.041-7.827 4.573-10.466 10.05-10.466 2.948 0 4.651.502 5.529 1.635 1.104 1.431 1.112 4.138.033 8.283l-5.117 19.626c-2.832 10.862-4.572 13.595-12.258 13.595M175.762 223.903c-.616 0-1.068-.128-1.246-.352-.18-.237-.188-.752-.013-1.414l12.307-47.223a1.08 1.08 0 0 0-1.045-1.357h-20.133c-.292 0-.557-.037-.762.172-.204.211-.294.343-.288.641l.049 1.924c.018.591.309.474.897.474.618 0 1.071.129 1.251.354.178.235.184.75.01 1.41l-11.222 43.06c-.407 1.555-1.354 2.311-2.893 2.311-.412 0-.496-.125-.68.24l-.81 1.608c-.167.337-.113.631.082.952.202.323.593.407.969.407h23.254c.495 0 .928-.332 1.051-.809l.275-1.044a1.086 1.086 0 0 0-1.053-1.354M329.489 177.183c-3.885-4.133-9.296-4.073-16.146-4l-2.95.021c-9.474 0-15.013 1.223-19.747 4.353-1.369.924-5.932 4.36-7.407 10.004-2.752 10.56 9.503 15.982 13.527 17.762l1.141.489c5.877 2.487 11.995 5.733 10.157 12.79-.896 3.444-4.938 5.298-8.292 5.298-2.409 0-4.16-.613-5.061-1.776-.771-.998-.804-2.263-.585-3.117.824-3.159.603-5.492-.67-7.144-2.32-3.005-7.863-3.243-14.867-3.243-.479 0-.892.307-1.037.759-.131.422-3.201 10.403 1.451 15.149 3.893 4.139 10.045 4.073 17.174 3.995l2.962-.019c9.819 0 16.225-1.343 20.771-4.352 1.374-.923 5.945-4.363 7.411-10.005 2.76-10.585-7.753-15.537-12.24-17.651l-1.221-.592-.719-.369c-3.539-1.822-11.831-6.078-9.938-13.33.556-2.122 3.32-4.4 6.554-4.4 2.14 0 3.584.469 4.291 1.38.763.988.595 2.458.319 3.516-.821 3.156-.602 5.494.672 7.144 2.32 3.005 7.862 3.243 14.869 3.243.471 0 .892-.307 1.033-.76.137-.421 3.205-10.401-1.452-15.145M270.976 223.903c-.576 0-1.029-.146-1.217-.391-.196-.248-.205-.736-.04-1.375l18.692-71.706a1.09 1.09 0 0 0-.19-.938 1.098 1.098 0 0 0-.858-.419h-19.967c-.489 0-.929.332-1.049.81-.146.574-.213.989-.213 1.304 0 .391.099.628.245.833.206.275.529.441.877.441.765 0 1.019.178 1.096.283.042.051.131.204.131.55 0 .223-.038.525-.143.935l-5.204 19.974c-2.132-.619-4.612-1.001-7.58-1.001-9.202 0-15.248.974-19.561 3.075-2.413-1.856-5.336-2.897-8.812-2.897-5.407 0-9.796 3.029-13.304 6.453.635-2.438 1.284-4.92 1.284-4.92l.032-.274a1.06 1.06 0 0 0-.227-.664 1.077 1.077 0 0 0-.857-.419h-20.138c-.494 0-.926.332-1.05.812-.311 1.194-.148 1.642.077 1.951.202.281.532.448.878.448.618 0 1.072.129 1.246.354.178.235.188.749.014 1.41l-11.226 43.06c-.407 1.555-1.352 2.311-2.89 2.311-.408 0-.482-.135-.668.231l-.828 1.62c-.17.337-.114.626.084.953.197.318.586.403.969.403h23.264c.495 0 .924-.332 1.049-.809l.272-1.044.035-.274c0-.236-.079-.47-.229-.661a1.077 1.077 0 0 0-.856-.419c-.62 0-1.073-.128-1.245-.355-.093-.121-.145-.32-.145-.569 0-.238.042-.522.126-.842 0 0 8.725-33.464 8.88-34.068 1.688-1.825 3.191-2.781 4.451-2.751 1.495.037 2.662 1.461 3.597 2.606l.214.256c3.122 3.787 8.357 5.771 13.022 4.936 3.23-.58 5.617-1.813 7.528-3.264-4.353 5.071-9.849 7.126-16.846 6.008a1.08 1.08 0 0 0-1.221.79l-.284 1.084-1.987 8.606c-1.982 7.598-3.184 12.199 1.371 16.808 2.854 2.839 10.428 5.066 20.336 3.253 2.462-.489 4.835-1.52 7.134-2.521 0 0 .664-.278 1.271-.526l-.625 2.401-.035.274c0 .237.078.469.229.664.203.264.521.418.854.418h20.143c.492 0 .925-.332 1.048-.809.316-1.218.136-1.669-.102-1.976a1.069 1.069 0 0 0-.852-.423m-25.473-39.681.461-.772c1.803-3.026 3.357-5.645 8.956-5.645 2.651 0 4.304.481 5.062 1.463 1.389 1.804.288 5.981-1.103 11.274l-5.023 19.244c-2.065 7.929-4.511 10.474-10.051 10.474-2.889 0-4.554-.49-5.396-1.584-1.089-1.406-1.085-4.138.009-8.343l4.62-17.711 1.778-7.096.687-1.304zm-51.212-9.582h-.138l-.273-.042c.146 0 .281.015.411.042M178.837 169.925c5.888 0 11.927-4.782 13.457-10.657.791-3.024.313-5.87-1.348-8.013-1.589-2.056-4.063-3.189-6.977-3.189-5.894 0-11.934 4.779-13.464 10.653-.786 3.024-.311 5.871 1.346 8.013 1.59 2.057 4.072 3.193 6.986 3.193"/><defs><path id="a" d="M30.11 131.623s-7.019 18.479 13.698 40.583c0 0 21.664 23.274 23.942 26.009 5.401 6.471 7.712 19.681-13.672 24.792 0 0-2.387.527-2.714 2.035-.326 1.473 1.075 1.856 1.901 1.708 9.259-.947 16.754-3.337 24.144-8.058 9.773-6.229 21.492-23.154 4.851-40.241 0 0-5.063-5.821-14.295-16.512-4.676-5.851-7.113-8.502-7.113-8.502-1.612-1.969-3.213-3.868-4.71-5.669-11.766-14.558-11.613-28.179 2.385-36.9 3.801-2.358 8.129-3.063 12.915-3.586 0 0 2.322-.238 3.073-1.841.66-1.468.01-2.504-1.661-2.575a43.448 43.448 0 0 0-1.541-.027c-14.366-.001-34.148 6.91-41.203 28.784"/></defs><clipPath id="b"><use xlink:href="#a" overflow="visible"/></clipPath><linearGradient id="c" x1="-1384.374" x2="-1383.374" y1="1457.5776" y2="1457.5776" gradientTransform="matrix(0 126.0146 126.0146 0 -183615.203 174551.61)" gradientUnits="userSpaceOnUse"><stop offset="0" style="stop-color:#e5ec26"/><stop offset="0.5674" style="stop-color:#e5ec26"/><stop offset="0.6064" style="stop-color:#e1e323"/><stop offset="0.6678" style="stop-color:#d6c81e"/><stop offset="0.7437" style="stop-color:#c5a017"/><stop offset="0.7753" style="stop-color:#bd8e14"/><stop offset="1" style="stop-color:#84600e"/></linearGradient><path fill="url(#c)" d="M23.092 102.838h75.811v124.06H23.092z" clip-path="url(#b)"/><defs><path id="d" d="M80.586 106.422c-2.001 2.985 4.296 7.24-.875 15.247-3.858 5.996-6.824 9.717-9.812 17.357-1.426 3.645-2.025 6.442-2.05 8.669 0 0-.307 6.364 6.314 7.464 1.47.093 14.457-.108 12.84-13.485-1.076-5.816-1.412-12.173 2.398-13.699 3.894-1.611 6.583.712 6.633 5.547.153 9.665 6.451 11.347 14.502 6.058 7.073-4.72 9.146-13.207 1.019-15.083-2.934-.69-4.421-.745-6.595-4.075-1.625-3.511 3.081-4.83 6.114-3.285 4.19 2.089 9.156-1.855 7.365-4.824-1.935-3.237-7.839-4.748-13.026-5.198-2.452-.201-4.599-.112-7.148-.024-1.472.051-3.077.103-4.952.097-4.148-.046-7.392-2.391-9.905-2.391-1.068-.001-2.004.423-2.822 1.625"/></defs><clipPath id="e"><use xlink:href="#d" overflow="visible"/></clipPath><linearGradient id="f" x1="-1384.374" x2="-1383.374" y1="1457.5728" y2="1457.5728" gradientTransform="matrix(0 126.0212 126.0212 0 -183591.25 174560.688)" gradientUnits="userSpaceOnUse"><stop offset="0" style="stop-color:#e5ec26"/><stop offset="0.5674" style="stop-color:#e5ec26"/><stop offset="0.6064" style="stop-color:#e1e323"/><stop offset="0.6678" style="stop-color:#d6c81e"/><stop offset="0.7437" style="stop-color:#c5a017"/><stop offset="0.7753" style="stop-color:#bd8e14"/><stop offset="1" style="stop-color:#84600e"/></linearGradient><path fill="url(#f)" d="M67.543 104.796h52.688v50.456H67.543z" clip-path="url(#e)"/><defs><path id="g" d="m114.652 210.06 5.118-19.625c1.943-7.457 4.51-11.278 11.099-11.278 5.905 0 9.055 1.903 6.615 11.278l-5.119 19.625c-2.853 10.931-4.802 14.405-13.31 14.405-8.505 0-6.892-4.856-4.403-14.405m-4.346-59.902s-.271 1.043-.315 1.22c1.217 0 3.03.349 2.311 3.122l-13.896 53.302c-2.083 7.981-2.813 11.455 1.309 15.62 2.698 2.955 10.16 3.644 18.494 3.644 8.158 0 16.718-.863 20.743-3.644 6.29-4.165 8.353-6.07 10.847-15.62l3.621-13.891c1.946-7.465 2.636-11.455-1.445-15.799-2.44-2.606-9.489-4.862-19.019-2.951-3.482.694-6.88 2.431-10.245 3.996l7.557-28.999h-19.962z"/></defs><clipPath id="h"><use xlink:href="#g" overflow="visible"/></clipPath><linearGradient id="i" x1="-1384.374" x2="-1383.374" y1="1457.5679" y2="1457.5679" gradientTransform="scale(126.0129) rotate(90 -1420.87 -35.7)" gradientUnits="userSpaceOnUse"><stop offset="0" style="stop-color:#e5ec26"/><stop offset="0.5674" style="stop-color:#e5ec26"/><stop offset="0.6064" style="stop-color:#e1e323"/><stop offset="0.6678" style="stop-color:#d6c81e"/><stop offset="0.7437" style="stop-color:#c5a017"/><stop offset="0.7753" style="stop-color:#bd8e14"/><stop offset="1" style="stop-color:#84600e"/></linearGradient><path fill="url(#i)" d="M95.592 150.158h60.463v76.908H95.592z" clip-path="url(#h)"/><defs><path id="j" d="M165.63 174.641s-.225.865-.102 1.044c1.388 0 2.994.518 2.313 3.121l-11.227 43.057c-.674 2.602-2.549 3.125-3.94 3.125-.211.173-.438 1.041-.438 1.041h23.255s.227-.868.271-1.041c-1.387 0-2.985-.523-2.312-3.125l12.313-47.222H165.63z"/></defs><clipPath id="k"><use xlink:href="#j" overflow="visible"/></clipPath><linearGradient id="l" x1="-1384.374" x2="-1383.374" y1="1457.5688" y2="1457.5688" gradientTransform="scale(126.0238) rotate(90 -1420.699 -35.53)" gradientUnits="userSpaceOnUse"><stop offset="0" style="stop-color:#e5ec26"/><stop offset="0.5674" style="stop-color:#e5ec26"/><stop offset="0.6064" style="stop-color:#e1e323"/><stop offset="0.6678" style="stop-color:#d6c81e"/><stop offset="0.7437" style="stop-color:#c5a017"/><stop offset="0.7753" style="stop-color:#bd8e14"/><stop offset="1" style="stop-color:#84600e"/></linearGradient><path fill="url(#l)" d="M152.235 174.641h33.528v51.388h-33.528z" clip-path="url(#k)"/><defs><path id="m" d="M310.393 174.292c-9.974 0-14.946 1.393-19.148 4.168-2.311 1.559-5.772 4.859-6.954 9.375-2.49 9.551 8.719 14.639 12.915 16.497 4.195 1.855 14.332 5.235 11.911 14.544-1.086 4.165-5.774 6.11-9.346 6.11-6.427 0-7.281-3.996-6.692-6.252 2.171-8.328-3.549-9.027-14.49-9.027 0 0-3.062 9.725 1.191 14.062 4.082 4.343 11.2 3.649 19.358 3.649 9.969 0 15.974-1.392 20.178-4.168 2.311-1.561 5.783-4.858 6.957-9.375 2.832-10.883-9.944-15.433-12.92-17.011-2.978-1.581-13.466-6.248-11.197-14.93.719-2.776 4.029-5.211 7.602-5.211 6.425 0 6.252 3.995 5.66 6.256-2.174 8.325 3.547 9.025 14.492 9.025 0 0 3.061-9.726-1.197-14.059-3.09-3.293-7.329-3.693-12.747-3.693-1.737-.001-3.594.04-5.573.04"/></defs><clipPath id="n"><use xlink:href="#m" overflow="visible"/></clipPath><linearGradient id="o" x1="-1384.374" x2="-1383.374" y1="1457.5688" y2="1457.5688" gradientTransform="matrix(0 126.0189 126.0189 0 -183376.86 174557.453)" gradientUnits="userSpaceOnUse"><stop offset="0" style="stop-color:#e5ec26"/><stop offset="0.5674" style="stop-color:#e5ec26"/><stop offset="0.6064" style="stop-color:#e1e323"/><stop offset="0.6678" style="stop-color:#d6c81e"/><stop offset="0.7437" style="stop-color:#c5a017"/><stop offset="0.7753" style="stop-color:#bd8e14"/><stop offset="1" style="stop-color:#84600e"/></linearGradient><path fill="url(#o)" d="M275.526 174.251h57.443v53.86h-57.443z" clip-path="url(#n)"/><defs><path id="p" d="M267.396 150.158s-.273 1.043-.14 1.22c1.208 0 2.857.349 2.133 3.122l-5.473 21.006c-2.224-.818-5.066-1.214-8.36-1.214-8.313 0-15.025.757-19.619 3.176-1.902-1.634-4.64-3.002-8.753-3.002-6.188 0-11.209 4.34-15.422 9.199l2.352-9.023h-20.139s-.223.865-.095 1.044c1.391 0 2.991.518 2.311 3.121l-11.226 43.057c-.677 2.602-2.553 3.125-3.939 3.125-.221.173-.444 1.041-.444 1.041h23.264s.229-.868.271-1.041c-1.389 0-2.99-.523-2.313-3.125l8.96-34.372c5.482-6.087 8.264-2.181 10.066 0 2.734 3.307 7.439 5.369 11.996 4.554 6.061-1.085 9.318-4.399 11.751-8.388 1.995-3.279 3.608-6.935 10.344-6.935 9.196 0 7.228 5.555 4.605 15.627l-4.618 17.711c-1.944 7.46-4.333 11.286-11.104 11.286-5.901 0-8.879-1.915-6.436-11.286l4.617-17.711c.239-.911.754-2.82.969-3.65-4.587 6.544-10.942 9.586-19.426 8.23-.092.357-.187.698-.282 1.077l-1.981 8.577c-1.951 7.469-3.039 11.634 1.088 15.803 2.612 2.602 9.894 4.68 19.366 2.95 3.485-.696 6.929-2.602 10.202-3.821l-1.179 4.514h20.143s.224-.868.09-1.041c-1.217 0-2.983-.523-2.308-3.125l18.695-71.705h-19.966z"/></defs><clipPath id="q"><use xlink:href="#p" overflow="visible"/></clipPath><linearGradient id="r" x1="-1384.374" x2="-1383.374" y1="1457.5679" y2="1457.5679" gradientTransform="scale(126.021) rotate(90 -1420.44 -35.271)" gradientUnits="userSpaceOnUse"><stop offset="0" style="stop-color:#e5ec26"/><stop offset="0.5674" style="stop-color:#e5ec26"/><stop offset="0.6064" style="stop-color:#e1e323"/><stop offset="0.6678" style="stop-color:#d6c81e"/><stop offset="0.7437" style="stop-color:#c5a017"/><stop offset="0.7753" style="stop-color:#bd8e14"/><stop offset="1" style="stop-color:#84600e"/></linearGradient><path fill="url(#r)" d="M180.581 150.158h106.781v76.908H180.581z" clip-path="url(#q)"/><defs><path id="s" d="M171.556 158.991c-1.418 5.438 1.84 9.849 7.281 9.849 5.434 0 10.989-4.411 12.406-9.849 1.421-5.434-1.841-9.84-7.273-9.84-5.439 0-10.998 4.406-12.414 9.84"/></defs><clipPath id="t"><use xlink:href="#s" overflow="visible"/></clipPath><linearGradient id="u" x1="-1384.374" x2="-1383.374" y1="1457.5688" y2="1457.5688" gradientTransform="scale(126.0238) rotate(90 -1420.65 -35.48)" gradientUnits="userSpaceOnUse"><stop offset="0" style="stop-color:#e5ec26"/><stop offset="0.5674" style="stop-color:#e5ec26"/><stop offset="0.6064" style="stop-color:#e1e323"/><stop offset="0.6678" style="stop-color:#d6c81e"/><stop offset="0.7437" style="stop-color:#c5a017"/><stop offset="0.7753" style="stop-color:#bd8e14"/><stop offset="1" style="stop-color:#84600e"/></linearGradient><path fill="url(#u)" d="M170.138 149.151h22.526v19.689h-22.526z" clip-path="url(#t)"/><path fill="#0A0A4F" d="M80.54 102.41c18.194-30.927 54.401-49.744 93.974-48.695a8.02 8.02 0 0 1-.236.961c-2.408 8.525-11.593 15.551-23.229 24.445-10.219 7.803-21.916 16.77-32.542 29.213 1.045.656 2.024 1.382 2.845 2.266 10.402-12.154 21.88-20.96 31.909-28.624 12.164-9.299 21.769-16.631 24.485-26.31.181-.615.305-1.201.442-1.805a121.01 121.01 0 0 1 21.221 3.127l-23.121 91.014a18.218 18.218 0 0 1 4.268-1.284l22.556-88.792c6.738 1.83 13.207 4.177 19.302 7.015-.18.631-.387 1.274-.528 1.95-2.246 9.81 2.699 20.846 8.944 34.828 8.127 18.174 18.117 40.551 16.925 70.145a93.752 93.752 0 0 1 3.638-.187c1.151-30.245-9.009-52.958-17.249-71.443-5.988-13.362-10.699-23.915-8.729-32.543.087-.394.195-.797.304-1.166 33.396 16.686 55.803 47.518 59.607 80.964h1.299c.787 0 1.541.187 2.254.477.016-.29.053-.583.069-.871-3.979-34.732-27.232-66.7-61.852-83.922 1.909-3.471 4.961-5.836 8.9-6.792 4.028-.999 9.427-.505 15.468 2.188a108.518 108.518 0 0 0-7.584-6.005c-3.038-.433-5.98-.394-8.739.288-5.068 1.243-8.954 4.277-11.325 8.74a125.157 125.157 0 0 0-19.815-7.171l4.734-18.626c-.624-.17-1.229-.362-1.858-.522-.612-.156-1.228-.273-1.842-.42l-4.733 18.625a126.214 126.214 0 0 0-21.723-3.216c.111-5.113-1.858-9.709-5.757-13.256-1.955-1.769-4.292-3.133-6.883-4.176-2.93.382-5.838.875-8.712 1.491 5.007.536 9.623 2.138 13.151 5.365 3.074 2.771 4.613 6.38 4.565 10.424-38.29-1.114-73.599 15.828-93.539 44.236a110.996 110.996 0 0 0-3.495 8.338c.155.16.326.298.469.474.71-.377 1.436-.595 2.162-.748"/><defs><path id="v" d="M203.998 54.421a124.998 124.998 0 0 1 19.815 7.172c2.371-4.464 6.258-7.498 11.324-8.741 2.76-.682 5.702-.721 8.74-.288-10.335-7.468-22.151-13.228-35.146-16.769l-4.733 18.626z"/></defs><clipPath id="w"><use xlink:href="#v" overflow="visible"/></clipPath><radialGradient id="x" cx="-1384.374" cy="1457.5688" r="1" gradientTransform="scale(98.9565 -98.9565) rotate(76.306 237.087 1610.807)" gradientUnits="userSpaceOnUse"><stop offset="0" style="stop-color:#fff"/><stop offset="0.0578" style="stop-color:#fdf8f3"/><stop offset="0.1515" style="stop-color:#f7e6d2"/><stop offset="0.2695" style="stop-color:#efc8a2"/><stop offset="0.4071" style="stop-color:#e49f68"/><stop offset="0.5593" style="stop-color:#d86e2d"/><stop offset="0.6629" style="stop-color:#cf4c0b"/><stop offset="0.8072" style="stop-color:#b8420a"/><stop offset="1" style="stop-color:#a13809"/></radialGradient><path fill="url(#x)" d="m198.064 60.147 8.169-33.525 43.579 10.619-8.169 33.525z" clip-path="url(#w)"/><defs><path id="y" d="M165.937 32.829c2.591 1.043 4.929 2.408 6.883 4.176 3.897 3.547 5.869 8.145 5.757 13.257a126.13 126.13 0 0 1 21.722 3.215l4.734-18.624a109.124 109.124 0 0 0-25.092-2.934c-4.717 0-9.392.309-14.004.91"/></defs><clipPath id="z"><use xlink:href="#y" overflow="visible"/></clipPath><radialGradient id="A" cx="-1384.374" cy="1457.5688" r="1" gradientTransform="scale(98.967 -98.967) rotate(76.306 237.087 1610.805)" gradientUnits="userSpaceOnUse"><stop offset="0" style="stop-color:#fff"/><stop offset="0.0578" style="stop-color:#fdf8f3"/><stop offset="0.1515" style="stop-color:#f7e6d2"/><stop offset="0.2695" style="stop-color:#efc8a2"/><stop offset="0.4071" style="stop-color:#e49f68"/><stop offset="0.5593" style="stop-color:#d86e2d"/><stop offset="0.6629" style="stop-color:#cf4c0b"/><stop offset="0.8072" style="stop-color:#b8420a"/><stop offset="1" style="stop-color:#a13809"/></radialGradient><path fill="url(#A)" d="m160.979 52.269 7.149-29.342 41.862 10.2-7.149 29.342z" clip-path="url(#z)"/><defs><path id="B" d="M81.403 94.346c19.938-28.408 55.248-45.35 93.539-44.236.047-4.044-1.492-7.653-4.566-10.424-3.529-3.227-8.145-4.829-13.152-5.365-32.702 7.01-61.127 28.892-75.821 60.025"/></defs><clipPath id="C"><use xlink:href="#B" overflow="visible"/></clipPath><radialGradient id="D" cx="-1384.374" cy="1457.5688" r="1" gradientTransform="scale(98.9569 -98.9569) rotate(76.306 237.086 1610.806)" gradientUnits="userSpaceOnUse"><stop offset="0" style="stop-color:#fff"/><stop offset="0.0578" style="stop-color:#fdf8f3"/><stop offset="0.1515" style="stop-color:#f7e6d2"/><stop offset="0.2695" style="stop-color:#efc8a2"/><stop offset="0.4071" style="stop-color:#e49f68"/><stop offset="0.5593" style="stop-color:#d86e2d"/><stop offset="0.6629" style="stop-color:#cf4c0b"/><stop offset="0.8072" style="stop-color:#b8420a"/><stop offset="1" style="stop-color:#a13809"/></radialGradient><path fill="url(#D)" d="m67.597 90.982 19.05-78.187 102.148 24.89-19.051 78.187z" clip-path="url(#C)"/><defs><path id="E" d="M80.541 102.409c3.139-.667 6.243.433 7.946 1.052 1.476.539 2.862 1.046 4.104 1.061l5.041-.107 7.559.056c4.261.367 9.407 1.398 13.314 3.863 10.627-12.443 22.324-21.41 32.543-29.214 11.637-8.893 20.822-15.92 23.229-24.445.097-.307.18-.642.235-.96a117.993 117.993 0 0 0-3.144-.042c-38.339-.002-73.116 18.63-90.827 48.736"/></defs><clipPath id="F"><use xlink:href="#E" overflow="visible"/></clipPath><radialGradient id="G" cx="-1384.374" cy="1457.5688" r="1" gradientTransform="scale(98.9678 -98.9678) rotate(76.306 237.086 1610.806)" gradientUnits="userSpaceOnUse"><stop offset="0" style="stop-color:#fff"/><stop offset="0.0578" style="stop-color:#fdf8f3"/><stop offset="0.1515" style="stop-color:#f7e6d2"/><stop offset="0.2695" style="stop-color:#efc8a2"/><stop offset="0.4071" style="stop-color:#e49f68"/><stop offset="0.5593" style="stop-color:#d86e2d"/><stop offset="0.6629" style="stop-color:#cf4c0b"/><stop offset="0.8072" style="stop-color:#b8420a"/><stop offset="1" style="stop-color:#a13809"/></radialGradient><path fill="url(#G)" d="m67.968 105.271 17.84-73.214 101.278 24.677-17.84 73.214z" clip-path="url(#F)"/><g fill="#0A0A4F"><path d="m117.584 103.118-5.817-5.357c-.291-.269-.483-.352-.811-.359-.221-.017-.287-.186-.171-.312l1.377-1.496 6.684 6.154-1.262 1.37zM120.057 100.41l-5.561-5.629c-.278-.282-.466-.374-.793-.396-.22-.028-.271-.209-.156-.321l1.405-1.388 5.315 1.514 1.839.577-1.466-1.321-3.194-3.232 1.315-1.3 6.39 6.466-1.301 1.284-5.431-1.581-1.723-.575 1.489 1.362 3.194 3.234-1.322 1.306zM124.018 85.669c-1.282 1.135-.979 2.734.373 4.261 1.483 1.675 3.028 1.939 4.251.857.623-.553 1.066-1.241 1.283-2.304l.903.383c.392.166.118 1.7-1.368 3.017-2.111 1.869-4.549 1.476-6.479-.705-1.901-2.146-2.021-4.608.038-6.431.838-.742 1.661-1.207 2.563-1.445l.951 1.073c.154.174.072.34-.166.364-.87.07-1.614.279-2.349.93M132.226 77.397l5.729 7.056-1.444 1.174-2.533-3.121-2.578 2.096 2.535 3.12-1.444 1.174-4.988-6.142c-.25-.308-.427-.418-.75-.471-.216-.05-.249-.234-.124-.335l1.576-1.281 2.321 2.858 2.577-2.096-2.32-2.858 1.443-1.174zM139.269 83.441l-4.845-6.255c-.243-.314-.418-.428-.74-.489-.215-.054-.242-.239-.116-.337l4.341-3.362.835 1.078-2.735 2.118 1.527 1.971 2.481-1.922.834 1.078-2.48 1.922 1.541 1.99 2.933-2.272.828 1.069-4.404 3.411zM148.587 70.549c1.738 2.265 1.646 4.806-.691 6.601-2.345 1.802-4.815 1.229-6.555-1.036-1.74-2.265-1.649-4.79.697-6.592 2.337-1.795 4.808-1.239 6.549 1.027m-5.779 4.438c1.35 1.757 2.936 2.097 4.257 1.081 1.314-1.008 1.395-2.629.045-4.385-1.349-1.757-2.935-2.097-4.249-1.089-1.322 1.016-1.402 2.636-.053 4.393M152.39 73.373l-5.056-6.082c-.253-.305-.433-.413-.755-.462-.217-.047-.251-.231-.129-.333l1.519-1.263 5.165 1.962 1.78.73-1.345-1.44-2.904-3.494 1.422-1.183 5.808 6.987-1.404 1.168-5.273-2.038-1.667-.719 1.367 1.484 2.904 3.493-1.432 1.19z"/></g><defs><path id="H" d="M177.745 55.665c-2.717 9.68-12.322 17.012-24.485 26.312-10.03 7.663-21.508 16.47-31.91 28.623a11.288 11.288 0 0 1 1.462 1.934 8.478 8.478 0 0 1 1.237 4.405c0 2.228-.877 4.463-2.58 6.312a9.314 9.314 0 0 1-1.095.986c-.436.32-.889.614-1.354.883l.031.033-.35.227c1.629 1.58 2.718 3.584 3.146 5.91.124.701.188 1.41.188 2.127 0 4.392-2.382 8.958-6.493 12.534-.526.442-1.063.872-1.64 1.278h.017l-.339.261h15.95c1.847 0 3.592.856 4.725 2.321a5.962 5.962 0 0 1 1.049 5.153s-2.428 9.329-4.628 17.76l.363-.115c10.294-2.064 19.933-.209 24.543 4.719 2.629 2.799 3.91 5.63 4.388 8.476.075-.289.139-.533.206-.802.039.18.084.36.109.539.172-.642.328-1.243.47-1.784-.265-.387-.475-.883-.577-1.662l-.74-5.922a5.814 5.814 0 0 1-.054-.737c0-1.167.477-1.75 1.421-2.829l.22-.198c1.064-.707 2.406-.436 3.865-.436h1.648l-.142-.259h.464c-1.984-3.18-2.546-7.181-1.501-11.186 1.05-4.021 3.594-7.587 6.876-10.16a20.21 20.21 0 0 1 4.052-2.366l23.121-91.013a121.033 121.033 0 0 0-21.223-3.127c-.136.603-.259 1.188-.44 1.803"/></defs><clipPath id="I"><use xlink:href="#H" overflow="visible"/></clipPath><radialGradient id="J" cx="-1384.374" cy="1457.5688" r="1" gradientTransform="scale(98.948 -98.948) rotate(76.306 237.087 1610.807)" gradientUnits="userSpaceOnUse"><stop offset="0" style="stop-color:#fff"/><stop offset="0.0578" style="stop-color:#fdf8f3"/><stop offset="0.1515" style="stop-color:#f7e6d2"/><stop offset="0.2695" style="stop-color:#efc8a2"/><stop offset="0.4071" style="stop-color:#e49f68"/><stop offset="0.5593" style="stop-color:#d86e2d"/><stop offset="0.6629" style="stop-color:#cf4c0b"/><stop offset="0.8072" style="stop-color:#b8420a"/><stop offset="1" style="stop-color:#a13809"/></radialGradient><path fill="url(#J)" d="M83.233 178.408 118.391 34.12l111.366 27.135-35.158 144.289z" clip-path="url(#I)"/><defs><path id="K" d="M180.554 146.718c.885-.148 1.78-.234 2.676-.234 4.389 0 8.347 1.856 10.845 5.088 2.565 3.316 3.366 7.774 2.209 12.225-.839 3.216-2.629 6.136-4.987 8.503a5.969 5.969 0 0 1 1.941-.328h20.137c1.646 0 3.144.763 4.266 1.948 2.622-1.278 5.547-2.12 8.806-2.12 3.506 0 6.64.788 9.399 2.268 3.233-1.141 7.113-1.859 11.908-2.205 1.192-29.594-8.798-51.97-16.925-70.145-6.245-13.981-11.191-25.017-8.944-34.827.142-.676.35-1.32.529-1.95-6.095-2.838-12.565-5.185-19.303-7.015l-22.557 88.792z"/></defs><clipPath id="L"><use xlink:href="#K" overflow="visible"/></clipPath><radialGradient id="M" cx="-1384.374" cy="1457.5688" r="1" gradientTransform="scale(98.9667 -98.9667) rotate(76.306 237.087 1610.807)" gradientUnits="userSpaceOnUse"><stop offset="0" style="stop-color:#fff"/><stop offset="0.0578" style="stop-color:#fdf8f3"/><stop offset="0.1515" style="stop-color:#f7e6d2"/><stop offset="0.2695" style="stop-color:#efc8a2"/><stop offset="0.4071" style="stop-color:#e49f68"/><stop offset="0.5593" style="stop-color:#d86e2d"/><stop offset="0.6629" style="stop-color:#cf4c0b"/><stop offset="0.8072" style="stop-color:#b8420a"/><stop offset="1" style="stop-color:#a13809"/></radialGradient><path fill="url(#M)" d="m153.841 167.559 30.546-125.363 91.271 22.239-30.546 125.363z" clip-path="url(#L)"/><defs><path id="N" d="M225.412 67.691c-1.969 8.628 2.741 19.181 8.729 32.543 8.239 18.485 18.401 41.198 17.248 71.443a116.8 116.8 0 0 1 3.426-.054c1.431 0 2.705.15 3.992.281l.074-.284.248.021 3.444-13.228c-.164-.178-.406-.265-.548-.461-.927-1.266-1.194-2.604-1.194-3.753 0-1.087.239-2.004.374-2.509a5.93 5.93 0 0 1 1.916-3.03 5.953 5.953 0 0 1 3.535-1.172h18.667c-3.806-33.446-26.213-64.279-59.608-80.964-.107.37-.216.773-.303 1.167"/></defs><clipPath id="O"><use xlink:href="#N" overflow="visible"/></clipPath><radialGradient id="P" cx="-1384.374" cy="1457.5688" r="1" gradientTransform="scale(98.96 -98.96) rotate(76.306 237.086 1610.806)" gradientUnits="userSpaceOnUse"><stop offset="0" style="stop-color:#fff"/><stop offset="0.0578" style="stop-color:#fdf8f3"/><stop offset="0.1515" style="stop-color:#f7e6d2"/><stop offset="0.2695" style="stop-color:#efc8a2"/><stop offset="0.4071" style="stop-color:#e49f68"/><stop offset="0.5593" style="stop-color:#d86e2d"/><stop offset="0.6629" style="stop-color:#cf4c0b"/><stop offset="0.8072" style="stop-color:#b8420a"/><stop offset="1" style="stop-color:#a13809"/></radialGradient><path fill="url(#P)" d="m199.205 165.998 27.706-113.706 82.651 20.139-27.707 113.706z" clip-path="url(#O)"/><defs><path id="Q" d="M235.995 56.381c-3.94.955-6.991 3.321-8.901 6.792 34.618 17.221 57.872 49.189 61.853 83.922 1.942-34.151-12.396-66.748-37.485-88.526-4.159-1.854-8.013-2.666-11.324-2.666-1.5 0-2.888.166-4.143.478"/></defs><clipPath id="R"><use xlink:href="#Q" overflow="visible"/></clipPath><radialGradient id="S" cx="-1384.374" cy="1457.5688" r="1" gradientTransform="scale(98.9626 -98.9626) rotate(76.306 237.087 1610.806)" gradientUnits="userSpaceOnUse"><stop offset="0" style="stop-color:#fff"/><stop offset="0.0578" style="stop-color:#fdf8f3"/><stop offset="0.1515" style="stop-color:#f7e6d2"/><stop offset="0.2695" style="stop-color:#efc8a2"/><stop offset="0.4071" style="stop-color:#e49f68"/><stop offset="0.5593" style="stop-color:#d86e2d"/><stop offset="0.6629" style="stop-color:#cf4c0b"/><stop offset="0.8072" style="stop-color:#b8420a"/><stop offset="1" style="stop-color:#a13809"/></radialGradient><path fill="url(#S)" d="m206.119 141.984 24.55-100.755 81.194 19.785-24.55 100.754z" clip-path="url(#R)"/><path fill="#0A0A4F" d="M320.749 232.185c.374-.216.764-.422 1.118-.657 1.767-1.19 7.538-5.548 9.443-12.847.418-1.609.628-3.169.628-4.676 0-4.826-2.383-9.069-6.651-12.818 1.275.035 2.517.088 3.88.088a5.974 5.974 0 0 0 5.694-4.177c.692-2.194 3.808-13.478-2.625-20.035-5.278-5.617-12.274-5.539-19.686-5.457l-2.897.02c-10.532 0-16.822 1.447-22.438 5.161-.163.108-.393.276-.621.44l5.805-22.26a5.994 5.994 0 0 0-1.052-5.158 5.972 5.972 0 0 0-4.725-2.317h-19.966a5.943 5.943 0 0 0-3.533 1.172 5.92 5.92 0 0 0-1.919 3.027c-.134.506-.372 1.421-.372 2.509 0 1.148.268 2.489 1.194 3.751.146.198.383.289.552.463l-3.448 13.23c-.08-.009-.164-.016-.245-.024-.024.093-.052.192-.075.286-1.293-.133-2.562-.28-3.994-.28-8.276 0-14.283.794-18.971 2.442-2.756-1.48-5.89-2.268-9.4-2.268-3.256 0-6.18.845-8.804 2.119-1.121-1.181-2.618-1.944-4.263-1.944h-20.141c-.675 0-1.327.117-1.939.324 2.355-2.365 4.148-5.29 4.985-8.499 1.16-4.454.356-8.91-2.209-12.228-2.493-3.232-6.448-5.087-10.843-5.087-3.908 0-7.782 1.47-10.992 3.883-3.283 2.573-5.828 6.139-6.875 10.16-1.045 4.002-.486 8.005 1.5 11.185.059.092.098.178.151.262h-2.122c-1.457 0-2.801-.271-3.868.435-.069.067-.147.12-.213.197-.953 1.078-1.425 1.66-1.425 2.827 0 .225.019.467.052.739l1.053 6.773c.045.272.183 1.318.089 1.676-.148.569-.739.466-.83.105-.601-2.483-1.865-4.956-4.164-7.398-4.614-4.928-14.25-6.782-24.543-4.717-.127.024-.238.081-.361.111 2.195-8.43 4.627-17.756 4.627-17.756a5.962 5.962 0 0 0-1.054-5.155 5.96 5.96 0 0 0-4.72-2.32h-15.951c.121-.081.221-.177.338-.262h-.017a24.259 24.259 0 0 0 1.64-1.277c4.113-3.579 6.494-8.145 6.494-12.536 0-.715-.062-1.426-.19-2.128-.427-2.324-1.513-4.324-3.145-5.905.122-.071.232-.157.353-.232l-.033-.031c.466-.269.916-.564 1.354-.883a9.78 9.78 0 0 0 1.096-.987c1.704-1.847 2.58-4.086 2.58-6.31a8.509 8.509 0 0 0-1.238-4.409c-3.403-5.689-11.464-7.525-17.621-8.057l-7.557-.058-5.044.107c-1.241-.016-2.629-.521-4.102-1.058-2.097-.768-6.326-2.304-10.112-.305-1.391-1.758-3.507-2.849-6.007-2.957-17.375-.606-40.485 7.631-48.646 32.826-.267.736-1.449 4.312-1.449 9.993 0 8.708 2.867 22.084 16.446 36.567 8.646 9.29 22.113 23.831 23.708 25.748 1.172 1.407 2.308 3.583 2.308 5.76 0 .594-.087 1.188-.279 1.769-1.08 3.256-5.517 5.966-12.5 7.637-.613.135-1.26.352-1.895.625-1.85-1.961-4.597-2.951-5.881-3.411a53.277 53.277 0 0 1-1.944-.727c2.271-1.791 3.977-3.39 5.269-4.632l.373-.36c1.521-1.454 4.693-4.493 4.693-8.204 0-.879-.177-1.794-.598-2.736-2.082-4.68-7.408-4.283-9.16-4.154-2.985.241-5.476.534-7.562.821l1.825-5.847c.356-1.423.533-2.732.533-3.921 0-2.837-1.02-5.004-3.051-6.456-2.87-2.056-6.413-1.749-10.52.915-1.618 1.087-3.114 2.324-4.467 3.545a664.393 664.393 0 0 0-.471-2.401c-.682-3.979-1.454-8.491-6.018-9.532-2.454-.488-4.768.083-6.672 1.585C1.367 179.6.252 189.96.033 195.784c-.229 6.022.498 17.483 7.954 26.528 5.722 6.932 14.193 11.041 25.188 12.211 2.409.264 8.366.633 12.931-1.2L35.02 277.648h283.727l-32.555-26.404 34.557-19.059zM71.845 124.967c-2.879 4.339-5.604 8.443-8.241 15.192-1.264 3.236-2.019 6.087-2.31 8.658l-1.293-1.555c-5.379-6.659-7.798-12.876-6.948-17.917.647-3.844 3.304-7.248 7.896-10.108 2.587-1.606 5.776-2.218 10.405-2.718a10.713 10.713 0 0 0 3.071-.81l.009.033c.382 1.133.671 1.988.671 2.863 0 .909-.31 1.841-1.142 3.13l-2.118 3.232zm23.671 70.739c-.827-5.291-3.39-11.541-9.525-17.914l-11.571-13.37c2.765-.086 9.144-.828 13.637-5.587 2.056-2.179 4.313-5.882 4.315-11.648 1.178 1.549 2.528 2.597 3.79 3.266 1.561.823 4.176 1.688 7.748 1.178-.036.114-.088.217-.117.335l-.315 1.215a5.79 5.79 0 0 0-.183 1.443c0 1.313.444 2.61 1.259 3.676.157.207.405.303.59.487-1.686 6.455-6.314 24.218-9.628 36.919"/><path fill="#FFF" d="m68.794 161.23-7.133-8.526-2.947-3.549-1.733-2.078c-6.322-7.826-9.096-15.383-8.007-21.844.89-5.286 4.299-9.808 10.13-13.443 3.739-2.316 8.205-2.964 12.458-3.428.295-.028 2.954-.359 3.938-2.458.478-1.055.472-2.055-.004-2.824-.48-.784-1.402-1.247-2.597-1.296-15.647-.549-36.51 6.85-43.815 29.505-.278.731-7 19.317 13.941 41.659.21.232 21.666 23.282 23.897 25.962 2.406 2.885 4.436 7.601 2.911 12.193-1.654 4.992-7.188 8.743-16 10.847-.296.067-3.061.735-3.524 2.864-.193.873.003 1.668.551 2.245.74.764 1.853.888 2.59.758 9.641-.992 17.213-3.523 24.547-8.208 5.573-3.553 12.47-11.052 13.565-20.486.101-.877.152-1.752.152-2.624 0-6.571-2.909-12.884-8.676-18.802L68.794 161.23z"/><path fill="#FFF" d="M45.244 205.173c2.187-2.095 3.175-3.524 3.175-4.664 0-.268-.054-.526-.162-.765-.603-1.354-2.44-1.41-4.337-1.269-5.751.459-9.642 1.132-12.22 1.578l-2.579.359c.113-1.122.976-3.672 1.71-5.823l2.251-7.208c.204-.818.406-1.789.406-2.698 0-1.017-.253-1.957-1.023-2.514-1.458-1.038-3.563.099-5.026 1.043-2.724 1.836-5.276 4.376-7.139 6.232a44.252 44.252 0 0 1-1.802 1.713c-1.021-1.304-1.901-3.159-2.655-5.995l-.81-4.078c-.585-3.402-.904-5.278-2.292-5.592-.911-.185-1.785.044-2.561.654-2.974 2.349-4.298 10.367-4.529 16.521-.204 5.329.416 15.441 6.845 23.236 4.876 5.911 12.256 9.432 21.935 10.465 5.769.625 12.362-.13 13.205-3.267a2.72 2.72 0 0 0 .096-.693c0-1.796-2.17-2.576-4.454-3.395-2.665-.954-6.176-2.319-8.861-5.346 5.22-3.186 8.258-6.028 10.448-8.133l.379-.361zM99.182 142.833c2.994 1.586 7.24.751 11.951-2.344 4.683-3.123 7.353-7.79 6.653-11.625-.499-2.721-2.621-4.647-5.979-5.424l-.769-.174c-2.357-.534-3.429-.776-5.167-3.435-.374-.839-.078-1.291.187-1.544.8-.771 2.906-1.008 4.529-.18 3.008 1.497 6.319.397 8.033-1.464 1.379-1.499 1.669-3.369.752-4.888-2.57-4.3-10.549-5.432-13.86-5.718l-6.968-.042-5.222.111c-2.12-.026-4.06-.73-5.767-1.354-2.813-1.028-5.72-2.089-7.864 1.059a3.491 3.491 0 0 0-.595 1.99c0 .994.348 2.02.703 3.081.433 1.277.915 2.714.915 4.403 0 1.66-.465 3.561-1.909 5.797l-2.153 3.282c-2.853 4.298-5.314 8.01-7.763 14.27-1.405 3.592-2.099 6.553-2.123 9.05a4.794 4.794 0 0 0-.006.271c0 2.618 1.477 7.322 7.226 8.275.179.021 7.057.398 11.256-4.049 2.428-2.573 3.384-6.152 2.843-10.639-1.363-7.352-.777-11.553 1.722-12.557.969-.397 2.329-.721 3.413-.006 1.093.727 1.708 2.341 1.732 4.555.094 5.886 2.351 8.304 4.23 9.299M152.768 177.37c-2.768-2.955-10.216-5.242-20.026-3.27-2.884.575-5.679 1.841-8.4 3.112.989-3.783 6.983-26.78 6.983-26.78a1.084 1.084 0 0 0-.195-.935 1.07 1.07 0 0 0-.856-.422h-19.962c-.499 0-.93.333-1.052.813l-.319 1.22a1.08 1.08 0 0 0 .193.934c.205.269.522.421.858.421.642 0 1.084.12 1.257.341.18.232.181.75.003 1.425L97.357 207.53c-2.001 7.682-3.104 11.912 1.59 16.656 2.495 2.731 8.446 3.967 19.264 3.967 7.215 0 16.771-.664 21.36-3.838 6.323-4.185 8.647-6.152 11.278-16.238l3.622-13.889c1.957-7.501 2.841-11.98-1.703-16.818m-33.707 46.012c-2.492 0-4.039-.437-4.729-1.33-.41-.532-.585-1.289-.585-2.245 0-1.997.752-4.863 1.677-8.396l.283-1.077 5.115-19.626c2.044-7.823 4.578-10.465 10.052-10.465 2.945 0 4.651.502 5.526 1.638 1.107 1.428 1.115 4.135.036 8.281l-5.116 19.626c-2.835 10.861-4.572 13.594-12.259 13.594M175.764 223.903c-.618 0-1.066-.129-1.243-.352-.184-.24-.189-.75-.016-1.414l12.312-47.223a1.086 1.086 0 0 0-1.051-1.357H165.63c-.291 0-.55-.034-.759.178-.203.205-.296.34-.288.635l.049 1.929c.018.586.311.469.896.469.619 0 1.076.131 1.25.358.178.234.186.748.014 1.406l-11.224 43.058c-.403 1.557-1.354 2.313-2.894 2.313-.409 0-.498-.125-.681.24l-.81 1.608c-.167.34-.111.631.089.953.198.319.586.409.962.409h23.258c.494 0 .927-.335 1.051-.812l.272-1.044a1.09 1.09 0 0 0-.192-.935 1.086 1.086 0 0 0-.859-.419M329.489 177.183c-3.88-4.131-9.296-4.071-16.148-3.997l-2.948.018c-9.477 0-15.009 1.223-19.747 4.356-1.369.921-5.932 4.359-7.406 10.004-2.751 10.558 9.505 15.979 13.526 17.759l1.142.487c5.879 2.492 11.997 5.738 10.156 12.792-.896 3.441-4.938 5.301-8.291 5.301-2.413 0-4.159-.616-5.059-1.779-.773-.995-.81-2.263-.586-3.114.822-3.158.603-5.495-.675-7.147-2.319-3.005-7.862-3.243-14.862-3.243-.475 0-.896.307-1.036.759-.134.422-3.202 10.407 1.452 15.146 3.889 4.139 10.046 4.076 17.173 3.998l2.959-.019c9.817 0 16.225-1.343 20.773-4.352 1.374-.923 5.94-4.36 7.41-10.005 2.759-10.583-7.754-15.537-12.241-17.651l-1.221-.592-.715-.369c-3.543-1.82-11.832-6.076-9.942-13.33.554-2.122 3.321-4.397 6.556-4.397 2.143 0 3.58.466 4.291 1.379.763.986.595 2.456.317 3.517-.822 3.153-.602 5.494.672 7.141 2.32 3.005 7.865 3.246 14.871 3.246.47 0 .89-.31 1.031-.762.135-.419 3.205-10.4-1.452-15.146M270.976 223.903c-.573 0-1.028-.144-1.217-.391-.19-.248-.208-.739-.041-1.375l18.693-71.706a1.083 1.083 0 0 0-1.049-1.357h-19.964c-.494 0-.926.334-1.05.81-.151.575-.212.99-.212 1.307 0 .391.096.628.246.83.203.278.525.441.873.441.771 0 1.021.178 1.103.283.039.051.126.208.126.55 0 .223-.036.529-.141.933 0 0-4.12 15.808-5.209 19.978-2.127-.623-4.607-1.003-7.579-1.003-9.203 0-15.241.974-19.557 3.075-2.418-1.851-5.339-2.896-8.813-2.896-5.41 0-9.798 3.028-13.302 6.452.637-2.438 1.283-4.92 1.283-4.92a1.093 1.093 0 0 0-.195-.935 1.083 1.083 0 0 0-.858-.422h-20.137a1.08 1.08 0 0 0-1.05.812c-.314 1.194-.147 1.644.075 1.954.205.279.531.445.879.445.616 0 1.07.131 1.245.354.181.238.186.75.015 1.41l-11.225 43.058c-.407 1.557-1.352 2.313-2.89 2.313-.409 0-.482-.135-.668.231l-.829 1.62c-.174.337-.11.628.084.953.195.322.59.406.969.406h23.262c.496 0 .926-.335 1.052-.812l.271-1.044a1.074 1.074 0 0 0-.191-.935 1.099 1.099 0 0 0-.862-.419c-.614 0-1.069-.129-1.245-.355-.096-.121-.141-.318-.141-.568 0-.239.042-.523.126-.843 0 0 8.725-33.461 8.88-34.068 1.688-1.826 3.191-2.781 4.451-2.751 1.493.037 2.659 1.461 3.598 2.606l.213.256c3.121 3.787 8.354 5.771 13.022 4.936 3.23-.58 5.617-1.811 7.527-3.263-4.352 5.072-9.85 7.122-16.845 6.007a1.081 1.081 0 0 0-1.221.79l-.281 1.084-1.994 8.606c-1.981 7.598-3.183 12.202 1.378 16.808 2.849 2.839 10.429 5.066 20.335 3.253 2.458-.487 4.833-1.52 7.129-2.521 0 0 .667-.277 1.273-.526-.311 1.196-.628 2.401-.628 2.401a1.097 1.097 0 0 0 .193.938c.208.264.523.421.859.421h20.141c.493 0 .923-.335 1.048-.812.318-1.218.139-1.669-.102-1.979a1.07 1.07 0 0 0-.853-.42m-25.473-39.678.461-.775c1.805-3.025 3.356-5.641 8.957-5.641 2.649 0 4.309.481 5.063 1.465 1.389 1.799.287 5.979-1.105 11.272l-5.023 19.243c-2.065 7.927-4.508 10.469-10.05 10.469-2.886 0-4.55-.487-5.396-1.578-1.09-1.409-1.09-4.141.013-8.346l4.618-17.71 1.778-7.097.684-1.302zm-51.215-9.585h-.136c-.082-.021-.159-.042-.271-.042.147 0 .284.017.407.042M178.84 169.925c5.891 0 11.927-4.779 13.458-10.657.789-3.021.31-5.87-1.347-8.01-1.588-2.059-4.068-3.189-6.981-3.189-5.891 0-11.931 4.776-13.465 10.654-.784 3.021-.305 5.867 1.352 8.01 1.587 2.059 4.068 3.192 6.983 3.192"/><defs><path id="T" d="M30.117 131.623s-7.022 18.481 13.698 40.586c0 0 21.662 23.271 23.941 26.008 5.401 6.469 7.711 19.679-13.671 24.79 0 0-2.388.527-2.718 2.035-.328 1.473 1.076 1.855 1.902 1.708 9.26-.949 16.752-3.337 24.143-8.058 9.771-6.227 21.496-23.152 4.848-40.241 0 0-5.057-5.818-14.291-16.508-4.675-5.855-7.109-8.506-7.109-8.506-1.62-1.969-3.219-3.865-4.715-5.666-11.76-14.556-11.61-28.179 2.385-36.901 3.805-2.36 8.129-3.065 12.914-3.585 0 0 2.32-.238 3.074-1.843.659-1.467.01-2.503-1.662-2.576a45.452 45.452 0 0 0-1.532-.026c-14.364 0-34.153 6.905-41.207 28.783"/></defs><clipPath id="U"><use xlink:href="#T" overflow="visible"/></clipPath><linearGradient id="V" x1="-1384.3745" x2="-1383.3745" y1="1457.5786" y2="1457.5786" gradientTransform="matrix(0 124.6122 124.6122 0 -181571 172612.75)" gradientUnits="userSpaceOnUse"><stop offset="0" style="stop-color:#e5ec26"/><stop offset="0.5337" style="stop-color:#e5ec26"/><stop offset="0.6118" style="stop-color:#d9cf1f"/><stop offset="0.7697" style="stop-color:#bd8e14"/><stop offset="1" style="stop-color:#966d0f"/></linearGradient><path fill="url(#V)" d="M23.095 102.84h75.814v124.057H23.095z" clip-path="url(#U)"/><defs><path id="W" d="M6.736 192.706c-.288 7.582 1.383 16.182 6.597 22.508 5.663 6.862 13.898 9.294 21.213 10.075 5.832.631 11.46-.302 12.041-2.468.814-3.025-8.592-2.217-13.85-9.373 6.212-3.613 9.406-6.808 11.756-9.061 4.64-4.44 2.947-5.086-.491-4.831-9.204.736-13.635 2.032-15.456 2.018-1.943-.01 1.818-7.849 3.487-14.455 1.354-5.404-1.234-4.791-4.006-2.996-4.835 3.258-9.275 8.996-9.854 8.46-1.26-1.311-2.387-3.396-3.379-7.142-.947-3.644-1.23-8.648-2.29-8.892a1.86 1.86 0 0 0-.368-.037c-3.23-.001-5.119 8.684-5.4 16.194"/></defs><clipPath id="X"><use xlink:href="#W" overflow="visible"/></clipPath><linearGradient id="Y" x1="-1384.374" x2="-1383.374" y1="1457.5747" y2="1457.5747" gradientTransform="matrix(0 124.6168 124.6168 0 -181610.547 172619.125)" gradientUnits="userSpaceOnUse"><stop offset="0" style="stop-color:#e5ec26"/><stop offset="0.5337" style="stop-color:#e5ec26"/><stop offset="0.6118" style="stop-color:#d9cf1f"/><stop offset="0.7697" style="stop-color:#bd8e14"/><stop offset="1" style="stop-color:#966d0f"/></linearGradient><path fill="url(#Y)" d="M6.448 176.511h42.685v49.409H6.448z" clip-path="url(#X)"/><defs><path id="Z" d="M80.59 106.422c-1.996 2.988 4.298 7.24-.875 15.248-3.853 5.995-6.822 9.714-9.812 17.356-1.426 3.645-2.029 6.445-2.052 8.67 0 0-.303 6.366 6.314 7.463 1.474.097 14.46-.105 12.842-13.489-1.079-5.809-1.414-12.169 2.397-13.695 3.894-1.607 6.58.714 6.633 5.547.154 9.667 6.453 11.349 14.499 6.06 7.081-4.719 9.147-13.207 1.024-15.085-2.937-.69-4.425-.742-6.597-4.075-1.626-3.511 3.077-4.827 6.115-3.281 4.19 2.086 9.155-1.859 7.366-4.825-1.938-3.237-7.84-4.749-13.028-5.198-2.463-.203-4.62-.114-7.185-.024-1.463.05-3.057.102-4.913.098-4.15-.049-7.396-2.393-9.909-2.393-1.066-.001-2.001.422-2.819 1.623"/></defs><clipPath id="aa"><use xlink:href="#Z" overflow="visible"/></clipPath><linearGradient id="ab" x1="-1384.374" x2="-1383.374" y1="1457.5728" y2="1457.5728" gradientTransform="scale(124.6136) rotate(90 -1421.009 -35.81)" gradientUnits="userSpaceOnUse"><stop offset="0" style="stop-color:#e5ec26"/><stop offset="0.5337" style="stop-color:#e5ec26"/><stop offset="0.6118" style="stop-color:#d9cf1f"/><stop offset="0.7697" style="stop-color:#bd8e14"/><stop offset="1" style="stop-color:#966d0f"/></linearGradient><path fill="url(#ab)" d="M67.549 104.798h52.687v50.458H67.549z" clip-path="url(#aa)"/><defs><path id="ac" d="m114.656 210.062 5.116-19.625c1.944-7.459 4.509-11.279 11.101-11.279 5.903 0 9.054 1.905 6.613 11.279l-5.121 19.625c-2.85 10.932-4.796 14.403-13.304 14.403-8.503 0-6.895-4.856-4.405-14.403m-4.344-59.904s-.272 1.046-.319 1.22c1.218 0 3.036.352 2.311 3.126l-13.896 53.299c-2.078 7.98-2.814 11.454 1.313 15.621 2.699 2.953 10.16 3.644 18.491 3.644 8.161 0 16.72-.863 20.744-3.644 6.289-4.167 8.354-6.072 10.844-15.621l3.623-13.892c1.945-7.465 2.636-11.455-1.446-15.796-2.438-2.609-9.49-4.866-19.018-2.953-3.481.693-6.88 2.432-10.244 3.996l7.561-29h-19.964z"/></defs><clipPath id="ad"><use xlink:href="#ac" overflow="visible"/></clipPath><linearGradient id="ae" x1="-1384.374" x2="-1383.374" y1="1457.5688" y2="1457.5688" gradientTransform="scale(124.6169) rotate(90 -1420.88 -35.68)" gradientUnits="userSpaceOnUse"><stop offset="0" style="stop-color:#e5ec26"/><stop offset="0.5337" style="stop-color:#e5ec26"/><stop offset="0.6118" style="stop-color:#d9cf1f"/><stop offset="0.7697" style="stop-color:#bd8e14"/><stop offset="1" style="stop-color:#966d0f"/></linearGradient><path fill="url(#ae)" d="M95.593 150.158h60.465v76.91H95.593z" clip-path="url(#ad)"/><defs><path id="af" d="M165.63 174.641s-.224.865-.102 1.043c1.391 0 2.989.522 2.313 3.124l-11.225 43.055c-.677 2.602-2.552 3.124-3.942 3.124-.212.174-.439 1.038-.439 1.038h23.257s.23-.864.271-1.038c-1.388 0-2.985-.522-2.309-3.124l12.31-47.222H165.63z"/></defs><clipPath id="ag"><use xlink:href="#af" overflow="visible"/></clipPath><linearGradient id="ah" x1="-1384.374" x2="-1383.374" y1="1457.5688" y2="1457.5688" gradientTransform="matrix(0 124.6143 124.6143 0 -181464.938 172615.656)" gradientUnits="userSpaceOnUse"><stop offset="0" style="stop-color:#e5ec26"/><stop offset="0.5337" style="stop-color:#e5ec26"/><stop offset="0.6118" style="stop-color:#d9cf1f"/><stop offset="0.7697" style="stop-color:#bd8e14"/><stop offset="1" style="stop-color:#966d0f"/></linearGradient><path fill="url(#ah)" d="M152.235 174.641h33.528v51.384h-33.528z" clip-path="url(#ag)"/><defs><path id="ai" d="M310.393 174.292c-9.971 0-14.944 1.392-19.145 4.172-2.313 1.558-5.783 4.855-6.958 9.371-2.489 9.551 8.722 14.639 12.918 16.497 4.194 1.855 14.333 5.235 11.908 14.544-1.086 4.165-5.774 6.111-9.344 6.111-6.427 0-7.283-3.993-6.694-6.253 2.173-8.331-3.549-9.029-14.488-9.029 0 0-3.063 9.729 1.19 14.063 4.081 4.346 11.199 3.652 19.357 3.652 9.972 0 15.977-1.395 20.178-4.171 2.312-1.559 5.779-4.859 6.957-9.372 2.839-10.883-9.94-15.433-12.923-17.014-2.977-1.581-13.461-6.246-11.196-14.931.726-2.774 4.035-5.21 7.604-5.21 6.426 0 6.249 3.999 5.659 6.256-2.17 8.325 3.55 9.025 14.493 9.025 0 0 3.056-9.726-1.194-14.059-3.093-3.293-7.336-3.692-12.759-3.693-1.733 0-3.587.041-5.563.041"/></defs><clipPath id="aj"><use xlink:href="#ai" overflow="visible"/></clipPath><linearGradient id="ak" x1="-1384.374" x2="-1383.374" y1="1457.5679" y2="1457.5679" gradientTransform="matrix(0 124.6139 124.6139 0 -181329.14 172615.078)" gradientUnits="userSpaceOnUse"><stop offset="0" style="stop-color:#e5ec26"/><stop offset="0.5337" style="stop-color:#e5ec26"/><stop offset="0.6118" style="stop-color:#d9cf1f"/><stop offset="0.7697" style="stop-color:#bd8e14"/><stop offset="1" style="stop-color:#966d0f"/></linearGradient><path fill="url(#ak)" d="M275.526 174.251h57.439v53.863h-57.439z" clip-path="url(#aj)"/><defs><path id="al" d="M267.397 150.158s-.269 1.046-.143 1.22c1.211 0 2.861.352 2.138 3.126l-5.475 21.002c-2.222-.816-5.067-1.214-8.363-1.214-8.312 0-15.021.76-19.62 3.176-1.899-1.631-4.638-2.998-8.748-2.998-6.19 0-11.205 4.338-15.423 9.196l2.352-9.025h-20.138s-.226.865-.096 1.043c1.391 0 2.987.522 2.311 3.124l-11.225 43.055c-.68 2.602-2.554 3.124-3.94 3.124-.22.174-.444 1.038-.444 1.038h23.262s.229-.864.271-1.038c-1.388 0-2.99-.522-2.312-3.124l8.959-34.372c5.484-6.087 8.271-2.178 10.069 0 2.729 3.312 7.44 5.372 11.995 4.554 6.059-1.085 9.32-4.401 11.751-8.388 1.996-3.279 3.61-6.935 10.342-6.935 9.198 0 7.23 5.555 4.607 15.625l-4.62 17.715c-1.944 7.455-4.333 11.284-11.102 11.284-5.902 0-8.881-1.912-6.435-11.284l4.617-17.715c.236-.909.754-2.818.969-3.648-4.588 6.544-10.943 9.586-19.426 8.23-.097.355-.187.698-.285 1.077l-1.981 8.577c-1.947 7.469-3.033 11.634 1.088 15.803 2.618 2.601 9.894 4.682 19.371 2.946 3.479-.691 6.928-2.598 10.197-3.814l-1.175 4.508h20.139s.226-.864.09-1.038c-1.217 0-2.983-.522-2.305-3.124l18.692-71.705h-19.964z"/></defs><clipPath id="am"><use xlink:href="#al" overflow="visible"/></clipPath><linearGradient id="an" x1="-1384.374" x2="-1383.374" y1="1457.5698" y2="1457.5698" gradientTransform="matrix(0 124.6123 124.6123 0 -181397.063 172612.781)" gradientUnits="userSpaceOnUse"><stop offset="0" style="stop-color:#e5ec26"/><stop offset="0.5337" style="stop-color:#e5ec26"/><stop offset="0.6118" style="stop-color:#d9cf1f"/><stop offset="0.7697" style="stop-color:#bd8e14"/><stop offset="1" style="stop-color:#966d0f"/></linearGradient><path fill="url(#an)" d="M180.583 150.158h106.779v76.91H180.583z" clip-path="url(#am)"/><defs><path id="ao" d="M171.557 158.994c-1.414 5.435 1.844 9.847 7.283 9.847 5.435 0 10.988-4.412 12.409-9.847 1.415-5.434-1.847-9.841-7.279-9.841-5.439 0-10.996 4.407-12.413 9.841"/></defs><clipPath id="ap"><use xlink:href="#ao" overflow="visible"/></clipPath><linearGradient id="aq" x1="-1384.374" x2="-1383.374" y1="1457.5688" y2="1457.5688" gradientTransform="matrix(0 124.6284 124.6284 0 -181473.125 172635.11)" gradientUnits="userSpaceOnUse"><stop offset="0" style="stop-color:#e5ec26"/><stop offset="0.5337" style="stop-color:#e5ec26"/><stop offset="0.6118" style="stop-color:#d9cf1f"/><stop offset="0.7697" style="stop-color:#bd8e14"/><stop offset="1" style="stop-color:#966d0f"/></linearGradient><path fill="url(#aq)" d="M170.143 149.153h22.521v19.688h-22.521z" clip-path="url(#ap)"/><path fill="#0A0A4F" d="M83.53 43.077c-.493-.329-.896-.385-1.25-.414-.367-.017-.481-.291-.307-.455l2.259-2.098 6.171 4.55 2.025 1.625-1.361-2.169-3.608-6.598 1.743-1.62 6.294 4.078 2.064 1.517-1.463-2.077-4.087-6.534 2.133-1.982 7.063 12.049-2.146 1.994-6.209-4.038-1.755-1.233 1.102 1.864 3.55 6.484-2.146 1.994-10.072-6.937zM112.526 26.175c2.447 3.515 2.13 7.315-1.498 9.841-3.641 2.536-7.302 1.506-9.748-2.009-2.448-3.515-2.135-7.291 1.507-9.827 3.627-2.526 7.291-1.52 9.739 1.995m-8.969 6.246c1.898 2.726 4.251 3.346 6.304 1.917 2.037-1.42 2.272-3.842.373-6.567-1.897-2.726-4.25-3.346-6.287-1.927-2.054 1.43-2.288 3.851-.39 6.577M126.22 25.873l-1.927.975-6.036-5.783-1.105-1.126.771 1.413 3.78 7.474-2.386 1.206-5.444-10.766c-.22-.397-.454-.593-.864-.758-.302-.141-.289-.422-.075-.53l3.304-1.671 7.569 7.183-1.301-10.354 3.074-1.554 6.154 12.17-2.385 1.206-3.78-7.474-.681-1.458.25 1.558 1.082 8.289zM135.563 22.307l-4.029-11.168c-.202-.559-.4-.804-.83-1.039-.283-.176-.237-.453-.011-.535l7.75-2.795.694 1.924-4.883 1.761 1.271 3.52 4.431-1.598.695 1.924-4.433 1.598 1.282 3.553 5.237-1.889.688 1.908-7.862 2.836zM146.69 18.443l-2.784-11.537c-.14-.578-.31-.843-.712-1.124-.261-.206-.185-.477.048-.532l2.88-.695 5.655 6.063 1.914 2.164-.859-2.831-1.599-6.627 2.696-.65 3.198 13.254-2.664.642-5.75-6.238-1.769-2.073.859 2.903 1.6 6.627-2.713.654zM159.117 5.824c.565-1 .62-1.944.442-3.172l-.195-1.368c-.063-.432.087-.595.477-.651l1.883-.271.191 1.332c.214 1.488-.1 2.911-.804 3.913-.474.686-.887.939-1.137.765l-.857-.548zM168.76 11.369c1.077.774 2.732 1.197 3.86 1.128 1.385-.086 2.185-.748 2.112-1.917-.056-.907-.45-1.461-1.614-1.967-1.341-.6-2.427-.954-3.471-1.747-.938-.748-1.631-1.686-1.72-3.134-.125-2.024 1.428-3.539 4.163-3.707 1.504-.093 2.784.073 3.995.523l.133 2.146c.02.315-.265.437-.518.243-1.008-.761-2.022-1.084-3.15-1.014-1.213.074-1.862.692-1.804 1.635.043.68.311 1.136.777 1.475.899.663 1.991 1.121 2.959 1.517 1.831.745 2.937 1.692 3.067 3.821.164 2.652-1.974 3.887-4.776 4.06-2.068.128-4.746-.723-4.458-1.616l.445-1.446zM189.05.306l4.688.446c2.796.266 4.445 1.74 4.245 3.846-.126 1.323-.73 2.249-1.776 2.763 1.328.672 2.066 1.778 1.895 3.588-.244 2.558-2.398 3.687-5.45 3.397l-4.637-.441 1.125-11.817c.056-.592-.019-.897-.308-1.293-.181-.281-.02-.512.218-.489m6.201 10.213c.138-1.444-.588-2.145-2.189-2.298l-1.688-.16-.397 4.176 1.705.163c1.601.152 2.429-.419 2.569-1.881m-3.693-4.39 1.466.14c1.279.121 2.024-.299 2.148-1.605.126-1.322-.527-1.876-1.856-2.003l-1.416-.134-.342 3.602zM206.462 4.816c.422-.68.447-1.139.328-1.575-.139-.421-.008-.627.444-.532l2.499.522 2.24 14.398-2.734-.57-.548-3.99-4.058-.847-2.086 3.44-2.716-.567 6.631-10.279zm-.698 5.517 2.633.55-.524-4.11-2.109 3.56zM215.563 15.703c.718 1.116 2.104 2.117 3.179 2.466 1.32.429 2.307.105 2.669-1.008.281-.865.117-1.524-.78-2.422-1.026-1.051-1.907-1.777-2.588-2.899-.599-1.04-.898-2.166-.451-3.546.627-1.929 2.629-2.768 5.234-1.921 1.434.465 2.564 1.09 3.526 1.953l-.664 2.045c-.097.299-.407.309-.57.036-.659-1.078-1.485-1.751-2.56-2.1-1.156-.375-1.987-.038-2.278.86-.211.648-.128 1.171.182 1.657.594.946 1.441 1.773 2.197 2.496 1.429 1.365 2.11 2.652 1.451 4.68-.821 2.527-3.263 2.892-5.935 2.025-1.972-.64-4.15-2.414-3.555-3.139l.943-1.183zM226.182 22.38l4.837-10.836c.242-.542.27-.856.121-1.323-.08-.323.145-.491.363-.393l2.786 1.242-2.315 5.186 6.454-3.321 2.896 1.291-6.765 3.509 1.56 9.077-2.724-1.215-1.157-6.697c-.119-.57-.254-.859-.645-1.034l-.282-.125-2.578 5.777-2.551-1.138zM238.652 28.239l5.938-10.277c.298-.515.357-.824.26-1.304-.047-.33.193-.474.402-.353l7.13 4.126-1.023 1.771-4.492-2.6-1.871 3.239 4.076 2.36-1.022 1.771-4.077-2.36-1.89 3.27 4.818 2.788-1.015 1.756-7.234-4.187zM256.169 22.836l7.897 5.681-1.224 1.703-2.809-2.02-6.732 9.366-2.267-1.631 6.734-9.366-2.823-2.03zM267.521 31.286l3.522 3.126c2.103 1.864 2.564 4.027 1.16 5.608-.882.993-1.916 1.384-3.064 1.182.678 1.326.621 2.655-.586 4.014-1.704 1.921-4.111 1.561-6.404-.474l-3.486-3.092 7.878-8.874c.396-.444.516-.735.517-1.225.019-.334.285-.426.463-.265m-1.015 11.902c.964-1.085.792-2.078-.413-3.147l-1.269-1.125-2.784 3.136 1.281 1.137c1.205 1.068 2.21 1.097 3.185-.001m-.394-5.724 1.102.978c.961.852 1.812.953 2.682-.027.882-.994.681-1.826-.318-2.713l-1.063-.943-2.403 2.705zM278.914 45.195c.742-.3 1.033-.655 1.194-1.077.136-.423.361-.512.672-.169l1.71 1.895-6.672 12.95-1.871-2.072 1.908-3.546-2.779-3.077-3.709 1.55-1.859-2.06 11.406-4.394zm-3.811 4.044 1.802 1.996 1.998-3.628-3.8 1.632zM290.281 55.45l-9.315 6.799 3.082 4.22-1.693 1.236-4.729-6.475 9.583-6.995c.479-.35.66-.608.764-1.087.091-.321.368-.354.511-.161l1.797 2.463zM296.989 65.408l-9.881 5.956 2.698 4.474-1.796 1.083-4.14-6.865 10.164-6.127c.509-.307.711-.549.856-1.017.118-.311.399-.321.522-.115l1.577 2.611zM304.674 79.689l3.724 8.988-1.937.803-1.325-3.197-10.657 4.416-1.07-2.579 10.658-4.416-1.331-3.213zM296.867 97.015l11.356-3.44c.567-.172.822-.356 1.08-.774.19-.273.465-.213.534.017l2.39 7.884-1.957.593-1.505-4.967-3.579 1.084 1.367 4.508-1.959.593-1.365-4.508-3.612 1.095 1.614 5.327-1.94.588-2.424-8zM311.966 109.457c.789.13 1.224-.022 1.58-.299.335-.29.575-.248.661.206l.476 2.509-12.436 7.582-.52-2.744 3.474-2.034-.772-4.075-3.975-.609-.516-2.728 12.028 2.192zm-5.36 1.465.501 2.643 3.594-2.057-4.095-.586zM303.693 130.403l-.121-2.155 7.714-3.207 1.475-.561-1.602.14-8.358.463-.149-2.668 12.039-.667c.452-.043.726-.178 1.041-.487.25-.22.502-.096.516.143l.207 3.694-9.61 4.05 10.001 2.963.191 3.437-13.607.754-.15-2.668 8.357-.463 1.607-.038-1.526-.395-8.025-2.335z"/><path fill="#FFF" d="M62.251 258.61c1.496 1.222 3.865 1.985 5.51 1.985 2.021 0 3.242-.891 3.242-2.595 0-1.324-.523-2.163-2.169-3.003-1.895-.992-3.44-1.603-4.887-2.85-1.297-1.17-2.219-2.596-2.219-4.708 0-2.952 2.393-5.013 6.382-5.013 2.193 0 4.04.356 5.76 1.12v3.129c0 .459-.424.612-.773.306-1.396-1.196-2.842-1.756-4.487-1.756-1.771 0-2.769.84-2.769 2.214 0 .993.351 1.68.998 2.214 1.246 1.043 2.793 1.807 4.164 2.468 2.594 1.247 4.113 2.723 4.113 5.828 0 3.868-3.216 5.471-7.304 5.471-3.018 0-6.832-1.476-6.334-2.748l.773-2.062zM94.313 242.986v19.849h-4.064v-8.779h-7.256v8.779H78.93v-17.28c0-.865-.15-1.297-.625-1.831-.299-.382-.1-.738.25-.738h4.438v8.041h7.256v-8.041h4.064zM99.995 262.834v-17.279c0-.865-.149-1.297-.625-1.831-.298-.382-.123-.739.25-.739h4.438v19.849h-4.063zM109.468 262.834v-17.279c0-.865-.149-1.297-.624-1.831-.299-.382-.099-.739.25-.739h4.313l5.934 10.51 1.971 3.715-.249-4.3v-9.925h4.038v19.849h-3.989l-6.009-10.789-1.795-3.538.225 4.403v9.924h-4.065zM145.418 242.986v19.849h-4.063v-8.779h-7.256v8.779h-4.064v-17.28c0-.865-.149-1.297-.623-1.831-.3-.382-.1-.738.25-.738h4.438v8.041h7.256v-8.041h4.062zM155.362 246.218c.399-1.095.299-1.756 0-2.341-.323-.56-.198-.891.475-.891h3.715l7.479 19.849h-4.063l-1.97-5.522h-6.033l-1.946 5.522h-4.038l6.381-16.617zm.65 8.066h3.914l-1.97-5.699-1.944 5.699zM170.395 262.834v-17.279c0-.865-.148-1.297-.623-1.831-.299-.382-.099-.739.25-.739h4.313l5.934 10.51 1.969 3.715-.248-4.3v-9.925h4.039v19.849h-3.989l-6.009-10.789-1.795-3.538.225 4.403v9.924h-4.066zM199.313 242.986h6.856c4.089 0 6.681 1.908 6.681 4.987 0 1.933-.747 3.36-2.192 4.25 2.019.788 3.24 2.29 3.24 4.936 0 3.742-2.967 5.675-7.43 5.675h-6.782v-17.279c0-.865-.148-1.297-.623-1.831-.299-.382-.099-.738.25-.738m4.438 8.093h2.143c1.871 0 2.894-.713 2.894-2.622 0-1.933-1.022-2.646-2.968-2.646h-2.068v5.268zm5.958 5.852c0-2.113-1.147-3.029-3.49-3.029h-2.468v6.108h2.492c2.345 0 3.466-.942 3.466-3.079M222.298 246.218c.398-1.095.3-1.756 0-2.341-.323-.56-.199-.891.475-.891h3.714l7.48 19.849h-4.064l-1.97-5.522h-6.034l-1.944 5.522h-4.039l6.382-16.617zm.648 8.066h3.914l-1.969-5.699-1.945 5.699zM237.33 262.834v-17.279c0-.865-.149-1.297-.623-1.831-.3-.382-.1-.739.25-.739h4.312l5.936 10.51 1.969 3.715-.249-4.3v-9.925h4.04v19.849h-3.99l-6.009-10.789-1.795-3.538.225 4.403v9.924h-4.066zM257.872 262.834v-17.279c0-.865-.149-1.297-.623-1.831-.299-.382-.1-.739.25-.739h4.438v8.271l6.607-8.245h4.612l-6.907 8.678 7.456 11.145h-4.339l-5.51-8.22c-.499-.687-.848-.992-1.471-.992h-.449v9.212h-4.064z"/></svg>