<svg xmlns="http://www.w3.org/2000/svg" width="1326.979248046875px" height="870.46875px" x="0px" y="0px" style="enable-background:new 0 0 336 235.2" viewBox="0 0 1326.979248046875 870.46875"><defs><clipPath id="a" clipPathUnits="userSpaceOnUse"><path d="M0 560h960V0H0Z"/></clipPath></defs><path fill="none" d="M0 0h1326.98v870.469H0z" style="fill:#060823;fill-opacity:0;pointer-events:none"/><g clip-path="url(#a)" transform="matrix(3.782 0 0 -3.782 -1175.773 1521.662)"><path d="M0 0v61.779h-32.651V48.918a27.123 27.123 0 0 1-4.145 4.681c-9.166 8.18-20.358 8.18-29.355 8.18h-41.674s-6.126-8.478-9.326-12.927v12.927h-32.676v-14.87c-2.642 8.038-6.434 16.802-11.746 23.663.552 7.672 4.718 11.942 6.067 13.09 3.592 3.139 4.601 7.026 5.135 9.211.289.285.679.656 1.061.924.12.089.144.123.212.167 16.33 12.849 23.595 24.786 23.893 25.371l.838 1.363.841 1.349-.23 1.656-.151 1.654c-.296 1.918-1.596 7.266-8.096 17.194a20.568 20.568 0 0 1 6.314 18.82c-.984 5.391-3.999 10.089-8.537 13.251-4.517 3.139-9.964 4.324-15.414 3.382-5.415-1.024-10.109-4.045-13.249-8.571a20.24 20.24 0 0 1-3.35-15.408 20.037 20.037 0 0 1 1.354-4.463c.198-1.812.781-3.427 1.198-4.548 1.247-3.065 3.557-5.174 6.9-6.289 1.172-3.336 3.038-7.479 4.763-11.145-1.07-1.051-2.14-2.15-3.184-3.193-.128.314-.238.709-.356 1.093l-.076.125-.044.151-.068.094-.085.152c-1.808 4.099-4.684 8.983-10.489 10.602-5.839 1.62-10.814-1.096-14.92-3.93-6.453-4.422-7.054-10.746-7.334-13.707-.059-.62-.144-1.324-.205-1.611-.069-.053-.194-.206-.485-.389l-5.151-3.865-5.201-3.854 3.005-2.178c-8.267-2.604-15.33-7.785-16.161-8.371l-.271-.22-.279-.221-.256-.221-.246-.264c-4.838-4.921-5.406-12.861-5.68-22.687 0-.186-.006-.362-.006-.561-.848-.379-1.179-.788-2.114-1.767-2.809-3.053-3.598-7.08-3.123-10.979h-16.541s-3.632-14.512-5.586-22.424l-5.396 22.424h-24.91s-3.609-14.752-5.585-22.771l-5.618 22.771h-34.069l27.312-93.566h25.318s3.453 13.76 4.997 20.037l4.941-20.037h18.511c-2.019-3.244-2.334-6.523-.868-9.637 1.615-3.507 4.713-5.367 9.108-5.595l.299-.044c7.901-.465 14.867 6.752 18.34 11.071l.271.338.281.422.203.359.238.381c.704 1.374 3.099 5.406 5.441 7.664 5.686 5.467 11.566 12.689 17.475 21.353 1.444.526 3.131.96 5.092 1.327 19.987 3.992 30.476 11.531 35.672 16.939v-44.578h32.676v13.055l9.286-13.055h46.968c10.523 0 18.825 2.072 24.655 6.191 1.179.787 2.375 1.762 3.591 2.844v-9.035h56.702V0z" style="fill:#b4b4b5;fill-opacity:1;fill-rule:nonzero;stroke:none" transform="translate(635.464 221.51)"/><path d="M0 0h-2.268v10.287H.314c4.039 0 8.895-.912 8.895-5.219C9.209 3.561 9.209 0 0 0m-2.268 39.406h1.029c6.066 0 6.066-2.324 6.066-3.377 0-1.41 0-3.365-7.095-3.365zm-23.246-50.714-23.45 31.585 23.45 30.588zM73.499 0H55.37v61.75H32.124V9.1c-.791 5.134-3.107 10.682-8.716 14.795 3.089 3.554 4.683 8.073 4.683 13.423 0 6.283-3.107 13.184-7.945 17.468C12.33 61.75 2.58 61.75-6.069 61.75h-12.288.023H-45.323l-1.426-1.889-14.998-20.835V61.75h-23.261v-84.113h23.261V.672l14.981-21.082 1.443-1.953h26.802-.007H-.815c9.554 0 16.915 1.789 21.956 5.296 4.488 3.165 9.651 8.639 10.983 17.263v-22.559h46.085V0Z" style="fill:#fff;fill-opacity:1;fill-rule:nonzero;stroke:none" transform="translate(575.382 216.799)"/><path d="M0 0c.032 10.602 5.871 16.535 7.739 18.205 2.589 2.201 3.26 5.076 3.701 6.979.092.348.188.795.263.984.313.543 1.527 1.676 2.537 2.393l.051.033.036.064c15.693 12.32 22.498 23.539 22.796 24.016l.831 1.399-.205 1.656c-.167 1.103-1.313 6.849-9.895 18.943 5.925 3.15 9.448 9.869 8.182 16.822a15.892 15.892 0 0 1-6.594 10.256c-3.489 2.424-7.707 3.311-11.883 2.598-4.216-.795-7.816-3.119-10.271-6.604-2.399-3.478-3.309-7.673-2.56-11.885a15.78 15.78 0 0 1 1.348-4.15c.041-1.384.518-2.781.96-3.973 1.23-3.064 4.064-3.632 5.304-3.939.246-.033.567-.119.712-.127.05-.084.291-.381.56-1.238 1.357-4.336 4.5-10.898 6.477-14.92-4.354-3.862-9.285-9.474-11.628-12.182-.398-.066-.807-.15-1.229-.207.737 3.01.302 6.558-.866 9.648l-.07.157-.042.105c-1.52 3.345-3.598 6.907-7.494 8.003-3.979 1.13-7.631-.925-11.007-3.225-4.643-3.223-5.025-7.481-5.306-10.312-.246-2.478-.389-3.702-2.546-5.365l-5.193-3.856 3.198-2.245c-1.568-.904-3.242-2.164-5.042-3.976h-.041c-8.344-2.127-16.091-7.915-16.432-8.143l-.27-.246-.273-.213c-3.624-3.67-4.09-10.711-4.312-19.52-.024-1.121-.049-2.412-.119-3.337a25.49 25.49 0 0 0-1.73-.975l-.866-.34-.644-.705c-3.234-3.505-1.953-9.318-.263-12.557H-71.26l-.891-3.509-8.479-33.983-8.148 33.899-.866 3.593h-17.508l-.868-3.572-8.402-34.039-8.436 34.039-.874 3.572h-24.128l1.774-6.007 21.829-74.698.985-3.408h18.12l.891 3.596 7.809 31.313 7.688-31.313.907-3.596h18.209l.999 3.408 21.736 74.698.637 2.269c1.229-.449 2.335-.435 2.927-.322 1.919.348 4.407 1.723 5.145 6.559.093.553.686 1.13.849 1.252h-.087c4.856 3.169 6.384 13.985 6.782 22.138 4.82 1.08 8.81 2.514 11.756 3.873.992-5.908.814-12.816-3.481-15.508-10.512-6.697-11.313-15.976-11.253-19.121-3.039-11.888-.993-26.002-.044-31.246-2.01-2.814-6.228-8.852-10.212-14.111-2.636-3.55-3.774-7.383-4.895-11.08-1.13-3.788-2.087-7.142-4.643-9.873-.033-.037-.066-.037-.091-.086-.103-.025-.248-.025-.358-.025-3.582-.356-6.432-1.867-8.852-8.149-2.64-6.861-4.786-9.742-5.789-11.119-.78-1.041-2.368-3.181-1.126-5.922 1.287-2.658 3.961-2.844 5.151-2.886h.261c6.045-.356 12.071 6.333 14.362 9.265l.305.351.211.391c.018.061 2.947 5.58 6.374 8.914 5.739 5.495 11.696 12.82 17.705 21.801 1.918.863 4.352 1.554 7.215 2.106C8.35-62.898 15.964-49.779 16.719-48.279l.715 1.336-.224 1.486C17.033-44.203 12.907-15.361 0 0" style="fill:#fff;fill-opacity:1;fill-rule:nonzero;stroke:none" transform="translate(469.121 290.527)"/><path d="m0 0-13.046-52.188h-.202L-25.743 0h-10.15l-12.798-52.188h-.212L-61.82 0h-14.141l21.812-74.723h10.89l12.322 49.353h.229l12.129-49.353h10.991L14.139 0Z" style="fill:#004097;fill-opacity:1;fill-rule:nonzero;stroke:none" transform="translate(401.537 273.886)"/><path d="m0 0-23.331-32.319h-.223V0h-13.834v-74.723h13.834v32.786h.223L0-74.723h16.25l-28.184 37.96L16.25 0Z" style="fill:#004097;fill-opacity:1;fill-rule:nonzero;stroke:none" transform="translate(532.462 273.886)"/><path d="M0 0h-6.979v19.637H.314c12.103 0 13.588-6.905 13.588-9.897C13.902 0 2.714 0 0 0m-6.979 48.807h5.74c7.942 0 10.761-3.696 10.761-8.106 0-8.093-8.692-8.093-11.916-8.093h-4.585zm21.897-21.04c2.378 1.281 8.454 4.841 8.454 14.223 0 5.14-2.631 10.637-6.365 13.989-6.451 5.72-14.751 5.72-23.076 5.72h-14.725v-74.663H-.815c4.836 0 13.614.526 19.274 4.438 4.54 3.227 9.269 8.819 9.269 17.753 0 12.578-7.842 16.722-12.81 18.54" style="fill:#004097;fill-opacity:1;fill-rule:nonzero;stroke:none" transform="translate(575.382 212.127)"/><path d="M0 0c-11.96-2.664-19.078-11.941-22.229-13.748-.992-.582-1.909-1.104-2.826-1.49 4.168 4.713 5.977 7.599 5.977 7.599s5.896 4.66 7.324 29.752C-6.704 9.146 0 0 0 0m6.009 66.973c2.249 1.961 1.985 5.119 2.962 6.79 1.026 1.793 3.837 3.801 3.837 3.801 15.14 11.929 21.617 22.789 21.617 22.789s-.85 6.542-13.166 22.377c.833-.029 1.648 0 2.471.184 6.078 1.065 10.142 6.885 9.012 12.957-1.093 6.108-6.899 10.187-12.992 9.076-6.094-1.122-10.117-6.968-9.005-13.004.246-1.544.824-2.877 1.587-4.086-.306-.458-.237-1.38.449-3.162.79-1.965 4.787.473 6.698-5.601 1.891-6.112 7.875-17.595 7.875-17.595-5.447-3.77-15.15-15.462-15.15-15.462-3.379.059-9.692-2.539-9.692-2.539-2.385 1.367-1.196 4.66-1.196 4.66 5.118 2.02 1.995 10.201 1.995 10.201-2.946 6.571-5.491 6.967-11.509 2.801-5.992-4.115-.358-10.049-7.707-15.538 4.287-3.05 9.47.745 9.47.745s1.045 1.279-.246-4.447c-6.465-1.613-9.743.032-15.801-5.977-.255-.222-.688-.802-.663-.925-.194 0-.459-.037-.841-.1-7.748-1.824-15.439-7.543-15.439-7.543-3.988-4.05-2.325-20.767-3.496-22.139-1.145-1.31-4.091-2.654-4.091-2.654-2.581-2.742 2.353-13.725 3.532-6.154.424 2.846 2.756 4.424 2.756 4.424 4.552 3.019 4.849 22.269 4.849 22.269 12.034 1.81 19.501 6.849 19.501 6.849.739-2.318 6.062-20.027-4.13-26.455-10.192-6.452-9.024-15.609-9.024-15.609-3.82-13.818.212-31.81.212-31.81s-5.948-8.581-11.408-15.904c-4.76-6.324-3.836-14.736-9.901-21.322-3.285-3.571-5.29 1.241-8.354-6.729-5.397-14.022-9.25-13.352-5.601-13.601 4.226-.216 10.414 7.571 10.414 7.571s3.252 6.217 7.272 10.071c6.783 6.516 13.004 14.923 17.784 22.194 2.298 1.107 5.37 2.147 9.52 2.935C7.4-13.342 13.928-.858 13.928-.858S9.735 29.4-3.336 43.396c-.662 13.219 6.442 21.04 9.345 23.577" style="fill:#d95096;fill-opacity:1;fill-rule:nonzero;stroke:none" transform="translate(467.754 245.291)"/><path d="M0 0v61.759h-13.859v-74.723h36.675V0Z" style="fill:#004097;fill-opacity:1;fill-rule:nonzero;stroke:none" transform="translate(626.064 212.127)"/></g></svg>