<svg xmlns="http://www.w3.org/2000/svg" width="698.82416" height="524.54926" x="0px" y="0px" viewBox="0 0 698.82416 524.54926"><path fill="none" d="M-8.359-9.442h718.94v545.585H-8.36z" style="fill:#04021b;fill-opacity:0"/><defs><linearGradient id="b" x1="0" x2="1" y1="0" y2="0" gradientTransform="scale(179.3138 -179.3138)rotate(-65 .038 -2.475)" gradientUnits="userSpaceOnUse" spreadMethod="pad"><stop offset="0" style="stop-opacity:1;stop-color:#000001"/><stop offset="0.5" style="stop-opacity:1;stop-color:#000001"/><stop offset="0.55500289" style="stop-opacity:1;stop-color:#000001"/><stop offset="0.9" style="stop-opacity:1;stop-color:#008dd0"/><stop offset="1" style="stop-opacity:1;stop-color:#008dd0"/></linearGradient><linearGradient id="d" x1="0" x2="1" y1="0" y2="0" gradientTransform="scale(24.20383 -24.20383)rotate(90 15.71 1.43)" gradientUnits="userSpaceOnUse" spreadMethod="pad"><stop offset="0" style="stop-opacity:1;stop-color:#90cdf0"/><stop offset="1" style="stop-opacity:1;stop-color:#fff"/></linearGradient><linearGradient id="e" x1="0" x2="1" y1="0" y2="0" gradientTransform="scale(24.20477 -24.20477)rotate(90 15.175 .897)" gradientUnits="userSpaceOnUse" spreadMethod="pad"><stop offset="0" style="stop-opacity:1;stop-color:#90cdf0"/><stop offset="1" style="stop-opacity:1;stop-color:#fff"/></linearGradient><linearGradient id="f" x1="0" x2="1" y1="0" y2="0" gradientTransform="scale(24.20563 -24.20563)rotate(90 14.69 .413)" gradientUnits="userSpaceOnUse" spreadMethod="pad"><stop offset="0" style="stop-opacity:1;stop-color:#90cdf0"/><stop offset="1" style="stop-opacity:1;stop-color:#fff"/></linearGradient><linearGradient id="g" x1="0" x2="1" y1="0" y2="0" gradientTransform="scale(24.2037 -24.2037)rotate(90 14.15 -.128)" gradientUnits="userSpaceOnUse" spreadMethod="pad"><stop offset="0" style="stop-opacity:1;stop-color:#90cdf0"/><stop offset="1" style="stop-opacity:1;stop-color:#fff"/></linearGradient><linearGradient id="i" x1="0" x2="1" y1="0" y2="0" gradientTransform="scale(33.27897 -33.27897)rotate(90 10.998 1.6)" gradientUnits="userSpaceOnUse" spreadMethod="pad"><stop offset="0" style="stop-opacity:1;stop-color:#90cdf0"/><stop offset="1" style="stop-opacity:1;stop-color:#fff"/></linearGradient><linearGradient id="j" x1="0" x2="1" y1="0" y2="0" gradientTransform="matrix(0 -33.27975 -33.27975 0 388.863 312.766)" gradientUnits="userSpaceOnUse" spreadMethod="pad"><stop offset="0" style="stop-opacity:1;stop-color:#90cdf0"/><stop offset="1" style="stop-opacity:1;stop-color:#fff"/></linearGradient><linearGradient id="k" x1="0" x2="1" y1="0" y2="0" gradientTransform="scale(33.27648 -33.27648)rotate(90 10.53 1.131)" gradientUnits="userSpaceOnUse" spreadMethod="pad"><stop offset="0" style="stop-opacity:1;stop-color:#90cdf0"/><stop offset="1" style="stop-opacity:1;stop-color:#fff"/></linearGradient><linearGradient id="l" x1="0" x2="1" y1="0" y2="0" gradientTransform="scale(33.28292 -33.28292)rotate(90 9.981 .584)" gradientUnits="userSpaceOnUse" spreadMethod="pad"><stop offset="0" style="stop-opacity:1;stop-color:#90cdf0"/><stop offset="1" style="stop-opacity:1;stop-color:#fff"/></linearGradient><linearGradient id="m" x1="0" x2="1" y1="0" y2="0" gradientTransform="matrix(0 -33.28105 -33.28105 0 465.17 312.766)" gradientUnits="userSpaceOnUse" spreadMethod="pad"><stop offset="0" style="stop-opacity:1;stop-color:#90cdf0"/><stop offset="1" style="stop-opacity:1;stop-color:#fff"/></linearGradient><clipPath id="a" clipPathUnits="userSpaceOnUse"><path d="M0 595.28h841.89V0H0Z"/></clipPath><clipPath id="c" clipPathUnits="userSpaceOnUse"><path d="M0 595.28h841.89V0H0Z"/></clipPath><clipPath id="h" clipPathUnits="userSpaceOnUse"><path d="M0 595.28h841.89V0H0Z"/></clipPath><clipPath id="n" clipPathUnits="userSpaceOnUse"><path d="M486.722 340.946h21.882V314.19h-21.882z"/></clipPath></defs><g clip-path="url(#a)" transform="matrix(3.39937 0 0 -3.39937 -1081.314 1406.072)"><path d="M0 0c-2.192 0-2.603 1.29-2.508 2.755h1.771c0-.811.034-1.491 1.007-1.491.598 0 .891.387.891.964 0 1.523-3.563 1.619-3.563 4.138 0 1.323.633 2.378 2.79 2.378 1.724 0 2.58-.771 2.464-2.544H1.127c0 .634-.107 1.279-.821 1.279-.574 0-.914-.317-.914-.904 0-1.605 3.563-1.466 3.563-4.126C2.955.255 1.349 0 0 0" style="fill:#024ea2;fill-opacity:1;fill-rule:nonzero;stroke:none" transform="translate(323.046 360.258)"/><path d="M0 0h-.025l-.809-3.661h1.69zm-3.414-6.838 2.346 8.468h2.334l2.297-8.468H1.699l-.468 1.875h-2.414l-.483-1.875z" style="fill:#024ea2;fill-opacity:1;fill-rule:nonzero;stroke:none" transform="translate(330.271 367.235)"/><path d="M0 0v8.468h2.85L4.173 2.71h.025l1.406 5.758h2.755V0H6.635v6.531h-.022L4.983 0H3.295L1.748 6.531h-.023V0Z" style="fill:#024ea2;fill-opacity:1;fill-rule:nonzero;stroke:none" transform="translate(334.866 360.397)"/><path d="M0 0c-2.192 0-2.605 1.29-2.509 2.755h1.77c0-.811.035-1.491 1.009-1.491.594 0 .89.387.89.964 0 1.523-3.565 1.619-3.565 4.138 0 1.323.634 2.378 2.792 2.378 1.721 0 2.577-.771 2.459-2.544H1.123c0 .634-.105 1.279-.818 1.279-.575 0-.916-.317-.916-.904 0-1.605 3.562-1.466 3.562-4.126C2.951.255 1.348 0 0 0" style="fill:#024ea2;fill-opacity:1;fill-rule:nonzero;stroke:none" transform="translate(347.202 360.258)"/><path d="M0 0v-6.006c0-1.264-.716-2.6-2.873-2.6-1.947 0-2.885 1.008-2.885 2.6V0h1.773v-5.89c0-1.044.443-1.453 1.089-1.453.773 0 1.125.518 1.125 1.453V0Z" style="fill:#024ea2;fill-opacity:1;fill-rule:nonzero;stroke:none" transform="translate(357.378 368.865)"/><path d="M0 0v8.468h2.393l2.253-5.864h.021v5.864H6.32V0H3.988l-2.31 6.19h-.025V0Z" style="fill:#024ea2;fill-opacity:1;fill-rule:nonzero;stroke:none" transform="translate(359.064 360.397)"/><path d="M0 0c.013.784-.116 1.477-1.056 1.477-1.101 0-1.101-1.488-1.101-3.13 0-2.65.258-3.119 1.267-3.119.293 0 .608.068.877.163v1.878h-.962v1.301H1.76v-4.292c-.482-.094-1.689-.28-2.394-.28-2.976 0-3.317 1.23-3.317 4.441 0 2.134.106 4.303 3.001 4.303C.785 2.742 1.865 1.77 1.76 0Z" style="fill:#024ea2;fill-opacity:1;fill-rule:nonzero;stroke:none" transform="translate(370.978 366.26)"/><path d="M0 0v8.468h1.771V1.407h2.648V0Z" style="fill:#024ea2;fill-opacity:1;fill-rule:nonzero;stroke:none" transform="translate(377.357 360.397)"/><path d="M382.783 368.865h1.771v-8.468h-1.771z" style="fill:#024ea2;fill-opacity:1;fill-rule:nonzero;stroke:none"/><path d="M0 0v8.468h4.397V7.165H1.77V4.997h2.508V3.694H1.77V0Z" style="fill:#024ea2;fill-opacity:1;fill-rule:nonzero;stroke:none" transform="translate(386.245 360.397)"/><path d="M0 0v8.468h4.62V7.165H1.771V5.079h2.626V3.776H1.771V1.304h2.944V0Z" style="fill:#024ea2;fill-opacity:1;fill-rule:nonzero;stroke:none" transform="translate(391.717 360.397)"/></g><path d="M439.19 412.799s.216-8.74.216-14.842c0-8.122-.043-14.703-3.318-16.696-3.472-2.115-13.903.46-23.33 2.975-11.144 2.978-25.323 7.736-25.323 7.736-.893.248-1.105-.104-.475-.783 0 0 8.107-6.623 17.826-16.302 7.179-7.153 12.966-13.124 12.166-18.978-.85-6.214-10.972-13.268-21.199-19.765-12.452-7.901-26.347-14.535-26.347-14.535-.759-.533-.623-.975.302-.988 0 0 15.419 1.893 32.09 2.613 13.12.565 20.257-1.723 24.953-5.781 5.789-5.005 7.014-11.412 7.914-19.875.944-8.879.641-9.609.641-9.609.094-.919.715-1.143 1.379-.498 0 0 5.867 6.987 14.773 14.117 6.417 5.132 10.524 6.347 14.397 6.585 5.16.322 10.145-.996 16.352-4.446 8.128-4.516 20.367-12.601 20.367-12.601.827-.416 1.268-.035.983.839 0 0-8.717 19.439-12.773 32.238-2.432 7.684-4.087 13.93-2.954 17.241 1.662 4.847 6.401 7.013 15.891 9.306 7.352 1.776 19.294 4.297 19.294 4.297.887.269.865.619-.044.78 0 0-11.964 2.18-21.653 4.271-7.468 1.616-11.208 3.221-11.533 5.958-.416 3.538 2.256 9.895 5.421 16.71 4.33 9.32 9.628 19.01 9.628 19.01.403.829.06 1.168-.764.745 0 0-7.828-5.2-16.572-9.702-7.343-3.781-15.334-7.067-19.876-6.371-4.772.733-10.816 6.477-16.082 12.659-6.642 7.803-11.278 14.087-11.278 14.087-.246.292-.473.433-.654.433-.258 0-.423-.285-.418-.828" style="fill:url(#b);stroke:none" transform="matrix(3.39937 0 0 -3.39937 -1081.314 1406.072)"/><g clip-path="url(#c)" transform="matrix(3.39937 0 0 -3.39937 -1081.314 1406.072)"><path d="M0 0c-1.013.998-1.485 1.44-1.677 1.248-.173-.172.142-.7.858-1.725 0 0 11.005-15.096 18.796-15.689 7.697-.587 21.631 9.835 21.631 9.835 1.098.799 1.814 1.379 1.693 1.59-.104.183-.923-.202-2.096-.759 0 0-12.455-5.418-20.379-5.418S0 0 0 0" style="fill:#90cdf0;fill-opacity:1;fill-rule:nonzero;stroke:none" transform="translate(452.808 408.32)"/><path d="M0 0c.48 1.306.682 1.948.475 2.018-.166.057-.546-.582-1.116-1.682 0 0-9.25-18.853-7.342-22.756 1.733-3.548 14.195-4.963 15.784-5.2 1.831-.276 2.24-.309 2.283-.118.043.2-.806.381-2.014.713-2.881.789-9.87 3.251-11.509 7.055C-5.455-15.301 0 0 0 0" style="fill:#90cdf0;fill-opacity:1;fill-rule:nonzero;stroke:none" transform="translate(505.025 389.866)"/><path d="M0 0c1.219.488 1.801.841 1.749 1.002-.052.165-.733.13-2.033-.15 0 0-18.773-4.107-21.158-9.394-2.876-6.38 7.862-31.977 7.862-31.977.5-1.218.836-1.8.976-1.755.142.041.084.709-.201 1.996 0 0-4.541 23.047-2.145 28.855C-12.559-5.61 0 0 0 0" style="fill:#90cdf0;fill-opacity:1;fill-rule:nonzero;stroke:none" transform="translate(516.004 348.31)"/><path d="M0 0c.2 1.312.237 1.972.509 1.972.177 0 .209-.651.332-1.959 0 0 1.039-14.546-2.928-16.659-6.436-3.426-34.231 8.966-34.231 8.966-1.192.532-1.772.847-1.753.931.018.084.664-.068 1.924-.487 0 0 26.725-8.974 31.515-4.815C-1.16-9.043 0 0 0 0" style="fill:#90cdf0;fill-opacity:1;fill-rule:nonzero;stroke:none" transform="translate(433.392 402.981)"/><path d="M0 0c-1.077.904-1.538 1.483-1.47 1.641.07.155.668-.119 1.704-.931 0 0 23.012-18.094 21.98-23.195-1.032-5.102-13.318-4.118-13.318-4.118-2.625.211-1.409.396.011.497 0 0 7.248.613 7.63 5.349C16.932-15.875 0 0 0 0" style="fill:#90cdf0;fill-opacity:1;fill-rule:nonzero;stroke:none" transform="translate(389.231 381.342)"/><path d="M0 0a5.42 5.42 0 0 1-4.089 1.509l-6.663-.405a5.3 5.3 0 0 1-1.132-.195 5.4 5.4 0 0 1 1.821 3.567l.306 3.214-.013-.148.031.583a5.41 5.41 0 0 1-2.231 4.376c.209.509.366 1.052.414 1.632l.168 2.046.005.323c0 .527-.099 1.042-.246 1.538.194.127.393.254.566.416a5.42 5.42 0 0 1 1.824 3.894l.103 3.652a5.392 5.392 0 0 1-5.058 5.56l-17.479 1.156a5.47 5.47 0 0 1-3.53-1.018 5.4 5.4 0 0 1-2.905.727l-7.361-.262a5.4 5.4 0 0 1-2.282-.615c-.101.115-.185.245-.297.352a5.43 5.43 0 0 1-3.898 1.521l-9.029-.239c-2.953-.075-5.338-2.384-5.338-5.341 0-.055-.108-1.189-.108-1.189-.112 1.476-1.026 2.918-2.168 3.852a5.41 5.41 0 0 1-4.108 1.18l-10.508-1.322a5.5 5.5 0 0 1-1.148-.278c-5.128 3.566-14.554 4.396-28.757 2.529a5.386 5.386 0 0 1-4.705-5.616l1.013-21.749a5.44 5.44 0 0 1 4.167-5.018c5.436-1.276 10.127-1.575 12.486-1.64l-11.369-1.431a5.41 5.41 0 0 1-4.736-5.496l.657-31.144a5.4 5.4 0 0 1 1.999-4.087 5.4 5.4 0 0 1 4.411-1.122l6.015 1.125a5.43 5.43 0 0 1 4.401 4.839s.14 1.537.179 1.987c.439-.854 1.435-2.784 1.435-2.784a5.4 5.4 0 0 1 5.322-2.909l9.462.873a5.44 5.44 0 0 1 4.827 4.42s.068.382.186 1.027l1.312-3.592c.925-2.525 3.599-4.002 6.225-3.438l8.34 1.792c1 .216 1.871.703 2.565 1.361a5.415 5.415 0 0 1 5.907-4.183l12.544 1.471a5.4 5.4 0 0 1 3.221 1.591 5.4 5.4 0 0 1 3.553-1.32h6.489c1.436 0 2.838.582 3.85 1.609a5.39 5.39 0 0 1 1.566 3.808l-.047 3.412c1.526-1.619 3.437-3.65 3.437-3.65a5.46 5.46 0 0 1 4.48-1.673l9.821.991a5.43 5.43 0 0 1 4.869 5.225l.876 28.644A5.42 5.42 0 0 1 0 0" style="fill:#000001;fill-opacity:1;fill-rule:nonzero;stroke:none" transform="translate(435.913 320.177)"/><path d="M0 0c4.167 2.288 8.533 8.469 8.447 8.391 2.841 1.867 4.78 3.191 5.754 7.4L7.43 19.914l2.289 5.066s-6.236 4.812-6.805 5.676l8.699.721 11.533-4.146 6.689 5.757-8.523 5.746s-8.493-.016-10.11.265c-1.615.272-5.329 3.25-5.329 3.25l-40.407-10.266 6.075-3.034.086-7.183c.901-1.816 3.717-7.53 7.102-13.991.649-.403 1.44-.542 1.431-.511 1.798-3.39 2.737-8.196 3.981-9.637.077-.085 1.707-.26 1.707-.26S-4.168-2.289 0 0" style="fill:#000001;fill-opacity:1;fill-rule:nonzero;stroke:none" transform="translate(466.481 306.434)"/><path d="M0 0c1.386-.418 10.248.483 10.248.483l10.999-4.499L26.641.532s-6.446 4.239-7.545 4.498c-1.097.259-10.604.46-10.604.46L3.598 8.782l-5.179-4.735Z" style="fill:#fed7b3;fill-opacity:1;fill-rule:nonzero;stroke:none" transform="translate(468.113 338.574)"/><path d="M0 0c.345.479 3.175 1.771 3.175 1.771L6.424.143l7.59.784 5.714-5.314 2.063 1.739s-6.445 4.239-7.545 4.498c-1.097.259-10.603.46-10.603.46l-4.895 3.292L-6.431.867-4.85-3.18c.619-.186 2.719-.11 4.858.03C-.1-2.043-.229-.321 0 0" style="fill:#e3b28d;fill-opacity:1;fill-rule:nonzero;stroke:none" transform="translate(472.963 341.754)"/><path d="m0 0 .345-4.428s6.572-14.01 6.645-14.205c13.047.073 10.372 3.743 19.604 7.978 6.767 3.102 8.174 5.673 8.747 7.934-1.982-.306-8.277 9.269-8.277 9.269l-8.793-2.862.469-2.668-3.277-3.007-2.803.312L9.606.82 6.942-.882Z" style="fill:#008dd0;fill-opacity:1;fill-rule:nonzero;stroke:none" transform="translate(438.764 333.812)"/><path d="m0 0 2.583-3.941s1.212 1.804 7.665 3.177C16.696.614 16.88 1.584 21.58 6.569c-1.831.997-5.53 3.793-5.528 3.847C13.055 7.214 4.498 5.589 2.423 3.835.223 1.973 0 0 0 0" style="fill:#008dd0;fill-opacity:1;fill-rule:nonzero;stroke:none" transform="translate(457.581 314.897)"/><path d="M0 0s-3.119-.229-5.216-1.446l2.536-6.708s7.947-.265 12.578 2.785c.041-.036-3.914 1.464-3.914 1.464L3.84-.884Z" style="fill:#008dd0;fill-opacity:1;fill-rule:nonzero;stroke:none" transform="translate(454.095 313.359)"/><path d="M0 0c-1.981-.306-8.276 9.27-8.276 9.27l-8.794-2.863.469-2.668-3.277-3.007-2.803.312-3.053 2.497-2.664-1.702-6.943.882.345-4.428.449-.957c1.091 1.298 2.63 2.617 4.399 2.657 4.228-3.156 11.342-7.444 17.221-6.323-4.693-2.294-5.937-7.057-5.502-6.789 3.738 4.777 9.448 6.705 9.448 6.705l2.788-.257C-1.651-4.228-.491-1.94 0 0" style="fill:#005387;fill-opacity:1;fill-rule:nonzero;stroke:none" transform="translate(474.104 331.09)"/><path d="M0 0c-1.831.997-5.53 3.793-5.528 3.847-1.573-1.678-4.675-2.924-7.566-3.983C-11.082-.118-8.093 0-8.093 0s.941-2.108 1.064-4.017C-4.407-3.719-3.321-3.519 0 0" style="fill:#005387;fill-opacity:1;fill-rule:nonzero;stroke:none" transform="translate(479.161 321.466)"/><path d="m0 0 6.417 2.149-1.938-4.663Z" style="fill:#e3b28d;fill-opacity:1;fill-rule:nonzero;stroke:none" transform="translate(449.565 335.008)"/><path d="m0 0 15.239 5.893 5.312 3.808 6.084 5.639s1.826-.239 3.954.34c2.131.577 3.597 1.916 4.463 4.098.867 2.189-.079 4.715-.079 4.715l-1.089 1.061.175 11.026s-2.513 11.451-14.153 17.305c-.306-.127-7.677 0-7.677 0l-7.331 3.886s-11.994-2.213-16.027-3.893c-4.032-1.681-12.246-8.014-12.246-8.014l-1.177-9.41-1.348-1.436 3.025-2.004-.145-.901s-.898.589-3.106.084c-2.212-.502-2.799-3.204-1.985-5.968.338-1.146 4.581-4.727 4.581-4.727s-.673-2.846-.563-3.776c.11-.939 2.348-4.157 3.094-5.085.744-.927 7.356-7.27 7.356-7.27L-6.595.869z" style="fill:#000001;fill-opacity:1;fill-rule:nonzero;stroke:none" transform="translate(445.706 332.93)"/><path d="M0 0s2.415 7.991 2.437 7.991c1.642 3.21 6.903 5.09 11.544 5.142 4.164-.136 10.265-2.723 14.046-2.848 1.392.25 4.136 3.488 4.175 4.643.123 3.731-1.567 5.387-1.567 5.387s12.763-1.964 12.83-17.754C43.116-1.6 33.396-11.298 33.396-11.298s-5.059-2.141-6.683-2.087z" style="fill:#000001;fill-opacity:1;fill-rule:nonzero;stroke:none" transform="translate(450.242 388.197)"/><path d="M0 0s-7.975 1.801-13.591 2.801c0 0-1.228.12-2.902.222-.004-.002-.018 0-.024 0l.505-3.859s-6.804 1.378-8.552 2.102c-1.048.429-2.089 1.464-2.76 2.225-.405-.032-1.949-.168-2.776-.241-.002.006-5.676-2.589-5.676-2.589l4.812-2.508 6.514.528 11.057-.62c4.58-.791 11.182-2.013 14.868-3.159 6.039-1.887 16.45-6.094 16.45-6.094s.431 1.275.457 2.067C14.041-5.484 0 0 0 0" style="fill:#008dd0;fill-opacity:1;fill-rule:nonzero;stroke:none" transform="translate(459.275 369.358)"/><path d="m0 0 8.414-.481c7.274-.509 21.201-3.255 29.92-8.993-.496-3.251-1.691-6.179-3.008-8.911-.505-1.05-5.537-5.211-10.468-8.104-4.09-2.407-8.811-3.789-12.651-5.231-3.468-1.301-8.223.612-8.223.612s-12.965 8.594-15.575 15.429c.112 1.477 1.305 5.618 1.305 5.618l.384 8.643z" style="fill:#fed7b3;fill-opacity:1;fill-rule:nonzero;stroke:none" transform="translate(434.53 366.813)"/><path d="M0 0s-1.889.984-2.864.5c-.978-.486-1.603-2.164-1.212-3.889.398-1.727 2.972-3.502 3.575-3.661C.099-7.218 0 0 0 0" style="fill:#fed7b3;fill-opacity:1;fill-rule:nonzero;stroke:none" transform="translate(423.034 363.401)"/><path d="m0 0-1.692-5.817s3.981-.643 5.596 1.91C5.52-1.357 5.61-.2 4.414.819 2.983 2.041 0 0 0 0" style="fill:#fed7b3;fill-opacity:1;fill-rule:nonzero;stroke:none" transform="translate(474.174 355.916)"/><path d="M0 0c-.983-.235-1.837-.925-1.837-.925l-1.692-5.817 2.442.039-.366 2.186z" style="fill:#e3b28d;fill-opacity:1;fill-rule:nonzero;stroke:none" transform="translate(476.01 356.84)"/><path d="M0 0s.647 2.177-1.586 1.975c-2.231-.2-2.768-3.073-2.768-3.073S-1.013 2.782 0 0" style="fill:#000001;fill-opacity:1;fill-rule:nonzero;stroke:none" transform="translate(478.136 353.91)"/><path d="M0 0s-.332 2.555 1.298 2.137c2.242-.574 1.867-3.648 1.867-3.648S.927 3.085 0 0" style="fill:#000001;fill-opacity:1;fill-rule:nonzero;stroke:none" transform="translate(420.261 360.606)"/><path d="m0 0-.937-1.69s1.424 1 1.942 1.058c.513.059 6.916-1.43 9.011-.224 2.092 1.207 2.978 3.654 2.978 3.654S10.139.716 8.367.323C6.596-.069 1.039.418 0 0" style="fill:#000001;fill-opacity:1;fill-rule:nonzero;stroke:none" transform="translate(438.647 345.76)"/><path d="M0 0c-.009-.298-.237-.531-.504-.526-.272.012-.478.26-.471.56.009.3.236.534.505.527C-.2.552.009.304 0 0" style="fill:#eba79f;fill-opacity:1;fill-rule:nonzero;stroke:none" transform="translate(426.906 353.627)"/><path d="M0 0c-.013-.351-.276-.629-.591-.616-.312.009-.556.302-.548.653.014.352.277.623.591.616C-.233.643.013.352 0 0" style="fill:#eba79f;fill-opacity:1;fill-rule:nonzero;stroke:none" transform="translate(429.86 352.979)"/><path d="M0 0c-.016-.393-.312-.707-.67-.694-.353.01-.634.344-.621.741.013.402.314.712.668.699C-.265.733.011.404 0 0" style="fill:#eba79f;fill-opacity:1;fill-rule:nonzero;stroke:none" transform="translate(428.228 351.302)"/><path d="M0 0c.086-.35-.093-.699-.407-.788-.315-.084-.641.132-.731.481-.091.352.09.703.406.789C-.418.569-.093.35 0 0" style="fill:#eba79f;fill-opacity:1;fill-rule:nonzero;stroke:none" transform="translate(457.37 351.988)"/><path d="M0 0c.108-.407-.107-.819-.473-.92-.368-.1-.752.152-.855.56-.107.412.107.828.474.922C-.49.664-.104.41 0 0" style="fill:#eba79f;fill-opacity:1;fill-rule:nonzero;stroke:none" transform="translate(461.005 352.283)"/><path d="M0 0c.119-.46-.12-.932-.539-1.044-.413-.113-.847.173-.968.639-.115.463.121.93.539 1.043C-.554.75-.12.465 0 0" style="fill:#eba79f;fill-opacity:1;fill-rule:nonzero;stroke:none" transform="translate(459.683 349.772)"/><path d="M0 0c-.015-.548-1.523-.944-3.368-.882-1.843.061-3.321.559-3.304 1.102.02.545 1.526.938 3.371.877C-1.461 1.037.02.545 0 0" style="fill:#b29a7f;fill-opacity:1;fill-rule:nonzero;stroke:none" transform="translate(444.617 351.434)"/><path d="M0 0c-.532 2.346-12.052 13.082-12.052 13.082l-7.966-.218-7.354 4.012-11.914-2.361-14.419-8.186-1.684-8.666L-51.135.63s4.148.884 4.154.916c-1.526 2.39.362 5.209.362 5.209s-.433-3.561 2.427-6.094c2.332-2.07 8.467-2.911 8.467-2.911l-.385 4.394.461 3.238 1.094 1.818s-.221-1.68-.343-3.234.403-2.137.403-2.137l14.631-2.458S-2.078-7.259.323-10.707c-.09.1.863 5.52-.323 10.707" style="fill:#f58345;fill-opacity:1;fill-rule:nonzero;stroke:none" transform="translate(477.48 372.517)"/><path d="m0 0-8.414.481-9.902-1.418-.072-1.665L-8.107-.105s15.729-.47 31.745-6.697c.664-1.611-2.595-10.878-2.595-10.878L4.018-29.575s-4.401-1.136-10.33.267c1.148-.828 1.882-1.319 1.882-1.319s4.755-1.913 8.223-.612c3.84 1.442 8.561 2.824 12.651 5.231 4.931 2.893 9.963 7.054 10.468 8.104 1.317 2.732 2.512 5.66 3.008 8.911C21.201-3.255 7.273-.509 0 0" style="fill:#e3b28d;fill-opacity:1;fill-rule:nonzero;stroke:none" transform="translate(442.943 366.332)"/><path d="M0 0c-2.092-1.379-7.719-1.966-8.445-1.791 0 0 2.675-.813 5.269-.031C-.665-1.064 0 0 0 0" style="fill:#000001;fill-opacity:1;fill-rule:nonzero;stroke:none" transform="translate(461.096 356.398)"/><path d="M0 0c-.011-1.993 1.714-3.708 3.085-4.083.955-.258 4.55-.089 6.815.974.982.459 1.732 1.192 1.878 2.074.359 2.139-2.363 6.819-7.636 5.629C1.646 4.029.011 1.878 0 0" style="fill:#fff;fill-opacity:1;fill-rule:nonzero;stroke:none" transform="translate(450.067 358.773)"/><path d="M0 0c.084 2.572-1.693 4.713-3.972 4.788S-8.168 2.845-8.252.275-6.56-4.437-4.28-4.514C-2.002-4.589-.087-2.566 0 0" style="fill:#000001;fill-opacity:1;fill-rule:nonzero;stroke:none" transform="translate(461.165 358.948)"/><path d="M0 0c-.034-1.005-.564-1.798-1.189-1.779s-1.102.847-1.07 1.852.568 1.802 1.188 1.781C-.444 1.833.034 1.002 0 0" style="fill:#fff;fill-opacity:1;fill-rule:nonzero;stroke:none" transform="translate(459.327 360.487)"/><path d="m0 0-.491-1.716s2.483-3.521 3.212-4.177c.726-.653 2.277-1.324 2.277-1.324l9.924 4.791 5.677-3.834-.019 4.589s-3.616 4.209-4.914 5c-.836.508-10.655-4.263-11.41-4.394C3.502-1.198 0 0 0 0" style="fill:#000001;fill-opacity:1;fill-rule:nonzero;stroke:none" transform="translate(445.883 368.147)"/><path d="M0 0s1.854-3.021 3.661-3.508C5.011-3.252 12.78.744 14.195.617c1.414-.128 4.493-3.414 4.493-3.414L18.203-.39s-1.958 3.18-3.516 3.931C13.123 4.291 4.429-.634 3.48-.681 2.533-.731 0 0 0 0" style="fill:#f58345;fill-opacity:1;fill-rule:nonzero;stroke:none" transform="translate(446.849 366.345)"/><path d="m0 0 .157-3.003c1.26-.786 2.771-2.532 2.771-2.532l-.222 2.227S1.253-1.382 0 0" style="fill:#cc7349;fill-opacity:1;fill-rule:nonzero;stroke:none" transform="translate(462.572 369.124)"/><path d="M0 0c1.409-1.749 1.376-2.768 1.376-2.768.781.75 1.044 1.143 1.044 1.125C1.583.263-1.593 2.768-1.593 2.768l-1.722.341-2.433.097S-2.3 3.23 0 0" style="fill:#000001;fill-opacity:1;fill-rule:nonzero;stroke:none" transform="translate(460.565 360.905)"/><path d="M0 0s-.968-.731-1.035-1.577c0 0 2.188 2.152 4.18 2.855" style="fill:#000001;fill-opacity:1;fill-rule:nonzero;stroke:none" transform="translate(451.256 361.35)"/><path d="M0 0c.107 2.405 1.962 5.132 4.51 4.19 0 0 3.131-.69 4.506-3 .668-1.121 1.095-2.817.81-4.053-.388-1.696-5.17-2.732-8.06-.825C.478-2.834-.061-1.245 0 0" style="fill:#fff;fill-opacity:1;fill-rule:nonzero;stroke:none" transform="translate(425.492 359.788)"/><path d="M0 0c.075 2.316-1.68 4.31-3.541 4.375-1.862.062-3.432-1.766-3.507-4.077-.077-2.311 1.368-4.237 3.229-4.297S-.076-2.311 0 0" style="fill:#000001;fill-opacity:1;fill-rule:nonzero;stroke:none" transform="translate(434.95 358.904)"/><path d="M0 0c-3.619-1.405-6.989 1.008-7.521 1.506 0 0 .632-1.528 3.111-2.119C-1.662-1.266 0 0 0 0" style="fill:#000001;fill-opacity:1;fill-rule:nonzero;stroke:none" transform="translate(433.765 355.559)"/><path d="m0 0-4.009.548-2.553-2.084L-.364-4.98l7.926-3.804 1.1 1.677-.641 3.143z" style="fill:#000001;fill-opacity:1;fill-rule:nonzero;stroke:none" transform="translate(427.12 369.685)"/><path d="m0 0-.168-1L-2.294.371l-8.06 4.013-2.715.722s.627 1.018 1.521 1.129c.282.037 3.558-.719 3.558-.719l7.412-3.441z" style="fill:#f58345;fill-opacity:1;fill-rule:nonzero;stroke:none" transform="translate(434.784 362.862)"/><path d="M0 0s-2.73-.516-3.176-1.878c0 0 .26-1.113.221-2.178 0 0 .616 3.53 4.115 3.336z" style="fill:#000001;fill-opacity:1;fill-rule:nonzero;stroke:none" transform="translate(428.469 364.159)"/><path d="M0 0c-.03-.951-.487-1.703-1.021-1.684-.536.02-.944.8-.916 1.746.033.947.493 1.701 1.03 1.687C-.37 1.729.035.947 0 0" style="fill:#fff;fill-opacity:1;fill-rule:nonzero;stroke:none" transform="translate(433.21 360.008)"/><path d="M0 0c-.532 2.346-12.052 13.082-12.052 13.082l4.791-7.288.457-7.99-.935-3.512C-4.01-7.466-.629-9.339.323-10.707c-.09.1.863 5.52-.323 10.707" style="fill:#cc7349;fill-opacity:1;fill-rule:nonzero;stroke:none" transform="translate(477.48 372.517)"/><path d="m0 0-7.354 4.012-1.689-.336 4.479-6.335Z" style="fill:#cc7349;fill-opacity:1;fill-rule:nonzero;stroke:none" transform="translate(457.463 385.38)"/><path d="M0 0c-1.582 1.323-4.449 2.896-7.457 4.354A60 60 0 0 0-7.985.869C-3.906-.675-.457-2.068-.457-2.068S-.025-.793 0 0" style="fill:#005387;fill-opacity:1;fill-rule:nonzero;stroke:none" transform="translate(477.657 360.234)"/><path d="M0 0s-2.152-.183-4.629.292c2.65-1.725 7.832-2.438 7.832-2.438l-.386 4.394.461 3.237.945 1.566L2 5.007Z" style="fill:#cc7349;fill-opacity:1;fill-rule:nonzero;stroke:none" transform="translate(438.553 372.414)"/><path d="M0 0s.459 5.704 3.01 7.491c2.549 1.778 9.977 2.716 9.977 2.716s12.207-3.762 13.87-3.456c1.664.308 5.543 3.202 5.59 4.65.046 1.452-1.144 5.12-1.144 5.12l6.22-5.343S39.628 3.55 38.942.671c-.851-2.482-7.696-11.227-7.696-11.227l-6.371-2.322L13.507-2.68l-2.716 4.048-4.944.559-2.855-3.275Z" style="fill:#f58345;fill-opacity:1;fill-rule:nonzero;stroke:none" transform="translate(452.295 389.766)"/><path d="m0 0 2.171 2.8 3.836-.625.972-1.041-.701-2.066-4.317.007Z" style="fill:#008dd0;fill-opacity:1;fill-rule:nonzero;stroke:none" transform="translate(456.228 387.757)"/><path d="m0 0-6.221 5.343S-5.03 1.675-5.076.224c0-.033-.015-.072-.021-.108.884-2.667 1.529-6.831.483-8.577-4.166-3.515-14.36 1.529-16.356 1.312-1.396-.656-3.305-2.851-4.536-4.493l1.489-2.215 11.369-10.199 6.371 2.322s6.844 8.746 7.696 11.228C2.104-7.628 0 0 0 0" style="fill:#cc7349;fill-opacity:1;fill-rule:nonzero;stroke:none" transform="translate(489.818 400.944)"/><path d="m0 0 .021.395S.007.246 0 0" style="fill:#f58345;fill-opacity:1;fill-rule:nonzero;stroke:none" transform="translate(430.84 378.878)"/><path d="M0 0s4.147.884 4.153.916c-1.525 2.389.363 5.209.363 5.209S-.363 3.88 0 0" style="fill:#cc7349;fill-opacity:1;fill-rule:nonzero;stroke:none" transform="translate(426.346 373.147)"/><path d="M0 0c.177-4.972 4.251-9.998 12.97-10.017 8.504-.018 12.375 4.934 12.445 9.842l.163 12.814a1.495 1.495 0 0 1-1.547 1.513l-7.361-.263a1.493 1.493 0 0 1-1.443-1.47l-.215-13.484c0-.895-.415-1.837-1.58-1.837-1.078 0-1.695.597-1.695 1.638l-.056 14.921c0 .4-.166.784-.455 1.065a1.49 1.49 0 0 1-1.08.426l-9.021-.239a1.495 1.495 0 0 1-1.453-1.496L-.022.767Z" style="fill:#008dd0;fill-opacity:1;fill-rule:nonzero;stroke:none" transform="translate(373.916 334.536)"/><path d="m0 0 17.049-1.003a1.497 1.497 0 0 1 1.576 1.35l.3 3.137a1.489 1.489 0 0 1-.366 1.13 1.5 1.5 0 0 1-1.079.506s-5.096.153-7.157.218l.144 3.433c1.785-.064 5.114-.19 5.114-.19a1.497 1.497 0 0 1 1.545 1.371l.158 1.928q.002.063.002.125c0 .366-.134.725-.384.998a1.48 1.48 0 0 1-1.073.498l-5.158.121c.052 1.253.095 2.258.147 3.536 2.089-.19 6.981-.64 6.981-.64.41-.037.82.096 1.126.369.312.275.496.666.505 1.077l.107 3.653a1.5 1.5 0 0 1-1.396 1.537L.657 24.31a1.5 1.5 0 0 1-1.108-.391 1.48 1.48 0 0 1-.485-1.071l-.473-21.319A1.497 1.497 0 0 1 0 0" style="fill:#008dd0;fill-opacity:1;fill-rule:nonzero;stroke:none" transform="translate(403.324 324.674)"/><path d="M0 0a1.5 1.5 0 0 1 1.684-1.252l16.462 2.264c.75.103 1.308.723 1.29 1.482l-.072 3.843a1.496 1.496 0 0 1-1.627 1.466s-4.269-.382-6.224-.561l-1.048 13.996a1.49 1.49 0 0 1-.546 1.045c-.316.259-.728.38-1.133.328l-10.513-1.326a1.5 1.5 0 0 1-1.289-1.712z" style="fill:#008dd0;fill-opacity:1;fill-rule:nonzero;stroke:none" transform="translate(354.924 325.366)"/><path d="M0 0c2.219-.066 3.986-.513 4.734-1.237.305-.293.365-.57.365-.781q.002-.068-.006-.128c-.2-1.831-3.154-2.183-5.116-2.215C-.017-2.945-.006-1.427 0 0m5.336 8.549c.293-.264.337-.496.337-.659v-.028C5.625 6.225 2.917 5.565.289 5.477.274 6.866.257 8.285.239 9.688c3.393-.08 4.657-.74 5.097-1.139m-15.82-17.858c7.088-1.667 12.867-1.559 13.109-1.553h.003c3.273 0 14.083.566 14.554 7.814.007.139.014.271.014.409 0 2.769-1.895 4.724-4.359 5.978 3.193 1.636 4.172 4.393 4.172 6.134 0 1.412-.613 2.638-1.82 3.635-2.731 2.266-9.557 4.496-26.541 2.263a1.49 1.49 0 0 1-1.296-1.552l1.012-21.742a1.5 1.5 0 0 1 1.152-1.386" style="fill:#008dd0;fill-opacity:1;fill-rule:nonzero;stroke:none" transform="translate(334.662 333.535)"/></g><path d="M403.41 326.169c1.207-.069 15.844-.932 17.051-1.003.076.801.258 2.708.296 3.135l-8.671.259.273 6.438s5.518-.208 6.599-.25q.078.932.158 1.931l-6.681.158.28 6.628s7.305-.669 8.544-.784c.026.919.08 2.812.107 3.653-1.058.073-16.18 1.07-17.483 1.156z" style="fill:url(#d);stroke:none" transform="matrix(3.39937 0 0 -3.39937 -1081.314 1406.072)"/><path d="m375.081 347.949.327-13.36c.14-3.945 3.234-8.557 11.48-8.573 7.484-.018 10.891 4.192 10.947 8.367 0 0 .149 11.49.164 12.809-1.066-.034-6.451-.228-7.361-.263-.046-2.79-.214-13.489-.214-13.482 0-1.947-1.265-3.307-3.076-3.307-1.91 0-3.19 1.262-3.19 3.133l-.057 14.913z" style="fill:url(#e);stroke:none" transform="matrix(3.39937 0 0 -3.39937 -1081.314 1406.072)"/><path d="M353.387 345.168c.196-1.289 2.827-18.34 3.019-19.571 1.218.169 15.354 2.108 16.46 2.281 0 0-.054 2.757-.071 3.802-1.226-.108-7.737-.697-7.737-.697s-1.061 14.17-1.16 15.509c-1.21-.154-9.327-1.176-10.511-1.324" style="fill:url(#f);stroke:none" transform="matrix(3.39937 0 0 -3.39937 -1081.314 1406.072)"/><path d="M323.505 347.423c.057-1.192.971-20.755 1.014-21.742 6.928-1.628 12.655-1.512 12.733-1.512 2.975 0 12.716.462 13.099 6.414.272 4.205-5.13 5.798-7.205 6.212l-.05.346c5.854.703 7.079 4.292 7.079 5.867 0 .717-.223 1.612-1.277 2.485-1.474 1.218-4.976 2.839-13.157 2.839-3.273 0-7.296-.26-12.236-.909m9.883-2.68 1.199-.012c3.171-.037 5.325-.553 6.414-1.536.563-.505.847-1.143.825-1.839-.068-2.378-2.684-3.786-7.175-3.853l-1.18-.017zm-.213-9.683 1.179-.011c1.64-.018 4.616-.259 6.08-1.675.616-.597.896-1.339.808-2.147-.179-1.624-1.524-3.556-6.932-3.556h-1.176z" style="fill:url(#g);stroke:none" transform="matrix(3.39937 0 0 -3.39937 -1081.314 1406.072)"/><g clip-path="url(#h)" transform="matrix(3.39937 0 0 -3.39937 -1081.314 1406.072)"><path d="M0 0c.025.919.079 2.812.105 3.653-.203.015-.939.063-1.996.134L-1.995.184z" style="fill:#fff;fill-opacity:1;fill-rule:nonzero;stroke:none" transform="translate(421.26 342.681)"/><path d="m0 0-.271-6.436s.838-.024 2-.061l.265 6.333s5.518-.207 6.599-.25q.077.932.158 1.932c-.358.006-1.119.024-2.003.047Q6.672.632 6.6-.246C5.516-.203 0 0 0 0" style="fill:#fff;fill-opacity:1;fill-rule:nonzero;stroke:none" transform="translate(410.365 335.162)"/><path d="m0 0-.278-6.632s.871-.022 1.997-.045l.275 6.49C.839-.08 0 0 0 0" style="fill:#fff;fill-opacity:1;fill-rule:nonzero;stroke:none" transform="translate(410.72 343.635)"/><path d="M0 0v-.298c1.205-.079 15.842-.941 17.049-1.013.076.802.257 2.708.296 3.136l-2.003.059c-.053-.573-.218-2.02-.287-2.77C14.081-.826 4.344-.257 0 0" style="fill:#fff;fill-opacity:1;fill-rule:nonzero;stroke:none" transform="translate(403.412 326.477)"/><path d="M0 0c-.06-4.179-3.466-8.385-10.948-8.37-.206 0-.409.009-.612.011a19 19 0 0 1 2.606-.177C-1.47-8.553 1.937-4.343 1.993-.168c0 0 .149 11.49.164 12.809-.333-.01-1.088-.038-1.997-.071z" style="fill:#fff;fill-opacity:1;fill-rule:nonzero;stroke:none" transform="translate(395.842 334.551)"/><path d="M0 0q.354 0 .675.068C-.479.513-1.193 1.57-1.193 2.966L-1.25 17.88c-.319-.011-1.061-.028-1.993-.054l.057-14.694C-3.186 1.261-1.907 0 0 0" style="fill:#fff;fill-opacity:1;fill-rule:nonzero;stroke:none" transform="translate(385.351 330.306)"/><path d="M0 0c.021-1.203.067-3.454.067-3.476-.896-.121-10.326-1.416-14.537-1.998.03-.201.055-.351.07-.429C-13.183-5.734.954-3.795 2.06-3.64c0 0-.055 2.775-.071 3.82z" style="fill:#fff;fill-opacity:1;fill-rule:nonzero;stroke:none" transform="translate(370.807 331.5)"/><path d="M0 0a27239 27239 0 0 0-1.136 15.164c-.3-.037-1.026-.132-1.964-.248L-1.968-.177z" style="fill:#fff;fill-opacity:1;fill-rule:nonzero;stroke:none" transform="translate(365.033 331.328)"/><path d="M0 0q.15-.001.316-.007c-.86.123-1.683.166-2.314.173l-1.176.011-.041-7.389h1.174c.288 0 .558.008.82.017L-1.18.011z" style="fill:#fff;fill-opacity:1;fill-rule:nonzero;stroke:none" transform="translate(334.354 335.05)"/><path d="m0 0-.05.345c5.854.703 7.078 4.293 7.078 5.867 0 .718-.221 1.613-1.276 2.486-1.267 1.052-4.045 2.396-10.01 2.751 4.61-.507 6.897-1.662 8.018-2.585 1.052-.875 1.272-1.768 1.272-2.486 0-1.576-1.222-5.162-7.076-5.871l.049-.345C.078-.246 5.48-1.841 5.211-6.041c-.383-5.957-10.125-6.417-13.102-6.417-.034-.006-1.257-.03-3.243.104 3.132-.315 5.193-.272 5.239-.272 2.976 0 12.716.462 13.1 6.414C7.477-2.007 2.075-.414 0 0" style="fill:#fff;fill-opacity:1;fill-rule:nonzero;stroke:none" transform="translate(343.146 336.795)"/><path d="M0 0q.416.01.811.028L.729 7.074l1.198-.012c.259-.005.5-.016.744-.027-.808.112-1.713.179-2.736.193l-1.199.007.082-7.253z" style="fill:#fff;fill-opacity:1;fill-rule:nonzero;stroke:none" transform="translate(332.66 337.669)"/><path d="m0 0 .117.093C-.215-.166-5.886-4.573-9.9-7.738c-1.597 2.76-3.303 5.694-3.303 5.694A5.5 5.5 0 0 1-18.109.718L-32.872.33a5.31 5.31 0 0 1-4.581-2.846l-.013-.024a5.44 5.44 0 0 1-.586-2.542 5.5 5.5 0 0 1 .874-2.876l6.734-10.457-11.998-8.463a5.32 5.32 0 0 1-2.239-4.443l.009-.241.004-.056a5.5 5.5 0 0 1 2.902-4.466c.009-.002 10.307-5.518 10.307-5.518 1.964-1.056 4.332-.826 6.019.6 0 0 3.091 2.603 5.758 4.845 1.109-2.191 2.215-4.382 2.215-4.382a5.51 5.51 0 0 1 4.769-3.037l14.392-.386a5.32 5.32 0 0 1 4.742 2.628c.49.834.74 1.802.722 2.79a5.4 5.4 0 0 1-.746 2.66L.169-25.109c5.541 3.369 15.778 9.63 16.334 9.971l-.052-.028c1.626.963 2.596 2.67 2.6 4.573v.037l-.002.062a5.5 5.5 0 0 1-2.602 4.58l.004-.005L6.348.407C4.339 1.665 1.787 1.5 0 0" style="fill:#000001;fill-opacity:1;fill-rule:nonzero;stroke:none" transform="translate(475.527 321.787)"/><path d="m0 0-6.658-.405A1.503 1.503 0 0 1-8.062-1.9v-12.451l-8.231 9.644c-.299.35-.746.543-1.211.521l-13.167-.618a1.5 1.5 0 0 1-1.43-1.533l.77-28.315a1.497 1.497 0 0 1 1.495-1.461h6.489a1.5 1.5 0 0 1 1.496 1.502c0 .008-.125 8.789-.185 13.436 3.35-3.56 10.348-10.988 10.348-10.988a1.5 1.5 0 0 1 1.238-.461l9.817.992c.747.076 1.32.694 1.347 1.444l.875 28.646a1.5 1.5 0 0 1-.452 1.124A1.52 1.52 0 0 1 0 0" style="fill:#000001;fill-opacity:1;fill-rule:nonzero;stroke:none" transform="translate(432.057 317.777)"/><path d="M0 0a1.487 1.487 0 0 1-1.586 1.184L-17.653-.161a1.5 1.5 0 0 1-1.365-1.337s-.812-7.738-1.364-12.975l-6.619 13.119a1.505 1.505 0 0 1-1.522.816l-14.794-1.861a1.5 1.5 0 0 1-1.308-1.518l.656-31.149c.013-.44.214-.852.555-1.129a1.5 1.5 0 0 1 1.218-.309l6.019 1.123a1.49 1.49 0 0 1 1.214 1.337l1.39 15.401c2.747-5.33 7.611-14.756 7.611-14.756.28-.541.86-.859 1.468-.802l9.469.877a1.5 1.5 0 0 1 1.335 1.223s1.708 9.316 2.785 15.2l6.248-17.13a1.5 1.5 0 0 1 1.721-.951l8.339 1.794a1.5 1.5 0 0 1 1.149 1.768z" style="fill:#000001;fill-opacity:1;fill-rule:nonzero;stroke:none" transform="translate(368.203 315.849)"/><path d="M0 0c2.961.218 5.665 1.436 7.237 3.262.986 1.145 1.455 2.445 1.352 3.75-.268 3.5-4.564 6.05-9.573 5.68-2.962-.217-5.668-1.432-7.239-3.259-.893-1.037-1.368-2.219-1.368-3.409l.016-.34C-9.302 2.184-5.007-.366 0 0" style="fill:#000001;fill-opacity:1;fill-rule:nonzero;stroke:none" transform="translate(386.072 309.297)"/><path d="M0 0c-.302.27-.699.408-1.104.377L-17.07-.718a1.52 1.52 0 0 1-1.079-.57 1.51 1.51 0 0 1-.293-1.185l4.281-24.18a1.495 1.495 0 0 1 1.646-1.228L.03-26.412c.775.09 1.35.763 1.324 1.542L.496-1.056C.479-.654.302-.276 0 0" style="fill:#000001;fill-opacity:1;fill-rule:nonzero;stroke:none" transform="translate(394.959 307.781)"/><path d="m0 0-10.104 6.326a1.5 1.5 0 0 1-1.754-.116s-11.459-8.908-13.52-10.64c-1.346 2.317-5.619 9.696-5.619 9.696-.28.48-.804.775-1.356.762l-14.762-.385a1.466 1.466 0 0 1-1.432-1.497c.005-.276.087-.551.242-.793 0 0 7.458-11.585 8.771-13.622l-15.021-10.598a1.47 1.47 0 0 1-.621-1.226l.004-.086a1.52 1.52 0 0 1 .805-1.229l10.297-5.517a1.48 1.48 0 0 1 1.662.166l9.54 8.028c1.216-2.401 4.48-8.861 4.48-8.861a1.53 1.53 0 0 1 1.32-.841l14.386-.382a1.47 1.47 0 0 1 1.31.721c.138.238.207.509.2.778-.002.25-.071.502-.205.729 0 0-6.93 11.958-8.178 14.109C-17.412-13.206 0-2.557 0-2.557c.447.263.719.742.719 1.267v.024C.71-.752.438-.276 0 0" style="fill:#000001;fill-opacity:1;fill-rule:nonzero;stroke:none" transform="translate(489.94 312.56)"/><path d="M0 0a1.487 1.487 0 0 1-1.586 1.184L-17.653-.161a1.5 1.5 0 0 1-1.365-1.337s-.812-7.738-1.364-12.975l-6.619 13.119a1.505 1.505 0 0 1-1.522.816l-14.794-1.861a1.5 1.5 0 0 1-1.308-1.518l.656-31.149c.013-.44.214-.852.555-1.129a1.5 1.5 0 0 1 1.218-.309l6.019 1.123a1.49 1.49 0 0 1 1.214 1.337l1.39 15.401c2.747-5.33 7.611-14.756 7.611-14.756.28-.541.86-.859 1.468-.802l9.469.877a1.5 1.5 0 0 1 1.335 1.223s1.708 9.316 2.785 15.2l6.248-17.13a1.5 1.5 0 0 1 1.721-.951l8.339 1.794a1.5 1.5 0 0 1 1.149 1.768z" style="fill:#008dd0;fill-opacity:1;fill-rule:nonzero;stroke:none" transform="translate(368.203 315.849)"/><path d="M0 0c2.961.218 5.665 1.436 7.237 3.262.986 1.145 1.455 2.445 1.352 3.75-.268 3.5-4.564 6.05-9.573 5.68-2.962-.217-5.668-1.432-7.239-3.259-.893-1.037-1.368-2.219-1.368-3.409l.016-.34C-9.302 2.184-5.007-.366 0 0" style="fill:#008dd0;fill-opacity:1;fill-rule:nonzero;stroke:none" transform="translate(386.072 309.297)"/><path d="M0 0c-.302.27-.699.408-1.104.377L-17.07-.718a1.52 1.52 0 0 1-1.079-.57 1.51 1.51 0 0 1-.293-1.185l4.281-24.18a1.495 1.495 0 0 1 1.646-1.228L.03-26.412c.775.09 1.35.763 1.324 1.542L.496-1.056C.479-.654.302-.276 0 0" style="fill:#008dd0;fill-opacity:1;fill-rule:nonzero;stroke:none" transform="translate(394.959 307.781)"/><path d="m0 0-10.104 6.326a1.5 1.5 0 0 1-1.754-.116s-11.459-8.908-13.52-10.64c-1.346 2.317-5.619 9.696-5.619 9.696-.28.48-.804.775-1.356.762l-14.762-.385a1.466 1.466 0 0 1-1.432-1.497c.005-.276.087-.551.242-.793 0 0 7.458-11.585 8.771-13.622l-15.021-10.598a1.47 1.47 0 0 1-.621-1.226l.004-.086a1.52 1.52 0 0 1 .805-1.229l10.297-5.517a1.48 1.48 0 0 1 1.662.166l9.54 8.028c1.216-2.401 4.48-8.861 4.48-8.861a1.53 1.53 0 0 1 1.32-.841l14.386-.382a1.47 1.47 0 0 1 1.31.721c.138.238.207.509.2.778-.002.25-.071.502-.205.729 0 0-6.93 11.958-8.178 14.109C-17.412-13.206 0-2.557 0-2.557c.447.263.719.742.719 1.267v.024C.71-.752.438-.276 0 0" style="fill:#008dd0;fill-opacity:1;fill-rule:nonzero;stroke:none" transform="translate(489.94 312.56)"/><path d="m0 0-6.658-.405A1.503 1.503 0 0 1-8.062-1.9v-12.451l-8.231 9.644c-.299.35-.746.543-1.211.521l-13.167-.618a1.5 1.5 0 0 1-1.43-1.533l.77-28.315a1.497 1.497 0 0 1 1.495-1.461h6.489a1.5 1.5 0 0 1 1.496 1.502c0 .008-.125 8.789-.185 13.436 3.35-3.56 10.348-10.988 10.348-10.988a1.5 1.5 0 0 1 1.238-.461l9.817.992c.747.076 1.32.694 1.347 1.444l.875 28.646a1.5 1.5 0 0 1-.452 1.124A1.52 1.52 0 0 1 0 0" style="fill:#008dd0;fill-opacity:1;fill-rule:nonzero;stroke:none" transform="translate(432.057 317.777)"/></g><path d="M425.492 315.877v-16.506s-10.282 12.042-10.865 12.729c-.836-.043-11.558-.546-13.172-.621.045-1.739.719-26.587.765-28.313h6.49c-.027 1.737-.242 17.261-.242 17.261l12.99-13.786c.804.082 8.431.85 9.816.991l.875 28.651z" style="fill:url(#i);stroke:none" transform="matrix(3.39937 0 0 -3.39937 -1081.314 1406.072)"/><path d="m377.992 305.576 4.277-24.187c1.498.173 11.077 1.293 12.547 1.469l-.858 23.813c-1.1-.08-14.126-.974-15.966-1.095" style="fill:url(#j);stroke:none" transform="matrix(3.39937 0 0 -3.39937 -1081.314 1406.072)"/><path d="M385.196 320.498c-2.574-.185-4.893-1.214-6.213-2.745-.66-.768-1.005-1.602-1.005-2.432q.002-.108.008-.227c.207-2.632 3.858-4.605 7.976-4.303 2.576.186 4.896 1.211 6.211 2.743.725.838 1.069 1.755.996 2.659-.188 2.456-3.372 4.336-7.137 4.336q-.413 0-.836-.031" style="fill:url(#k);stroke:none" transform="matrix(3.39937 0 0 -3.39937 -1081.314 1406.072)"/><path d="m350.672 314.195-1.9-18.035s-8.333 16.528-8.908 17.666c-1.186-.153-13.294-1.675-14.793-1.866.036-1.591.621-29.182.664-31.146l6.015 1.122c.12 1.359 1.851 20.526 1.851 20.526l9.971-19.325 9.468.878c.245 1.343 3.777 20.616 3.777 20.616l8.134-22.298c1.261.271 6.922 1.488 8.337 1.79l-6.546 31.42c-.755-.062-14.64-1.229-16.07-1.348" style="fill:url(#l);stroke:none" transform="matrix(3.39937 0 0 -3.39937 -1081.314 1406.072)"/><path d="M464.174 305.834s-5.986 10.325-6.524 11.259l-14.761-.387 9.544-14.83s-13.982-9.867-16.174-11.412c1.055-.568 9.279-4.966 10.298-5.511.909.763 10.986 9.243 10.986 9.243s4.862-9.619 5.347-10.571c1.077-.029 13.544-.361 14.382-.382-1.432 2.466-8.919 15.39-8.919 15.39s18.489 11.289 20.809 12.661c-2.035 1.274-9.141 5.72-10.103 6.326-.968-.815-14.885-11.786-14.885-11.786" style="fill:url(#m);stroke:none" transform="matrix(3.39937 0 0 -3.39937 -1081.314 1406.072)"/><path d="M0 0c-.562-.107-1.966-.364-3.286-.612.005-.233.009-.409.014-.509.681.128 4.924.919 6.015 1.121.082.934.923 10.246 1.444 16.003l-2.335 4.523z" style="fill:#fff;fill-opacity:1;fill-rule:nonzero;stroke:none" transform="matrix(3.39937 0 0 -3.39937 37.103 447.668)"/><path d="M0 0c.643-3.083 6.194-29.624 6.546-31.318-.923-.199-3.654-.789-5.793-1.246.097-.258.118-.321.152-.419 1.261.271 6.922 1.488 8.338 1.79L2.696.227C2.503.207 1.464.121 0 0" style="fill:#fff;fill-opacity:1;fill-rule:nonzero;stroke:none" transform="matrix(3.39937 0 0 -3.39937 156.214 334.194)"/><path d="M0 0c-2.514 4.98-6.266 12.417-6.641 13.166-.293-.038-1.263-.158-2.577-.329C-7.925 10.271-.472-4.5-.472-4.5z" style="fill:#fff;fill-opacity:1;fill-rule:nonzero;stroke:none" transform="matrix(3.39937 0 0 -3.39937 96.585 384.018)"/><path d="M0 0c-.804-.073-4.439-.396-6.985-.636l.258-.496c1.077.099 8.271.768 9.468.877.163.895 1.796 9.799 2.861 15.61l-1.825 5.006S.246 1.343 0 0" style="fill:#fff;fill-opacity:1;fill-rule:nonzero;stroke:none" transform="matrix(3.39937 0 0 -3.39937 109.484 439.734)"/><path d="M0 0c.093-2.613.795-22.076.85-23.623-1.068-.127-6.441-.756-9.86-1.159a8 8 0 0 0 .056-.31c1.499.174 11.078 1.293 12.549 1.469C3.536-22.031 2.796-1.47 2.736.189 2.46.168 1.423.095 0 0" style="fill:#fff;fill-opacity:1;fill-rule:nonzero;stroke:none" transform="matrix(3.39937 0 0 -3.39937 248.596 364.23)"/><path d="M0 0c.071-.903-.273-1.82-.993-2.659-1.23-1.429-3.336-2.408-5.703-2.689.716-.09 1.464-.112 2.232-.053 2.576.186 4.896 1.211 6.211 2.742.724.839 1.069 1.756.996 2.659-.202 2.636-3.855 4.609-7.972 4.306-.171-.013-.339-.037-.509-.059C-2.613 3.849-.163 2.143 0 0" style="fill:#fff;fill-opacity:1;fill-rule:nonzero;stroke:none" transform="matrix(3.39937 0 0 -3.39937 245.89 331.216)"/><path d="M0 0h2.743c-.018 1.257-.134 9.714-.199 14.303-1.623 1.724-2.781 2.958-2.781 2.958z" style="fill:#fff;fill-opacity:1;fill-rule:nonzero;stroke:none" transform="matrix(3.39937 0 0 -3.39937 298.718 443.485)"/><path d="M0 0c-.936-.095-4.854-.477-7.459-.741.118-.126.381-.393.418-.432.804.082 8.432.85 9.815.991l.876 28.651c-.405-.026-1.522-.09-2.749-.168C.812 25.416.045 1.525 0 0" style="fill:#fff;fill-opacity:1;fill-rule:nonzero;stroke:none" transform="matrix(3.39937 0 0 -3.39937 375.314 427.687)"/><path d="M0 0c-3.091 3.622-7.736 9.066-8.122 9.521-.239-.014-1.256-.061-2.639-.127C-9.538 7.964 0-3.208 0-3.208Z" style="fill:#fff;fill-opacity:1;fill-rule:nonzero;stroke:none" transform="matrix(3.39937 0 0 -3.39937 355.767 377.493)"/><path d="M0 0c.825-.435 1.442-.77 1.677-.892.657.549 6.091 5.121 9.057 7.62-.491.973-.815 1.623-.815 1.623S2.815 2.374 0 0" style="fill:#fff;fill-opacity:1;fill-rule:nonzero;stroke:none" transform="matrix(3.39937 0 0 -3.39937 431.002 434.38)"/><path d="M0 0c-1.692 2.917-5.215 9.003-5.625 9.709l-2.699-.073C-7.591 8.376-1.843-1.55-1.843-1.55S-1.098-.92 0 0" style="fill:#fff;fill-opacity:1;fill-rule:nonzero;stroke:none" transform="matrix(3.39937 0 0 -3.39937 493.532 361.158)"/><path d="M0 0s18.49 11.289 20.81 12.661c-2.036 1.274-9.141 5.72-10.103 6.326l-1.174-.984c2.476-1.552 6.981-4.37 8.534-5.342C15.743 11.289-2.742 0-2.742 0s6.557-11.317 8.57-14.788l-11.565.314.274-.534L8.56-15.39l-.007.009c.178-.007.305-.009.366-.009C7.487-12.924 0 0 0 0" style="fill:#fff;fill-opacity:1;fill-rule:nonzero;stroke:none" transform="matrix(3.39937 0 0 -3.39937 510.79 390.908)"/><path d="m0 0-6.075 3.034-.397-.1s-5.023-.995-8.987-2.567c-2.68-5.083-3.348-14.487-3.348-14.487l-2.38-2.092-1.127-3.096s-2.404.848-3.735-.707c.379-1.919 4.278-5.599 4.278-5.599l7.097 2.533.774 5.512s4.163 5.309 4.805 6.928c.647 1.627 1.164 4.643 1.164 4.643l7.94-1.034c.021-.046.052-.102.077-.152Z" style="fill:#000001;fill-opacity:1;fill-rule:nonzero;stroke:none" transform="matrix(3.39937 0 0 -3.39937 407.688 265.98)"/><path d="M0 0c-.668.264-1.944-.42-1.944-.42l1.539-2.031.837 2.145z" style="fill:#f2cfb0;fill-opacity:1;fill-rule:nonzero;stroke:none" transform="matrix(3.39937 0 0 -3.39937 329.397 333.374)"/><path d="m0 0-2.499-2.062-1.748-6.28 1.514-.841 5.407 1.794.759 5.894s.381.381 1.043 1.161C2.596-.241 1.128.528.255 1.138.264 1.08 0 0 0 0" style="fill:#f4d4b3;fill-opacity:1;fill-rule:nonzero;stroke:none" transform="matrix(3.39937 0 0 -3.39937 345.637 316.756)"/><path d="M0 0s-.226 3.961-1.522 5.021c-.369.348-2.984 1.849-2.984 1.849s-7.645-1.231-9.088-2.077c-.928-.866-1.61-3.1-2.183-5.761 1.069-1.035 3.259-2.523 7.089-2.695.487 2.079.48 3.775.48 3.775z" style="fill:#fed7b3;fill-opacity:1;fill-rule:nonzero;stroke:none" transform="matrix(3.39937 0 0 -3.39937 404.74 283.292)"/><path d="M0 0c.809-.624 2.473-1.62 4.682-1.561C5.807-.227 7.143 1.373 7.583 1.951c.164.422.305.858.426 1.294C4.376 3.441 2.15 4.773.934 5.839A84 84 0 0 1 0 0" style="fill:#fff;fill-opacity:1;fill-rule:nonzero;stroke:none" transform="matrix(3.39937 0 0 -3.39937 347.17 309.69)"/><path d="m0 0-.317-1.145 1.513-.841L6.604-.192l.758 5.895s.381.38 1.043 1.16a7.8 7.8 0 0 0-2.007.373C5.096 5.608 3.613 3.862 2.886 3.172 2.77 2.184 1.968-.709 0 0" style="fill:#e3b28d;fill-opacity:1;fill-rule:nonzero;stroke:none" transform="matrix(3.39937 0 0 -3.39937 332.28 341.222)"/><path d="M0 0c-.368.348-2.983 1.848-2.983 1.848l-.849-.142c.765-.296 1.478-1.072 1.689-3.062-.327-.442-4.56-1.386-4.56-1.386s-2.04 1.108-2.808 1.134c1.056-.85 1.906-1.104 2.181-2.242-.318-1.223-1.14-2.902-2-4.569a14.5 14.5 0 0 1 2.164-.265c.487 2.078.48 3.775.48 3.775l8.208-.112S1.297-1.061 0 0" style="fill:#e3b28d;fill-opacity:1;fill-rule:nonzero;stroke:none" transform="matrix(3.39937 0 0 -3.39937 399.564 266.222)"/><path d="M0 0a7 7 0 0 1 2.114-.271c1.125 1.333 2.461 2.934 2.901 3.512.164.422.305.858.426 1.293-.848.048-1.609.159-2.31.311-.851-1.613-1.592-2.889-1.592-2.889S.88 1.108 0 0" style="fill:#bcbec0;fill-opacity:1;fill-rule:nonzero;stroke:none" transform="matrix(3.39937 0 0 -3.39937 355.9 314.073)"/><path d="M0 0c3.924-6.875 1.535-15.632-5.344-19.564-6.877-3.926-15.635-1.536-19.561 5.341-3.931 6.875-1.54 15.633 5.338 19.565C-12.688 9.267-3.933 6.878 0 0" style="fill:#000001;fill-opacity:1;fill-rule:nonzero;stroke:none" transform="matrix(3.39937 0 0 -3.39937 644.2 267.922)"/><path d="M0 0c6.538-3.443 9.048-11.532 5.605-18.07-3.444-6.536-11.534-9.049-18.068-5.606-6.539 3.437-9.051 11.531-5.609 18.069C-14.627.932-6.537 3.441 0 0" style="fill:#fff;fill-opacity:1;fill-rule:nonzero;stroke:none" transform="matrix(3.39937 0 0 -3.39937 623.338 252.304)"/><path d="M0 0c-1.552-5.891 1.084-12.281 6.707-15.235 5.66-2.98 12.489-1.498 16.45 3.202-1.688-.436-8.286-1.8-14.828 1.643C2.028-7.069.375-1.712 0 0m2.823 5.354a13.6 13.6 0 0 1-1.725-2.521s4.189-.612 11.767-4.601c7.584-3.992 11.91-7.861 11.91-7.861.454.858.801 1.749 1.054 2.648-.433 1.91-2.468 9.232-9.026 12.688-6.296 3.312-12.167.65-13.98-.353" style="fill:#e28f38;fill-opacity:1;fill-rule:nonzero;stroke:none" transform="matrix(3.39937 0 0 -3.39937 558.173 280.998)"/><path d="m0 0-.082-.006a15 15 0 0 1-.336-1.321c.638-2.222 2.613-6.952 8.336-9.966 6.089-3.208 12.299-2.294 14.592-1.788q.378.411.724.858l-.017.052c-.075-.026-7.617-2.373-14.972 1.5C.929-6.816.011-.066 0 0m.85 2.24-.052-.349c.045-.004 4.234-.66 11.658-4.562 7.45-3.924 11.792-7.779 11.839-7.818l.232.266q.084.164.163.327c-.593.515-4.896 4.155-11.907 7.846C5.877 1.585 1.808 2.43 1.034 2.567.975 2.458.909 2.352.85 2.24m2.397 3.247a13 13 0 0 1-1.116-1.266l.066-.092c.068.045 6.898 4.515 14.195.67C23.726.937 25.313-8.01 25.331-8.105l.095.018c.131.414.244.821.332 1.235-.699 2.615-2.989 9.092-9.035 12.274-5.641 2.972-10.996 1.227-13.476.065" style="fill:#000001;fill-opacity:1;fill-rule:nonzero;stroke:none" transform="matrix(3.39937 0 0 -3.39937 559.016 278.981)"/><path d="M0 0c6.538-3.443 9.048-11.532 5.605-18.07-3.444-6.536-11.534-9.049-18.068-5.606-6.539 3.437-9.051 11.531-5.609 18.069C-14.627.932-6.537 3.441 0 0Z" style="fill:none;stroke:#231f20;stroke-width:.648;stroke-linecap:butt;stroke-linejoin:miter;stroke-miterlimit:4;stroke-dasharray:none;stroke-opacity:1" transform="matrix(3.39937 0 0 -3.39937 623.338 252.304)"/><g style="opacity:.3;fill:#333;fill-opacity:1"><g clip-path="url(#n)" style="fill:#333;fill-opacity:1" transform="matrix(3.39937 0 0 -3.39937 -1081.314 1406.072)"><g style="fill:#333;fill-opacity:1"><path d="M0 0c-2.796 4.889-8.21 7.348-13.472 6.614 2.486-1 4.66-2.807 6.09-5.31 3.376-5.909 1.32-13.441-4.589-16.816a12.3 12.3 0 0 0-8.15-1.455c4.166-3.426 10.174-4.117 15.136-1.283C1.433-14.588 3.661-6.411 0 0" style="fill:#333;fill-opacity:1;fill-rule:nonzero;stroke:none" transform="translate(506.843 334.205)"/></g></g></g><path d="M0 0h1.029c.388 0 1.267.011 1.267 1.248 0 .778-.291 1.257-1.22 1.257H0Zm0 3.856h1.236c.402 0 .966.274.966 1.129 0 .647-.443 1.125-1.066 1.125H0Zm-1.848-5.215v8.823h3.277c1.406 0 2.568-.401 2.568-2.283 0-1.016-.502-1.747-1.502-1.941v-.028c1.306-.184 1.65-1.026 1.65-2.235 0-2.236-1.943-2.336-2.728-2.336z" style="fill:#024ea2;fill-opacity:1;fill-rule:nonzero;stroke:none" transform="matrix(3.39937 0 0 -3.39937 48.823 519.434)"/><path d="M0 0h-.026l-.843-3.816h1.76zm-3.557-7.129 2.445 8.823H1.32l2.395-8.823H1.77l-.487 1.954h-2.518l-.5-1.954z" style="fill:#024ea2;fill-opacity:1;fill-rule:nonzero;stroke:none" transform="matrix(3.39937 0 0 -3.39937 89.294 499.82)"/><path d="M0 0c-2.284 0-2.712 1.343-2.616 2.871h1.848c0-.841.035-1.552 1.048-1.552.625 0 .932.406.932 1.005 0 1.589-3.717 1.686-3.717 4.313 0 1.384.659 2.48 2.91 2.48 1.799 0 2.689-.807 2.566-2.653H1.175c0 .664-.11 1.334-.856 1.334-.599 0-.955-.329-.955-.94 0-1.677 3.715-1.529 3.715-4.303C3.079.27 1.408 0 0 0" style="fill:#024ea2;fill-opacity:1;fill-rule:nonzero;stroke:none" transform="matrix(3.39937 0 0 -3.39937 124.642 524.55)"/><path d="M0 0h2.027L-.442-3.959l2.469-4.864H-.05L-2.167-4.3h-.024v-4.523h-1.843V0h1.843v-3.775h.024z" style="fill:#024ea2;fill-opacity:1;fill-rule:nonzero;stroke:none" transform="matrix(3.39937 0 0 -3.39937 164.577 494.061)"/><path d="M0 0v8.823h4.817V7.47H1.846V5.291h2.738V3.938H1.846V1.359h3.066V0Z" style="fill:#024ea2;fill-opacity:1;fill-rule:nonzero;stroke:none" transform="matrix(3.39937 0 0 -3.39937 185.97 524.055)"/><path d="M0 0v-1.464h-2.05v-7.359h-1.848v7.359H-5.95V0Z" style="fill:#024ea2;fill-opacity:1;fill-rule:nonzero;stroke:none" transform="matrix(3.39937 0 0 -3.39937 236.232 494.061)"/><path d="M0 0h1.026c.392 0 1.272.011 1.272 1.248 0 .778-.293 1.257-1.222 1.257H0Zm0 3.856h1.233c.405 0 .971.274.971 1.129 0 .647-.445 1.125-1.066 1.125H0Zm-1.846-5.215v8.823h3.277c1.406 0 2.566-.401 2.566-2.283 0-1.016-.5-1.747-1.505-1.941v-.028C3.8 3.028 4.144 2.186 4.144.977c0-2.236-1.94-2.336-2.726-2.336z" style="fill:#024ea2;fill-opacity:1;fill-rule:nonzero;stroke:none" transform="matrix(3.39937 0 0 -3.39937 257.136 519.434)"/><path d="M0 0h-.024l-.843-3.816h1.76zm-3.555-7.129 2.443 8.823H1.32l2.395-8.823H1.772l-.489 1.954h-2.516l-.502-1.954z" style="fill:#024ea2;fill-opacity:1;fill-rule:nonzero;stroke:none" transform="matrix(3.39937 0 0 -3.39937 297.606 499.82)"/><path d="M0 0v8.823h1.845V1.467h2.764V0Z" style="fill:#024ea2;fill-opacity:1;fill-rule:nonzero;stroke:none" transform="matrix(3.39937 0 0 -3.39937 324.856 524.055)"/><path d="M0 0v8.823h1.845V1.467h2.762V0Z" style="fill:#024ea2;fill-opacity:1;fill-rule:nonzero;stroke:none" transform="matrix(3.39937 0 0 -3.39937 354.934 524.055)"/><path d="M0 0v-1.464h-2.053v-7.359h-1.844v7.359h-2.055V0Z" style="fill:#024ea2;fill-opacity:1;fill-rule:nonzero;stroke:none" transform="matrix(3.39937 0 0 -3.39937 423.692 494.061)"/><path d="M0 0v8.823h4.816V7.47H1.845V5.291h2.738V3.938H1.845V1.359h3.07V0Z" style="fill:#024ea2;fill-opacity:1;fill-rule:nonzero;stroke:none" transform="matrix(3.39937 0 0 -3.39937 438.235 524.055)"/><path d="M0 0h-.023l-.843-3.816H.893zm-3.554-7.129 2.445 8.823h2.431l2.396-8.823H1.775l-.49 1.954h-2.517l-.502-1.954z" style="fill:#024ea2;fill-opacity:1;fill-rule:nonzero;stroke:none" transform="matrix(3.39937 0 0 -3.39937 480.439 499.82)"/><path d="M0 0v8.823h2.969L4.35 2.825h.022l1.471 5.998h2.871V0H6.916v6.81h-.023L5.194 0H3.432L1.819 6.81h-.021V0Z" style="fill:#024ea2;fill-opacity:1;fill-rule:nonzero;stroke:none" transform="matrix(3.39937 0 0 -3.39937 507.537 524.055)"/><path d="M0 0c-.23-.093-.346-.141-.576-.238a363 363 0 0 0-.956 2.262c.226.111.34.164.565.269l.38-.905c.266.117.4.174.664.283l.195-.462c-.266-.107-.4-.163-.667-.277zm-1.3-2.16c.527.231.789.338 1.313.542-.132.307-.198.46-.327.765a27 27 0 0 1-1.304-.564zm-1.085.906C-1.4-.76-.909-.549.067-.158.354-.833.5-1.174.796-1.861a29 29 0 0 1-2.488-1.002c-.282.651-.42.972-.693 1.609m-.141 1.248a2.2 2.2 0 0 0-.167-.676 3.4 3.4 0 0 0-.41-.721c-.21.068-.314.1-.522.161.206.279.376.596.466.925.089.325.095.65-.029.94l-.143.338c.239.139.358.206.597.336l.141-.335C-2.47.67-2.24.487-1.977.37c.27-.12.585-.17.873-.168l-.153-.554c-.542.02-.946.132-1.269.346" style="fill:#fff;fill-opacity:1;fill-rule:nonzero;stroke:none" transform="matrix(3.39937 0 0 -3.39937 455.51 295.916)"/><path d="M0 0c-.316-.113-.476-.17-.793-.286l-.213.501c.318.118.475.176.79.29l-.321.759.554.207C.432.493.643 0 1.073-.992l-.564-.195C.304-.71.201-.473 0 0m.57-1.911a.68.68 0 0 1-.472.01c-.331-.112-.471-.402-.336-.716.137-.318.463-.455.796-.345.334.108.479.402.338.724a.63.63 0 0 1-.326.327m.898-.994c-.127-.24-.364-.434-.699-.542a1.4 1.4 0 0 0-.934.01c-.281.11-.506.322-.639.628a.97.97 0 0 0 .011.83c.123.245.353.449.682.563s.656.104.933-.01c.275-.112.504-.326.635-.625.137-.313.129-.606.011-.854m-2.529 1.776c-.223.093-.548.322-.548.322-.016-.006-.048-.412-.139-.636a3 3 0 0 0-.387-.686c-.214.113-.32.169-.532.278.206.288.371.592.441.893.071.297.063.607-.064.91l-.188.449c.239.098.358.145.596.239.074-.178.112-.266.188-.445.141-.337.368-.555.629-.706a2.4 2.4 0 0 1 .867-.274l-.128-.558a3 3 0 0 0-.735.214" style="fill:#fff;fill-opacity:1;fill-rule:nonzero;stroke:none" transform="matrix(3.39937 0 0 -3.39937 466.187 287.455)"/><path d="M0 0c-.134-.056-.2-.083-.335-.137l.415-.92a39 39 0 0 0-.533-.211c-.416.926-.621 1.389-1.025 2.31.211.082.316.124.526.209l.4-.903.334.136c-.171.38-.256.57-.424.95.209.087.314.13.522.22A187 187 0 0 1 1.028-.869a30 30 0 0 0-.53-.227C.297-.657.197-.438 0 0m.107-1.825c-.338-.134-.486-.425-.35-.725.138-.305.468-.412.809-.277.329.131.469.426.33.729-.139.299-.462.403-.789.273m1.367-.894c-.119-.252-.356-.47-.681-.599a1.35 1.35 0 0 0-.937-.046c-.283.098-.52.308-.655.608a.96.96 0 0 0 .008.828c.12.245.355.457.681.585.32.127.645.14.921.051.274-.09.507-.284.64-.567.14-.298.138-.602.023-.86m-2.843 1.444c-.185.089-.488.331-.488.331-.026-.012-.125-.793-.347-1.145l-.541.31c.146.249.265.518.302.811.037.286-.001.598-.146.932l-.193.45.549.206.191-.442A1.78 1.78 0 0 1-.703-.909c-.048-.225-.071-.337-.12-.561a2.2 2.2 0 0 0-.546.195" style="fill:#fff;fill-opacity:1;fill-rule:nonzero;stroke:none" transform="matrix(3.39937 0 0 -3.39937 479.89 282.925)"/><path d="M0 0c.306.172.458.261.762.448L.575.825a18 18 0 0 0-.76-.444zm1.359-1.295a.64.64 0 0 1-.455-.09c-.309-.183-.425-.511-.272-.819.154-.313.476-.398.789-.208.311.19.431.541.274.848a.51.51 0 0 1-.336.269m.929-.826a1.48 1.48 0 0 0-.631-.756c-.313-.193-.628-.246-.897-.182-.279.068-.511.26-.659.565a1.1 1.1 0 0 0-.048.877c.1.276.308.524.617.705.309.182.623.243.896.19a.92.92 0 0 0 .652-.495c.152-.294.166-.608.07-.904M-1.177-.985c.316.153.474.233.787.399-.195.407-.292.611-.484 1.02a21 21 0 0 0-.781-.391c.19-.411.286-.617.478-1.028m2.172.964C.69-.211.537-.302.23-.476L.374-.77a20 20 0 0 0-1.86-.954c-.373.8-.557 1.201-.92 2.001.741.335 1.108.514 1.836.913l.157-.332c.305.168.456.256.758.438l-.239.49c.207.124.31.187.516.318.462-.94.697-1.408 1.173-2.337a18 18 0 0 0-.523-.342z" style="fill:#fff;fill-opacity:1;fill-rule:nonzero;stroke:none" transform="matrix(3.39937 0 0 -3.39937 489.724 278.01)"/></svg>